<?xml version="1.0" encoding="utf-8"?>
<!-- Generator: Adobe Illustrator 22.1.0, SVG Export Plug-In . SVG Version: 6.00 Build 0)  -->
<svg version="1.1" id="Layer_1" xmlns="http://www.w3.org/2000/svg" xmlns:xlink="http://www.w3.org/1999/xlink" x="0px" y="0px"
	 viewBox="0 0 400 110.4" style="enable-background:new 0 0 400 110.4;" xml:space="preserve">
<style type="text/css">
	.st0{fill:#1922FA;}
	.st1{fill:#231F20;}
</style>
<g>
	<path class="st0" d="M14.7,47.3h-2.9v-1.8c-0.3,0.2-0.6,0.4-1,0.7c-0.4,0.3-0.9,0.5-1.3,0.7c-0.5,0.2-1,0.4-1.7,0.6
		c-0.6,0.2-1.4,0.2-2.2,0.2c-1.6,0-2.9-0.5-4-1.5C0.5,45.3,0,44,0,42.5c0-1.3,0.3-2.3,0.8-3.1c0.6-0.8,1.4-1.4,2.4-1.9
		c1.1-0.5,2.3-0.8,3.8-0.9c1.5-0.2,3.1-0.3,4.8-0.4v-0.4c0-0.6-0.1-1.2-0.3-1.6c-0.2-0.4-0.6-0.8-1-1C10,33,9.5,32.8,9,32.7
		c-0.6-0.1-1.2-0.1-1.8-0.1c-0.8,0-1.6,0.1-2.6,0.3s-1.9,0.5-2.9,0.8H1.5v-2.9c0.6-0.2,1.4-0.3,2.5-0.5c1.1-0.2,2.1-0.3,3.2-0.3
		c1.2,0,2.3,0.1,3.2,0.3c0.9,0.2,1.7,0.5,2.3,1c0.7,0.5,1.1,1.1,1.5,1.8c0.3,0.7,0.5,1.6,0.5,2.7V47.3z M11.8,43.2v-4.7
		c-0.9,0-1.9,0.1-3.1,0.2c-1.2,0.1-2.2,0.2-2.9,0.4c-0.8,0.2-1.5,0.6-2,1.1c-0.5,0.5-0.8,1.2-0.8,2c0,1,0.3,1.7,0.9,2.2
		c0.6,0.5,1.5,0.7,2.7,0.7c1,0,2-0.2,2.8-0.6C10.3,44.2,11.1,43.7,11.8,43.2z"/>
	<path class="st0" d="M33.3,33.6h-0.2c-0.4-0.1-0.9-0.2-1.3-0.2c-0.4,0-0.9-0.1-1.4-0.1c-0.9,0-1.8,0.2-2.6,0.6
		c-0.8,0.4-1.6,0.9-2.4,1.5v11.9h-2.9V30.5h2.9V33c1.2-0.9,2.2-1.5,3.1-1.9c0.9-0.4,1.8-0.6,2.7-0.6c0.5,0,0.9,0,1.1,0
		c0.2,0,0.6,0.1,1,0.1V33.6z"/>
	<path class="st0" d="M49.2,47.2c-0.5,0.1-1.1,0.3-1.8,0.3c-0.6,0.1-1.2,0.1-1.7,0.1c-1.8,0-3.1-0.5-4-1.4c-0.9-0.9-1.4-2.4-1.4-4.4
		v-8.9h-2v-2.4h2v-4.8h2.9v4.8h6v2.4h-6v7.7c0,0.9,0,1.6,0.1,2.1c0,0.5,0.2,1,0.4,1.4c0.2,0.4,0.5,0.7,0.9,0.9
		c0.4,0.2,1,0.3,1.8,0.3c0.5,0,1-0.1,1.5-0.2c0.5-0.1,0.9-0.2,1.1-0.3h0.2V47.2z"/>
	<path class="st0" d="M69.9,39.2H57.1c0,1,0.2,1.9,0.5,2.7c0.3,0.8,0.8,1.4,1.3,1.9c0.5,0.5,1.2,0.8,1.9,1.1
		c0.7,0.2,1.6,0.4,2.4,0.4c1.2,0,2.4-0.2,3.6-0.7c1.2-0.5,2-0.9,2.5-1.3h0.2v3.1c-1,0.4-2,0.7-3,1c-1,0.3-2.1,0.4-3.2,0.4
		c-2.9,0-5.1-0.8-6.7-2.3c-1.6-1.5-2.4-3.6-2.4-6.4c0-2.7,0.8-4.9,2.3-6.5c1.5-1.6,3.6-2.4,6.1-2.4c2.3,0,4.1,0.7,5.4,2
		c1.3,1.3,1.9,3.2,1.9,5.6V39.2z M67,37.1c0-1.5-0.4-2.6-1.2-3.4c-0.8-0.8-1.9-1.2-3.5-1.2c-1.6,0-2.8,0.4-3.7,1.3
		c-0.9,0.9-1.4,2-1.6,3.3H67z"/>
	<path class="st0" d="M91.4,47.3h-2.9v-9.6c0-0.8,0-1.5-0.1-2.2c-0.1-0.7-0.3-1.2-0.5-1.6c-0.3-0.4-0.6-0.7-1.1-0.9
		c-0.5-0.2-1.1-0.3-1.9-0.3c-0.8,0-1.6,0.2-2.5,0.6c-0.9,0.4-1.7,0.9-2.5,1.5v12.5h-2.9V30.5h2.9v1.9c0.9-0.7,1.8-1.3,2.8-1.7
		c1-0.4,2-0.6,3-0.6c1.9,0,3.3,0.5,4.3,1.6c1,1.1,1.5,2.7,1.5,4.7V47.3z"/>
	<path class="st0" d="M113.4,47.3h-2.9v-1.8c-0.8,0.7-1.7,1.2-2.6,1.6c-0.9,0.4-1.9,0.6-3,0.6c-2.1,0-3.7-0.8-4.9-2.3
		c-1.2-1.5-1.8-3.7-1.8-6.4c0-1.4,0.2-2.7,0.6-3.8c0.4-1.1,1-2.1,1.7-2.8c0.7-0.8,1.5-1.3,2.5-1.7c0.9-0.4,1.9-0.6,2.9-0.6
		c0.9,0,1.7,0.1,2.4,0.3c0.7,0.2,1.4,0.5,2.2,0.9v-7.3h2.9V47.3z M110.5,43.2v-9.6c-0.8-0.3-1.5-0.6-2.1-0.7c-0.6-0.1-1.3-0.2-2-0.2
		c-1.6,0-2.9,0.6-3.8,1.7c-0.9,1.1-1.4,2.7-1.4,4.7c0,2,0.4,3.5,1.1,4.5c0.7,1,1.8,1.6,3.4,1.6c0.8,0,1.7-0.2,2.5-0.5
		C109,44.2,109.8,43.8,110.5,43.2z"/>
	<path class="st0" d="M134.8,47.3h-2.9v-1.8c-0.3,0.2-0.6,0.4-1,0.7c-0.4,0.3-0.9,0.5-1.3,0.7c-0.5,0.2-1,0.4-1.7,0.6
		c-0.6,0.2-1.4,0.2-2.2,0.2c-1.6,0-2.9-0.5-4-1.5c-1.1-1-1.6-2.3-1.6-3.8c0-1.3,0.3-2.3,0.8-3.1c0.6-0.8,1.4-1.4,2.4-1.9
		c1.1-0.5,2.3-0.8,3.8-0.9c1.5-0.2,3.1-0.3,4.8-0.4v-0.4c0-0.6-0.1-1.2-0.3-1.6c-0.2-0.4-0.6-0.8-1-1c-0.4-0.2-0.9-0.4-1.5-0.5
		c-0.6-0.1-1.2-0.1-1.8-0.1c-0.8,0-1.6,0.1-2.6,0.3c-0.9,0.2-1.9,0.5-2.9,0.8h-0.2v-2.9c0.6-0.2,1.4-0.3,2.5-0.5
		c1.1-0.2,2.1-0.3,3.2-0.3c1.2,0,2.3,0.1,3.2,0.3c0.9,0.2,1.7,0.5,2.3,1c0.7,0.5,1.1,1.1,1.5,1.8c0.3,0.7,0.5,1.6,0.5,2.7V47.3z
		 M131.9,43.2v-4.7c-0.9,0-1.9,0.1-3.1,0.2c-1.2,0.1-2.2,0.2-2.9,0.4c-0.8,0.2-1.5,0.6-2,1.1c-0.5,0.5-0.8,1.2-0.8,2
		c0,1,0.3,1.7,0.9,2.2c0.6,0.5,1.5,0.7,2.7,0.7c1,0,2-0.2,2.8-0.6C130.4,44.2,131.2,43.7,131.9,43.2z"/>
</g>
<g>
	<g>
		<path class="st1" d="M142.6,44h3.2v3.3h-3.2V44z"/>
	</g>
	<g>
		<path class="st1" d="M167.7,47.3h-2.9v-9.6c0-0.8,0-1.5-0.1-2.2c-0.1-0.7-0.3-1.2-0.5-1.6c-0.3-0.4-0.6-0.7-1.1-0.9
			c-0.5-0.2-1.1-0.3-1.9-0.3c-0.8,0-1.6,0.2-2.5,0.6c-0.9,0.4-1.7,0.9-2.5,1.5v12.5h-2.9V30.5h2.9v1.9c0.9-0.7,1.8-1.3,2.8-1.7
			c1-0.4,2-0.6,3-0.6c1.9,0,3.3,0.5,4.3,1.6c1,1.1,1.5,2.7,1.5,4.7V47.3z"/>
		<path class="st1" d="M190.2,39.2h-12.8c0,1,0.2,1.9,0.5,2.7c0.3,0.8,0.8,1.4,1.3,1.9c0.5,0.5,1.2,0.8,1.9,1.1
			c0.7,0.2,1.6,0.4,2.4,0.4c1.2,0,2.4-0.2,3.6-0.7c1.2-0.5,2-0.9,2.5-1.3h0.2v3.1c-1,0.4-2,0.7-3,1c-1,0.3-2.1,0.4-3.2,0.4
			c-2.9,0-5.1-0.8-6.7-2.3c-1.6-1.5-2.4-3.6-2.4-6.4c0-2.7,0.8-4.9,2.3-6.5c1.5-1.6,3.6-2.4,6.1-2.4c2.3,0,4.1,0.7,5.4,2
			c1.3,1.3,1.9,3.2,1.9,5.6V39.2z M187.4,37.1c0-1.5-0.4-2.6-1.2-3.4s-1.9-1.2-3.5-1.2c-1.6,0-2.8,0.4-3.7,1.3
			c-0.9,0.9-1.4,2-1.6,3.3H187.4z"/>
		<path class="st1" d="M206.6,47.2c-0.5,0.1-1.1,0.3-1.8,0.3c-0.6,0.1-1.2,0.1-1.7,0.1c-1.8,0-3.1-0.5-4-1.4
			c-0.9-0.9-1.4-2.4-1.4-4.4v-8.9h-2v-2.4h2v-4.8h2.9v4.8h6v2.4h-6v7.7c0,0.9,0,1.6,0.1,2.1c0,0.5,0.2,1,0.4,1.4
			c0.2,0.4,0.5,0.7,0.9,0.9c0.4,0.2,1,0.3,1.8,0.3c0.5,0,1-0.1,1.5-0.2c0.5-0.1,0.9-0.2,1.1-0.3h0.2V47.2z"/>
	</g>
</g>
<g>
	<path class="st0" d="M256.5,38.8c0,1.4-0.2,2.7-0.6,3.8c-0.4,1.1-1,2.1-1.7,2.8c-0.7,0.8-1.5,1.4-2.4,1.8c-0.9,0.4-1.8,0.6-2.9,0.6
		c-1,0-1.8-0.1-2.6-0.3c-0.7-0.2-1.5-0.5-2.2-0.9l-0.2,0.8h-2.7V23.9h2.9v8.4c0.8-0.7,1.7-1.2,2.6-1.6c0.9-0.4,2-0.6,3.1-0.6
		c2,0,3.7,0.8,4.8,2.3C255.9,33.9,256.5,36,256.5,38.8z M253.5,38.9c0-2-0.3-3.5-1-4.6c-0.7-1-1.8-1.6-3.3-1.6
		c-0.8,0-1.7,0.2-2.6,0.5c-0.9,0.4-1.7,0.8-2.4,1.4v9.6c0.8,0.4,1.5,0.6,2.1,0.8c0.6,0.1,1.3,0.2,2,0.2c1.6,0,2.9-0.5,3.8-1.5
		C253,42.7,253.5,41.1,253.5,38.9z"/>
	<path class="st0" d="M278,39.2h-12.8c0,1,0.2,1.9,0.5,2.7c0.3,0.8,0.8,1.4,1.3,1.9c0.5,0.5,1.2,0.8,1.9,1.1
		c0.7,0.2,1.6,0.4,2.4,0.4c1.2,0,2.4-0.2,3.6-0.7c1.2-0.5,2-0.9,2.5-1.3h0.2v3.1c-1,0.4-2,0.7-3,1c-1,0.3-2.1,0.4-3.2,0.4
		c-2.9,0-5.1-0.8-6.7-2.3c-1.6-1.5-2.4-3.6-2.4-6.4c0-2.7,0.8-4.9,2.3-6.5c1.5-1.6,3.6-2.4,6.1-2.4c2.3,0,4.1,0.7,5.4,2
		c1.3,1.3,1.9,3.2,1.9,5.6V39.2z M275.2,37.1c0-1.5-0.4-2.6-1.2-3.4c-0.8-0.8-1.9-1.2-3.5-1.2c-1.6,0-2.8,0.4-3.7,1.3
		c-0.9,0.9-1.4,2-1.6,3.3H275.2z"/>
	<path class="st0" d="M294.4,47.2c-0.5,0.1-1.1,0.3-1.8,0.3c-0.6,0.1-1.2,0.1-1.7,0.1c-1.8,0-3.1-0.5-4-1.4
		c-0.9-0.9-1.4-2.4-1.4-4.4v-8.9h-2v-2.4h2v-4.8h2.9v4.8h6v2.4h-6v7.7c0,0.9,0,1.6,0.1,2.1c0,0.5,0.2,1,0.4,1.4
		c0.2,0.4,0.5,0.7,0.9,0.9c0.4,0.2,1,0.3,1.8,0.3c0.5,0,1-0.1,1.5-0.2c0.5-0.1,0.9-0.2,1.1-0.3h0.2V47.2z"/>
	<path class="st0" d="M314.6,47.3h-2.9v-1.8c-0.3,0.2-0.6,0.4-1,0.7c-0.4,0.3-0.9,0.5-1.3,0.7c-0.5,0.2-1,0.4-1.7,0.6
		c-0.6,0.2-1.4,0.2-2.2,0.2c-1.6,0-2.9-0.5-4-1.5c-1.1-1-1.6-2.3-1.6-3.8c0-1.3,0.3-2.3,0.8-3.1c0.6-0.8,1.4-1.4,2.4-1.9
		c1.1-0.5,2.3-0.8,3.8-0.9c1.5-0.2,3.1-0.3,4.8-0.4v-0.4c0-0.6-0.1-1.2-0.3-1.6c-0.2-0.4-0.6-0.8-1-1c-0.4-0.2-0.9-0.4-1.5-0.5
		c-0.6-0.1-1.2-0.1-1.8-0.1c-0.8,0-1.6,0.1-2.6,0.3c-0.9,0.2-1.9,0.5-2.9,0.8h-0.2v-2.9c0.6-0.2,1.4-0.3,2.5-0.5
		c1.1-0.2,2.1-0.3,3.2-0.3c1.2,0,2.3,0.1,3.2,0.3c0.9,0.2,1.7,0.5,2.3,1c0.7,0.5,1.1,1.1,1.5,1.8c0.3,0.7,0.5,1.6,0.5,2.7V47.3z
		 M311.7,43.2v-4.7c-0.9,0-1.9,0.1-3.1,0.2c-1.2,0.1-2.2,0.2-2.9,0.4c-0.8,0.2-1.5,0.6-2,1.1c-0.5,0.5-0.8,1.2-0.8,2
		c0,1,0.3,1.7,0.9,2.2c0.6,0.5,1.5,0.7,2.7,0.7c1,0,2-0.2,2.8-0.6C310.2,44.2,311,43.7,311.7,43.2z"/>
</g>
<g>
	<path class="st1" d="M12.7,76.2c0,1.3-0.3,2.5-0.9,3.6c-0.6,1.1-1.4,1.9-2.4,2.5C8.7,82.7,8,83,7.1,83.2c-0.8,0.2-2,0.3-3.3,0.3H0
		V68.8h3.7c1.5,0,2.6,0.1,3.5,0.3c0.9,0.2,1.6,0.5,2.2,0.9c1,0.6,1.8,1.5,2.4,2.5C12.4,73.5,12.7,74.7,12.7,76.2z M10.6,76.1
		c0-1.2-0.2-2.1-0.6-2.9c-0.4-0.8-1-1.4-1.8-1.9c-0.6-0.3-1.2-0.6-1.9-0.7c-0.7-0.1-1.5-0.2-2.4-0.2H2v11.3h1.9c1,0,1.8-0.1,2.5-0.2
		c0.7-0.1,1.4-0.4,2-0.8c0.7-0.5,1.3-1.1,1.7-1.8C10.4,78.2,10.6,77.3,10.6,76.1z"/>
	<path class="st1" d="M24.4,83.5h-1.9v-1.2c-0.2,0.1-0.4,0.3-0.7,0.5c-0.3,0.2-0.6,0.4-0.8,0.5c-0.3,0.2-0.7,0.3-1.1,0.4
		c-0.4,0.1-0.9,0.2-1.4,0.2c-1,0-1.9-0.3-2.6-1c-0.7-0.7-1.1-1.5-1.1-2.5c0-0.8,0.2-1.5,0.5-2c0.4-0.5,0.9-0.9,1.6-1.2
		c0.7-0.3,1.5-0.5,2.5-0.6c1-0.1,2-0.2,3.1-0.2v-0.3c0-0.4-0.1-0.8-0.2-1c-0.2-0.3-0.4-0.5-0.6-0.7c-0.3-0.2-0.6-0.3-1-0.3
		c-0.4-0.1-0.8-0.1-1.2-0.1c-0.5,0-1.1,0.1-1.7,0.2c-0.6,0.1-1.2,0.3-1.9,0.6h-0.1v-1.9c0.4-0.1,0.9-0.2,1.6-0.3
		c0.7-0.1,1.4-0.2,2.1-0.2c0.8,0,1.5,0.1,2.1,0.2c0.6,0.1,1.1,0.3,1.5,0.7c0.4,0.3,0.7,0.7,1,1.2c0.2,0.5,0.3,1.1,0.3,1.8V83.5z
		 M22.6,80.8v-3.1c-0.6,0-1.3,0.1-2,0.1c-0.8,0.1-1.4,0.2-1.9,0.3c-0.5,0.2-1,0.4-1.3,0.7c-0.3,0.3-0.5,0.8-0.5,1.3
		c0,0.6,0.2,1.1,0.6,1.4c0.4,0.3,1,0.5,1.8,0.5c0.7,0,1.3-0.1,1.8-0.4C21.6,81.4,22.1,81.1,22.6,80.8z"/>
	<path class="st1" d="M34.3,83.4c-0.4,0.1-0.7,0.2-1.2,0.2c-0.4,0.1-0.8,0.1-1.1,0.1c-1.1,0-2-0.3-2.6-0.9c-0.6-0.6-0.9-1.6-0.9-2.9
		V74h-1.3v-1.6h1.3v-3.2h1.9v3.2h3.9V74h-3.9v5c0,0.6,0,1,0,1.4c0,0.3,0.1,0.6,0.3,0.9c0.1,0.3,0.4,0.5,0.6,0.6
		c0.3,0.1,0.7,0.2,1.2,0.2c0.3,0,0.6,0,1-0.1c0.3-0.1,0.6-0.2,0.7-0.2h0.1V83.4z"/>
	<path class="st1" d="M46.5,83.5h-1.9v-1.2c-0.2,0.1-0.4,0.3-0.7,0.5c-0.3,0.2-0.6,0.4-0.8,0.5c-0.3,0.2-0.7,0.3-1.1,0.4
		c-0.4,0.1-0.9,0.2-1.4,0.2c-1,0-1.9-0.3-2.6-1c-0.7-0.7-1.1-1.5-1.1-2.5c0-0.8,0.2-1.5,0.5-2c0.4-0.5,0.9-0.9,1.6-1.2
		c0.7-0.3,1.5-0.5,2.5-0.6c1-0.1,2-0.2,3.1-0.2v-0.3c0-0.4-0.1-0.8-0.2-1c-0.2-0.3-0.4-0.5-0.6-0.7c-0.3-0.2-0.6-0.3-1-0.3
		c-0.4-0.1-0.8-0.1-1.2-0.1c-0.5,0-1.1,0.1-1.7,0.2c-0.6,0.1-1.2,0.3-1.9,0.6h-0.1v-1.9c0.4-0.1,0.9-0.2,1.6-0.3
		c0.7-0.1,1.4-0.2,2.1-0.2c0.8,0,1.5,0.1,2.1,0.2c0.6,0.1,1.1,0.3,1.5,0.7c0.4,0.3,0.7,0.7,1,1.2s0.3,1.1,0.3,1.8V83.5z M44.6,80.8
		v-3.1c-0.6,0-1.3,0.1-2,0.1c-0.8,0.1-1.4,0.2-1.9,0.3c-0.5,0.2-1,0.4-1.3,0.7c-0.3,0.3-0.5,0.8-0.5,1.3c0,0.6,0.2,1.1,0.6,1.4
		c0.4,0.3,1,0.5,1.8,0.5c0.7,0,1.3-0.1,1.8-0.4C43.6,81.4,44.1,81.1,44.6,80.8z"/>
	<path class="st1" d="M59.9,77.9c0,0.9-0.1,1.8-0.4,2.5c-0.3,0.7-0.6,1.4-1.1,1.9c-0.5,0.5-1,0.9-1.6,1.2c-0.6,0.3-1.2,0.4-1.9,0.4
		c-0.6,0-1.2-0.1-1.7-0.2c-0.5-0.1-0.9-0.3-1.4-0.6l-0.1,0.5H50V68.1h1.9v5.5c0.5-0.4,1.1-0.8,1.7-1.1c0.6-0.3,1.3-0.4,2-0.4
		c1.3,0,2.4,0.5,3.1,1.5C59.5,74.7,59.9,76.1,59.9,77.9z M57.9,77.9c0-1.3-0.2-2.3-0.7-3c-0.4-0.7-1.2-1-2.1-1
		c-0.6,0-1.1,0.1-1.7,0.4c-0.6,0.2-1.1,0.5-1.6,0.9v6.3c0.5,0.2,1,0.4,1.4,0.5c0.4,0.1,0.8,0.1,1.3,0.1c1,0,1.9-0.3,2.5-1
		C57.6,80.4,57.9,79.4,57.9,77.9z"/>
	<path class="st1" d="M72,83.5h-1.9v-1.2c-0.2,0.1-0.4,0.3-0.7,0.5c-0.3,0.2-0.6,0.4-0.8,0.5c-0.3,0.2-0.7,0.3-1.1,0.4
		c-0.4,0.1-0.9,0.2-1.4,0.2c-1,0-1.9-0.3-2.6-1c-0.7-0.7-1.1-1.5-1.1-2.5c0-0.8,0.2-1.5,0.5-2c0.4-0.5,0.9-0.9,1.6-1.2
		c0.7-0.3,1.5-0.5,2.5-0.6c1-0.1,2-0.2,3.1-0.2v-0.3c0-0.4-0.1-0.8-0.2-1c-0.2-0.3-0.4-0.5-0.6-0.7c-0.3-0.2-0.6-0.3-1-0.3
		c-0.4-0.1-0.8-0.1-1.2-0.1c-0.5,0-1.1,0.1-1.7,0.2c-0.6,0.1-1.2,0.3-1.9,0.6h-0.1v-1.9c0.4-0.1,0.9-0.2,1.6-0.3
		c0.7-0.1,1.4-0.2,2.1-0.2c0.8,0,1.5,0.1,2.1,0.2c0.6,0.1,1.1,0.3,1.5,0.7c0.4,0.3,0.7,0.7,1,1.2c0.2,0.5,0.3,1.1,0.3,1.8V83.5z
		 M70.1,80.8v-3.1c-0.6,0-1.3,0.1-2,0.1c-0.8,0.1-1.4,0.2-1.9,0.3c-0.5,0.2-1,0.4-1.3,0.7c-0.3,0.3-0.5,0.8-0.5,1.3
		c0,0.6,0.2,1.1,0.6,1.4c0.4,0.3,1,0.5,1.8,0.5c0.7,0,1.3-0.1,1.8-0.4C69.1,81.4,69.6,81.1,70.1,80.8z"/>
	<path class="st1" d="M84.4,80.3c0,1-0.4,1.8-1.3,2.5c-0.8,0.6-2,1-3.5,1c-0.8,0-1.6-0.1-2.3-0.3c-0.7-0.2-1.3-0.4-1.7-0.6v-2.1h0.1
		c0.6,0.4,1.3,0.8,2,1.1c0.7,0.3,1.4,0.4,2.1,0.4c0.8,0,1.5-0.1,2-0.4c0.5-0.3,0.7-0.7,0.7-1.2c0-0.4-0.1-0.8-0.4-1
		c-0.3-0.2-0.7-0.4-1.5-0.6c-0.3-0.1-0.6-0.1-1.1-0.2c-0.4-0.1-0.8-0.2-1.2-0.3c-1-0.3-1.7-0.6-2.1-1.1c-0.4-0.5-0.6-1.1-0.6-1.8
		c0-0.5,0.1-0.9,0.3-1.3c0.2-0.4,0.5-0.8,0.9-1.1c0.4-0.3,0.9-0.6,1.4-0.7c0.6-0.2,1.2-0.3,1.9-0.3c0.7,0,1.4,0.1,2,0.2
		c0.7,0.2,1.3,0.4,1.7,0.6v2h-0.1c-0.5-0.3-1.1-0.6-1.8-0.9c-0.7-0.2-1.4-0.4-2-0.4c-0.7,0-1.3,0.1-1.8,0.4
		c-0.5,0.3-0.7,0.6-0.7,1.2c0,0.5,0.1,0.8,0.4,1c0.3,0.2,0.7,0.4,1.4,0.6c0.3,0.1,0.7,0.2,1.2,0.2c0.4,0.1,0.8,0.2,1.1,0.2
		c0.9,0.2,1.6,0.5,2,1C84.1,78.9,84.4,79.5,84.4,80.3z"/>
	<path class="st1" d="M97.3,78.2H89c0,0.7,0.1,1.3,0.3,1.8c0.2,0.5,0.5,0.9,0.9,1.2c0.3,0.3,0.8,0.6,1.2,0.7c0.5,0.2,1,0.2,1.6,0.2
		c0.8,0,1.5-0.1,2.3-0.4c0.8-0.3,1.3-0.6,1.7-0.9H97v2c-0.6,0.3-1.3,0.5-2,0.7c-0.7,0.2-1.4,0.3-2.1,0.3c-1.9,0-3.3-0.5-4.4-1.5
		c-1-1-1.6-2.4-1.6-4.2c0-1.8,0.5-3.2,1.5-4.3c1-1.1,2.3-1.6,4-1.6c1.5,0,2.7,0.4,3.5,1.3c0.8,0.9,1.2,2.1,1.2,3.7V78.2z M95.4,76.8
		c0-1-0.3-1.7-0.8-2.3c-0.5-0.5-1.2-0.8-2.3-0.8c-1,0-1.8,0.3-2.4,0.9c-0.6,0.6-0.9,1.3-1,2.2H95.4z"/>
	<path class="st1" d="M113.7,69.9h-0.1c-0.2-0.1-0.5-0.1-0.8-0.2c-0.3-0.1-0.6-0.1-0.9-0.1c-0.8,0-1.4,0.2-1.8,0.5
		c-0.4,0.4-0.5,1-0.5,1.9v0.4h3.4V74h-3.4v9.5h-1.9V74h-1.3v-1.6h1.3v-0.4c0-1.3,0.3-2.3,1-3c0.7-0.7,1.6-1.1,2.9-1.1
		c0.4,0,0.8,0,1.1,0.1c0.3,0,0.6,0.1,0.9,0.1V69.9z"/>
	<path class="st1" d="M125.1,78c0,1.8-0.5,3.2-1.4,4.3c-0.9,1-2.2,1.6-3.8,1.6c-1.6,0-2.9-0.5-3.8-1.6c-0.9-1-1.4-2.5-1.4-4.3
		c0-1.8,0.5-3.2,1.4-4.3c0.9-1,2.2-1.6,3.8-1.6c1.6,0,2.8,0.5,3.8,1.6C124.6,74.8,125.1,76.2,125.1,78z M123.1,78
		c0-1.4-0.3-2.5-0.9-3.2c-0.6-0.7-1.4-1-2.4-1c-1,0-1.8,0.3-2.4,1c-0.6,0.7-0.9,1.8-0.9,3.2c0,1.4,0.3,2.4,0.9,3.1
		c0.6,0.7,1.4,1.1,2.4,1.1c1,0,1.8-0.4,2.4-1.1C122.8,80.4,123.1,79.4,123.1,78z"/>
	<path class="st1" d="M135.3,74.5h-0.1c-0.3-0.1-0.6-0.1-0.8-0.1c-0.3,0-0.6,0-0.9,0c-0.6,0-1.1,0.1-1.7,0.4c-0.5,0.3-1.1,0.6-1.6,1
		v7.8h-1.9v-11h1.9v1.6c0.8-0.6,1.4-1,2-1.3c0.6-0.2,1.2-0.4,1.8-0.4c0.3,0,0.6,0,0.7,0c0.1,0,0.4,0,0.7,0.1V74.5z"/>
	<path class="st1" d="M154.2,78c0,1.8-0.5,3.2-1.4,4.3c-0.9,1-2.2,1.6-3.8,1.6c-1.6,0-2.9-0.5-3.8-1.6s-1.4-2.5-1.4-4.3
		c0-1.8,0.5-3.2,1.4-4.3c0.9-1,2.2-1.6,3.8-1.6c1.6,0,2.8,0.5,3.8,1.6C153.8,74.8,154.2,76.2,154.2,78z M152.3,78
		c0-1.4-0.3-2.5-0.9-3.2c-0.6-0.7-1.4-1-2.4-1c-1,0-1.8,0.3-2.4,1c-0.6,0.7-0.9,1.8-0.9,3.2c0,1.4,0.3,2.4,0.9,3.1
		c0.6,0.7,1.4,1.1,2.4,1.1c1,0,1.8-0.4,2.4-1.1C152,80.4,152.3,79.4,152.3,78z"/>
	<path class="st1" d="M167.1,77.8c0,0.9-0.1,1.7-0.4,2.5c-0.3,0.7-0.6,1.4-1.1,1.9c-0.4,0.5-1,0.9-1.6,1.1c-0.6,0.3-1.2,0.4-1.9,0.4
		c-0.6,0-1.1-0.1-1.6-0.2c-0.5-0.1-1-0.3-1.4-0.6v4.6h-1.9V72.5h1.9v1.2c0.5-0.4,1.1-0.8,1.7-1c0.6-0.3,1.3-0.4,2-0.4
		c1.4,0,2.4,0.5,3.2,1.5C166.8,74.7,167.1,76.1,167.1,77.8z M165.2,77.9c0-1.3-0.2-2.3-0.7-3c-0.5-0.7-1.2-1-2.1-1
		c-0.5,0-1.1,0.1-1.6,0.3c-0.6,0.2-1.1,0.5-1.6,0.9v6.2c0.5,0.2,1,0.4,1.4,0.5c0.4,0.1,0.8,0.1,1.3,0.1c1.1,0,1.9-0.3,2.5-1
		C164.9,80.3,165.2,79.3,165.2,77.9z"/>
	<path class="st1" d="M180.2,77.8c0,0.9-0.1,1.7-0.4,2.5c-0.3,0.7-0.6,1.4-1.1,1.9c-0.4,0.5-1,0.9-1.6,1.1c-0.6,0.3-1.2,0.4-1.9,0.4
		c-0.6,0-1.1-0.1-1.6-0.2c-0.5-0.1-1-0.3-1.4-0.6v4.6h-1.9V72.5h1.9v1.2c0.5-0.4,1.1-0.8,1.7-1c0.6-0.3,1.3-0.4,2-0.4
		c1.4,0,2.4,0.5,3.2,1.5C179.8,74.7,180.2,76.1,180.2,77.8z M178.2,77.9c0-1.3-0.2-2.3-0.7-3c-0.5-0.7-1.2-1-2.1-1
		c-0.5,0-1.1,0.1-1.6,0.3c-0.6,0.2-1.1,0.5-1.6,0.9v6.2c0.5,0.2,1,0.4,1.4,0.5c0.4,0.1,0.8,0.1,1.3,0.1c1.1,0,1.9-0.3,2.5-1
		C177.9,80.3,178.2,79.3,178.2,77.9z"/>
	<path class="st1" d="M193.2,78c0,1.8-0.5,3.2-1.4,4.3c-0.9,1-2.2,1.6-3.8,1.6c-1.6,0-2.9-0.5-3.8-1.6c-0.9-1-1.4-2.5-1.4-4.3
		c0-1.8,0.5-3.2,1.4-4.3c0.9-1,2.2-1.6,3.8-1.6c1.6,0,2.8,0.5,3.8,1.6C192.7,74.8,193.2,76.2,193.2,78z M191.3,78
		c0-1.4-0.3-2.5-0.9-3.2c-0.6-0.7-1.4-1-2.4-1c-1,0-1.8,0.3-2.4,1c-0.6,0.7-0.9,1.8-0.9,3.2c0,1.4,0.3,2.4,0.9,3.1
		c0.6,0.7,1.4,1.1,2.4,1.1c1,0,1.8-0.4,2.4-1.1C191,80.4,191.3,79.4,191.3,78z"/>
	<path class="st1" d="M203.6,74.5h-0.1c-0.3-0.1-0.6-0.1-0.8-0.1c-0.3,0-0.6,0-0.9,0c-0.6,0-1.1,0.1-1.7,0.4c-0.5,0.3-1.1,0.6-1.6,1
		v7.8h-1.9v-11h1.9v1.6c0.8-0.6,1.4-1,2-1.3c0.6-0.2,1.2-0.4,1.8-0.4c0.3,0,0.6,0,0.7,0c0.1,0,0.4,0,0.7,0.1V74.5z"/>
	<path class="st1" d="M213.4,83.4c-0.4,0.1-0.7,0.2-1.2,0.2c-0.4,0.1-0.8,0.1-1.1,0.1c-1.1,0-2-0.3-2.6-0.9
		c-0.6-0.6-0.9-1.6-0.9-2.9V74h-1.3v-1.6h1.3v-3.2h1.9v3.2h3.9V74h-3.9v5c0,0.6,0,1,0,1.4c0,0.3,0.1,0.6,0.3,0.9
		c0.1,0.3,0.4,0.5,0.6,0.6c0.3,0.1,0.7,0.2,1.2,0.2c0.3,0,0.6,0,1-0.1c0.3-0.1,0.6-0.2,0.7-0.2h0.1V83.4z"/>
	<path class="st1" d="M225.8,83.5h-1.9v-1.2c-0.6,0.5-1.2,0.9-1.8,1.1c-0.6,0.3-1.2,0.4-1.9,0.4c-1.2,0-2.1-0.4-2.8-1.1
		c-0.7-0.7-1-1.7-1-3.1v-7.2h1.9v6.3c0,0.6,0,1,0.1,1.4c0.1,0.4,0.2,0.7,0.3,1c0.2,0.3,0.4,0.5,0.7,0.6c0.3,0.1,0.7,0.2,1.3,0.2
		c0.5,0,1-0.1,1.6-0.4c0.6-0.2,1.1-0.6,1.6-1v-8.2h1.9V83.5z"/>
	<path class="st1" d="M238.9,83.5H237v-6.3c0-0.5,0-1-0.1-1.4c-0.1-0.4-0.2-0.8-0.3-1c-0.2-0.3-0.4-0.5-0.7-0.6
		c-0.3-0.1-0.7-0.2-1.2-0.2c-0.5,0-1.1,0.1-1.6,0.4c-0.6,0.2-1.1,0.6-1.6,1v8.2h-1.9v-11h1.9v1.2c0.6-0.5,1.2-0.9,1.8-1.1
		c0.6-0.3,1.3-0.4,1.9-0.4c1.2,0,2.1,0.4,2.8,1.1c0.6,0.7,1,1.8,1,3.1V83.5z"/>
	<path class="st1" d="M244.5,70.6h-2.1v-1.9h2.1V70.6z M244.3,83.5h-1.9v-11h1.9V83.5z"/>
	<path class="st1" d="M254.6,83.4c-0.4,0.1-0.7,0.2-1.2,0.2c-0.4,0.1-0.8,0.1-1.1,0.1c-1.1,0-2-0.3-2.6-0.9
		c-0.6-0.6-0.9-1.6-0.9-2.9V74h-1.3v-1.6h1.3v-3.2h1.9v3.2h3.9V74h-3.9v5c0,0.6,0,1,0,1.4c0,0.3,0.1,0.6,0.3,0.9
		c0.1,0.3,0.4,0.5,0.6,0.6c0.3,0.1,0.7,0.2,1.2,0.2c0.3,0,0.6,0,1-0.1c0.3-0.1,0.6-0.2,0.7-0.2h0.1V83.4z"/>
	<path class="st1" d="M259.8,70.6h-2.1v-1.9h2.1V70.6z M259.6,83.5h-1.9v-11h1.9V83.5z"/>
	<path class="st1" d="M273.3,78.2H265c0,0.7,0.1,1.3,0.3,1.8c0.2,0.5,0.5,0.9,0.9,1.2c0.3,0.3,0.8,0.6,1.2,0.7
		c0.5,0.2,1,0.2,1.6,0.2c0.8,0,1.5-0.1,2.3-0.4c0.8-0.3,1.3-0.6,1.7-0.9h0.1v2c-0.6,0.3-1.3,0.5-2,0.7c-0.7,0.2-1.4,0.3-2.1,0.3
		c-1.9,0-3.3-0.5-4.4-1.5c-1-1-1.6-2.4-1.6-4.2c0-1.8,0.5-3.2,1.5-4.3c1-1.1,2.3-1.6,4-1.6c1.5,0,2.7,0.4,3.5,1.3
		c0.8,0.9,1.2,2.1,1.2,3.7V78.2z M271.5,76.8c0-1-0.3-1.7-0.8-2.3c-0.5-0.5-1.2-0.8-2.2-0.8c-1,0-1.8,0.3-2.4,0.9
		c-0.6,0.6-0.9,1.3-1,2.2H271.5z"/>
	<path class="st1" d="M285.1,80.3c0,1-0.4,1.8-1.3,2.5c-0.8,0.6-2,1-3.5,1c-0.8,0-1.6-0.1-2.3-0.3c-0.7-0.2-1.3-0.4-1.7-0.6v-2.1
		h0.1c0.6,0.4,1.3,0.8,2,1.1c0.7,0.3,1.4,0.4,2.1,0.4c0.8,0,1.5-0.1,2-0.4c0.5-0.3,0.7-0.7,0.7-1.2c0-0.4-0.1-0.8-0.4-1
		c-0.3-0.2-0.7-0.4-1.5-0.6c-0.3-0.1-0.6-0.1-1.1-0.2c-0.4-0.1-0.8-0.2-1.2-0.3c-1-0.3-1.7-0.6-2.1-1.1c-0.4-0.5-0.6-1.1-0.6-1.8
		c0-0.5,0.1-0.9,0.3-1.3c0.2-0.4,0.5-0.8,0.9-1.1c0.4-0.3,0.9-0.6,1.4-0.7c0.6-0.2,1.2-0.3,1.9-0.3c0.7,0,1.4,0.1,2,0.2
		c0.7,0.2,1.3,0.4,1.7,0.6v2h-0.1c-0.5-0.3-1.1-0.6-1.8-0.9c-0.7-0.2-1.4-0.4-2-0.4c-0.7,0-1.3,0.1-1.8,0.4
		c-0.5,0.3-0.7,0.6-0.7,1.2c0,0.5,0.1,0.8,0.4,1c0.3,0.2,0.7,0.4,1.4,0.6c0.3,0.1,0.7,0.2,1.2,0.2c0.4,0.1,0.8,0.2,1.1,0.2
		c0.9,0.2,1.6,0.5,2,1C284.8,78.9,285.1,79.5,285.1,80.3z"/>
	<path class="st1" d="M297.3,70.6h-2.1v-1.9h2.1V70.6z M297.2,83.5h-1.9v-11h1.9V83.5z"/>
	<path class="st1" d="M310.5,83.5h-1.9v-6.3c0-0.5,0-1-0.1-1.4c-0.1-0.4-0.2-0.8-0.3-1c-0.2-0.3-0.4-0.5-0.7-0.6
		c-0.3-0.1-0.7-0.2-1.2-0.2c-0.5,0-1.1,0.1-1.6,0.4c-0.6,0.2-1.1,0.6-1.6,1v8.2h-1.9v-11h1.9v1.2c0.6-0.5,1.2-0.9,1.8-1.1
		c0.6-0.3,1.3-0.4,1.9-0.4c1.2,0,2.1,0.4,2.8,1.1c0.6,0.7,1,1.8,1,3.1V83.5z"/>
	<path class="st1" d="M330.4,83.5h-1.9v-1.2c-0.2,0.1-0.4,0.3-0.7,0.5c-0.3,0.2-0.6,0.4-0.8,0.5c-0.3,0.2-0.7,0.3-1.1,0.4
		c-0.4,0.1-0.9,0.2-1.4,0.2c-1,0-1.9-0.3-2.6-1c-0.7-0.7-1.1-1.5-1.1-2.5c0-0.8,0.2-1.5,0.5-2c0.4-0.5,0.9-0.9,1.6-1.2
		c0.7-0.3,1.5-0.5,2.5-0.6c1-0.1,2-0.2,3.1-0.2v-0.3c0-0.4-0.1-0.8-0.2-1c-0.2-0.3-0.4-0.5-0.6-0.7c-0.3-0.2-0.6-0.3-1-0.3
		c-0.4-0.1-0.8-0.1-1.2-0.1c-0.5,0-1.1,0.1-1.7,0.2c-0.6,0.1-1.2,0.3-1.9,0.6h-0.1v-1.9c0.4-0.1,0.9-0.2,1.6-0.3
		c0.7-0.1,1.4-0.2,2.1-0.2c0.8,0,1.5,0.1,2.1,0.2c0.6,0.1,1.1,0.3,1.5,0.7c0.4,0.3,0.7,0.7,1,1.2c0.2,0.5,0.3,1.1,0.3,1.8V83.5z
		 M328.5,80.8v-3.1c-0.6,0-1.3,0.1-2,0.1c-0.8,0.1-1.4,0.2-1.9,0.3c-0.5,0.2-1,0.4-1.3,0.7c-0.3,0.3-0.5,0.8-0.5,1.3
		c0,0.6,0.2,1.1,0.6,1.4c0.4,0.3,1,0.5,1.8,0.5c0.7,0,1.3-0.1,1.8-0.4C327.5,81.4,328.1,81.1,328.5,80.8z"/>
	<path class="st1" d="M340.9,74.5h-0.1c-0.3-0.1-0.6-0.1-0.8-0.1c-0.3,0-0.6,0-0.9,0c-0.6,0-1.1,0.1-1.7,0.4c-0.5,0.3-1.1,0.6-1.6,1
		v7.8h-1.9v-11h1.9v1.6c0.8-0.6,1.4-1,2-1.3c0.6-0.2,1.2-0.4,1.8-0.4c0.3,0,0.6,0,0.7,0c0.1,0,0.4,0,0.7,0.1V74.5z"/>
	<path class="st1" d="M351,83.4c-0.4,0.1-0.7,0.2-1.2,0.2c-0.4,0.1-0.8,0.1-1.1,0.1c-1.1,0-2-0.3-2.6-0.9c-0.6-0.6-0.9-1.6-0.9-2.9
		V74h-1.3v-1.6h1.3v-3.2h1.9v3.2h3.9V74h-3.9v5c0,0.6,0,1,0,1.4c0,0.3,0.1,0.6,0.3,0.9c0.1,0.3,0.4,0.5,0.6,0.6
		c0.3,0.1,0.7,0.2,1.2,0.2c0.3,0,0.6,0,1-0.1c0.3-0.1,0.6-0.2,0.7-0.2h0.1V83.4z"/>
</g>
</svg>
