<?xml version="1.0" encoding="utf-8"?>
<!-- Generator: Adobe Illustrator 15.0.0, SVG Export Plug-In  -->
<!DOCTYPE svg PUBLIC "-//W3C//DTD SVG 1.1//EN" "http://www.w3.org/Graphics/SVG/1.1/DTD/svg11.dtd" [
	<!ENTITY ns_flows "http://ns.adobe.com/Flows/1.0/">
]>
<svg version="1.1"
	 xmlns="http://www.w3.org/2000/svg" xmlns:xlink="http://www.w3.org/1999/xlink" xmlns:a="http://ns.adobe.com/AdobeSVGViewerExtensions/3.0/"
	 x="0px" y="0px" width="400px" height="110px" viewBox="0 -23.939 400 110"
	 overflow="visible" enable-background="new 0 -23.939 400 110" xml:space="preserve">
<defs>
</defs>
<path fill="#231F20" d="M14.703,23.384h-2.897v-1.788c-0.258,0.17-0.606,0.408-1.045,0.713c-0.439,0.307-0.865,0.549-1.278,0.729
	c-0.486,0.23-1.043,0.423-1.673,0.579c-0.63,0.154-1.369,0.232-2.215,0.232c-1.56,0-2.882-0.501-3.966-1.503
	C0.542,21.346,0,20.068,0,18.515c0-1.272,0.281-2.302,0.844-3.089c0.563-0.786,1.366-1.404,2.409-1.855
	c1.054-0.451,2.319-0.756,3.796-0.917c1.477-0.16,3.062-0.28,4.756-0.36v-0.436c0-0.642-0.116-1.173-0.348-1.594
	c-0.232-0.42-0.566-0.751-1-0.992c-0.413-0.23-0.909-0.385-1.487-0.465c-0.579-0.08-1.183-0.121-1.813-0.121
	c-0.764,0-1.616,0.098-2.556,0.293S2.69,9.457,1.689,9.828H1.534V6.957c0.568-0.15,1.389-0.314,2.463-0.496
	c1.074-0.18,2.133-0.27,3.176-0.27c1.219,0,2.28,0.098,3.184,0.293c0.903,0.195,1.686,0.528,2.347,0.999
	c0.651,0.461,1.146,1.058,1.487,1.788c0.341,0.732,0.511,1.639,0.511,2.721V23.384z M11.806,19.251v-4.674
	c-0.888,0.05-1.934,0.126-3.137,0.226s-2.156,0.246-2.858,0.436c-0.837,0.23-1.513,0.589-2.03,1.074
	c-0.517,0.486-0.774,1.155-0.774,2.007c0,0.962,0.299,1.686,0.898,2.171c0.599,0.486,1.513,0.729,2.742,0.729
	c1.022,0,1.958-0.192,2.804-0.579C10.298,20.256,11.083,19.792,11.806,19.251z"/>
<path fill="#231F20" d="M33.3,9.678h-0.155c-0.434-0.1-0.855-0.173-1.263-0.218c-0.408-0.046-0.891-0.067-1.449-0.067
	c-0.898,0-1.766,0.193-2.603,0.578c-0.836,0.386-1.642,0.885-2.417,1.496v11.917h-2.913V6.597h2.913v2.479
	c1.157-0.901,2.177-1.54,3.06-1.916c0.883-0.375,1.784-0.563,2.704-0.563c0.506,0,0.873,0.013,1.1,0.038
	c0.227,0.025,0.568,0.072,1.022,0.143V9.678z"/>
<path fill="#231F20" d="M49.249,23.233c-0.548,0.141-1.144,0.255-1.79,0.346s-1.222,0.136-1.728,0.136
	c-1.766,0-3.109-0.461-4.028-1.383s-1.379-2.399-1.379-4.434V8.971h-1.968V6.597h1.968V1.773h2.913v4.823h6.012v2.374h-6.012v7.65
	c0,0.882,0.021,1.57,0.062,2.066s0.186,0.959,0.434,1.391c0.227,0.4,0.54,0.693,0.937,0.879s1.004,0.277,1.821,0.277
	c0.475,0,0.971-0.067,1.487-0.203c0.516-0.135,0.888-0.248,1.115-0.338h0.155V23.233z"/>
<path fill="#231F20" d="M69.885,15.283H57.134c0,1.032,0.16,1.932,0.48,2.697c0.32,0.768,0.759,1.396,1.317,1.887
	c0.537,0.48,1.175,0.842,1.913,1.082s1.552,0.361,2.44,0.361c1.177,0,2.363-0.229,3.556-0.685s2.042-0.903,2.549-1.345h0.155v3.08
	c-0.981,0.401-1.983,0.736-3.006,1.008c-1.022,0.27-2.097,0.405-3.223,0.405c-2.872,0-5.113-0.753-6.724-2.262
	c-1.611-1.508-2.417-3.649-2.417-6.425c0-2.745,0.772-4.924,2.316-6.537c1.544-1.613,3.576-2.42,6.097-2.42
	c2.334,0,4.134,0.662,5.399,1.984s1.898,3.201,1.898,5.635V15.283z M67.05,13.119c-0.01-1.482-0.395-2.63-1.154-3.441
	c-0.759-0.812-1.913-1.217-3.462-1.217c-1.56,0-2.802,0.445-3.726,1.337c-0.925,0.892-1.449,1.999-1.573,3.321H67.05z"/>
<path fill="#231F20" d="M91.374,23.384h-2.913v-9.558c0-0.771-0.046-1.496-0.14-2.172c-0.093-0.677-0.263-1.205-0.511-1.586
	c-0.258-0.42-0.63-0.734-1.115-0.939c-0.486-0.205-1.116-0.308-1.89-0.308c-0.796,0-1.627,0.19-2.495,0.571
	s-1.699,0.866-2.495,1.457v12.534h-2.913V6.597h2.913v1.864c0.909-0.732,1.849-1.303,2.82-1.714s1.968-0.616,2.99-0.616
	c1.87,0,3.295,0.547,4.276,1.639c0.981,1.092,1.472,2.665,1.472,4.719V23.384z"/>
<path fill="#231F20" d="M113.431,23.384h-2.913v-1.759c-0.836,0.701-1.709,1.248-2.618,1.639c-0.909,0.391-1.896,0.586-2.959,0.586
	c-2.066,0-3.706-0.771-4.919-2.314s-1.82-3.682-1.82-6.417c0-1.423,0.209-2.69,0.627-3.802c0.418-1.113,0.984-2.06,1.696-2.841
	c0.703-0.761,1.521-1.343,2.456-1.743c0.935-0.4,1.903-0.602,2.905-0.602c0.909,0,1.714,0.093,2.417,0.278
	c0.702,0.186,1.441,0.474,2.215,0.864V0h2.913V23.384z M110.518,19.251V9.617c-0.785-0.34-1.487-0.576-2.107-0.706
	s-1.296-0.195-2.03-0.195c-1.632,0-2.902,0.552-3.811,1.653c-0.909,1.102-1.363,2.665-1.363,4.689c0,1.993,0.351,3.509,1.053,4.545
	c0.703,1.037,1.828,1.557,3.377,1.557c0.827,0,1.663-0.178,2.51-0.534C108.994,20.271,109.784,19.812,110.518,19.251z"/>
<path fill="#231F20" d="M134.801,23.384h-2.897v-1.788c-0.258,0.17-0.606,0.408-1.045,0.713c-0.439,0.307-0.865,0.549-1.278,0.729
	c-0.486,0.23-1.043,0.423-1.673,0.579c-0.63,0.154-1.369,0.232-2.215,0.232c-1.56,0-2.882-0.501-3.966-1.503
	c-1.084-1.001-1.627-2.278-1.627-3.832c0-1.272,0.281-2.302,0.844-3.089c0.563-0.786,1.366-1.404,2.409-1.855
	c1.054-0.451,2.319-0.756,3.796-0.917c1.477-0.16,3.062-0.28,4.756-0.36v-0.436c0-0.642-0.116-1.173-0.348-1.594
	c-0.232-0.42-0.566-0.751-1-0.992c-0.413-0.23-0.909-0.385-1.487-0.465c-0.579-0.08-1.183-0.121-1.813-0.121
	c-0.764,0-1.616,0.098-2.556,0.293s-1.911,0.479-2.913,0.85h-0.155V6.957c0.568-0.15,1.389-0.314,2.463-0.496
	c1.074-0.18,2.133-0.27,3.176-0.27c1.219,0,2.28,0.098,3.184,0.293c0.903,0.195,1.686,0.528,2.347,0.999
	c0.651,0.461,1.146,1.058,1.487,1.788c0.341,0.732,0.511,1.639,0.511,2.721V23.384z M131.903,19.251v-4.674
	c-0.888,0.05-1.934,0.126-3.137,0.226s-2.156,0.246-2.858,0.436c-0.837,0.23-1.513,0.589-2.03,1.074
	c-0.517,0.486-0.774,1.155-0.774,2.007c0,0.962,0.299,1.686,0.898,2.171c0.599,0.486,1.513,0.729,2.742,0.729
	c1.022,0,1.958-0.192,2.804-0.579C130.396,20.256,131.181,19.792,131.903,19.251z"/>
<path fill="#231F20" d="M142.649,20.107h3.238v3.276h-3.238V20.107z"/>
<path fill="#231F20" d="M167.745,23.384h-2.913v-9.558c0-0.771-0.046-1.496-0.14-2.172c-0.093-0.677-0.263-1.205-0.511-1.586
	c-0.258-0.42-0.63-0.734-1.115-0.939c-0.486-0.205-1.116-0.308-1.89-0.308c-0.796,0-1.627,0.19-2.495,0.571
	s-1.699,0.866-2.495,1.457v12.534h-2.913V6.597h2.913v1.864c0.909-0.732,1.849-1.303,2.82-1.714s1.968-0.616,2.99-0.616
	c1.87,0,3.295,0.547,4.276,1.639c0.981,1.092,1.472,2.665,1.472,4.719V23.384z"/>
<path fill="#231F20" d="M190.22,15.283h-12.752c0,1.032,0.16,1.932,0.48,2.697c0.32,0.768,0.76,1.396,1.316,1.887
	c0.537,0.48,1.176,0.842,1.914,1.082s1.553,0.361,2.439,0.361c1.178,0,2.363-0.229,3.557-0.685s2.043-0.903,2.549-1.345h0.154v3.08
	c-0.98,0.401-1.982,0.736-3.006,1.008c-1.021,0.27-2.096,0.405-3.223,0.405c-2.871,0-5.111-0.753-6.724-2.262
	c-1.611-1.508-2.417-3.649-2.417-6.425c0-2.745,0.772-4.924,2.316-6.537c1.545-1.613,3.576-2.42,6.096-2.42
	c2.336,0,4.135,0.662,5.4,1.984s1.898,3.201,1.898,5.635V15.283z M187.384,13.119c-0.01-1.482-0.395-2.63-1.154-3.441
	s-1.914-1.217-3.463-1.217c-1.559,0-2.801,0.445-3.727,1.337c-0.924,0.892-1.447,1.999-1.572,3.321H187.384z"/>
<path fill="#231F20" d="M206.573,23.233c-0.548,0.141-1.145,0.255-1.79,0.346s-1.221,0.136-1.728,0.136
	c-1.766,0-3.108-0.461-4.027-1.383c-0.92-0.922-1.379-2.399-1.379-4.434V8.971h-1.968V6.597h1.968V1.773h2.912v4.823h6.012v2.374
	h-6.012v7.65c0,0.882,0.021,1.57,0.062,2.066c0.041,0.496,0.186,0.959,0.434,1.391c0.227,0.4,0.539,0.693,0.938,0.879
	c0.397,0.186,1.004,0.277,1.82,0.277c0.475,0,0.971-0.067,1.487-0.203c0.517-0.135,0.888-0.248,1.115-0.338h0.155V23.233z"/>
<path fill="#1922FA" d="M256.493,14.863c0,1.402-0.204,2.664-0.612,3.787c-0.408,1.121-0.958,2.063-1.65,2.824
	c-0.733,0.792-1.539,1.386-2.417,1.781c-0.878,0.396-1.844,0.594-2.897,0.594c-0.981,0-1.838-0.113-2.571-0.338
	c-0.733-0.226-1.456-0.528-2.169-0.909l-0.187,0.781h-2.727V0h2.913v8.355c0.815-0.651,1.684-1.186,2.603-1.601
	c0.919-0.416,1.952-0.624,3.099-0.624c2.045,0,3.659,0.762,4.842,2.285C255.901,9.938,256.493,12.088,256.493,14.863z
	 M253.487,14.938c0-2.004-0.341-3.523-1.022-4.561s-1.782-1.556-3.301-1.556c-0.847,0-1.704,0.178-2.571,0.533
	c-0.868,0.356-1.674,0.814-2.417,1.376v9.617c0.826,0.361,1.536,0.611,2.13,0.752s1.268,0.211,2.022,0.211
	c1.611,0,2.874-0.514,3.788-1.541S253.487,17.132,253.487,14.938z"/>
<path fill="#1922FA" d="M278.025,15.283h-12.751c0,1.032,0.16,1.932,0.48,2.697c0.319,0.768,0.759,1.396,1.316,1.887
	c0.537,0.48,1.175,0.842,1.914,1.082c0.738,0.24,1.552,0.361,2.439,0.361c1.178,0,2.363-0.229,3.556-0.685
	c1.193-0.456,2.043-0.903,2.549-1.345h0.155v3.08c-0.981,0.401-1.983,0.736-3.006,1.008c-1.022,0.27-2.097,0.405-3.223,0.405
	c-2.871,0-5.112-0.753-6.724-2.262c-1.611-1.508-2.417-3.649-2.417-6.425c0-2.745,0.771-4.924,2.316-6.537
	c1.544-1.613,3.576-2.42,6.096-2.42c2.335,0,4.135,0.662,5.4,1.984c1.265,1.322,1.897,3.201,1.897,5.635V15.283z M275.19,13.119
	c-0.011-1.482-0.396-2.63-1.154-3.441c-0.76-0.812-1.914-1.217-3.463-1.217c-1.56,0-2.802,0.445-3.727,1.337
	c-0.924,0.892-1.448,1.999-1.572,3.321H275.19z"/>
<path fill="#1922FA" d="M294.377,23.233c-0.548,0.141-1.145,0.255-1.79,0.346s-1.221,0.136-1.728,0.136
	c-1.766,0-3.108-0.461-4.027-1.383c-0.92-0.922-1.379-2.399-1.379-4.434V8.971h-1.968V6.597h1.968V1.773h2.912v4.823h6.012v2.374
	h-6.012v7.65c0,0.882,0.021,1.57,0.062,2.066c0.041,0.496,0.186,0.959,0.434,1.391c0.227,0.4,0.539,0.693,0.938,0.879
	c0.397,0.186,1.004,0.277,1.82,0.277c0.475,0,0.971-0.067,1.487-0.203c0.517-0.135,0.888-0.248,1.115-0.338h0.155V23.233z"/>
<path fill="#1922FA" d="M314.611,23.384h-2.897v-1.788c-0.258,0.17-0.606,0.408-1.046,0.713c-0.438,0.307-0.865,0.549-1.278,0.729
	c-0.485,0.23-1.043,0.423-1.673,0.579c-0.63,0.154-1.369,0.232-2.216,0.232c-1.56,0-2.882-0.501-3.966-1.503
	c-1.085-1.001-1.627-2.278-1.627-3.832c0-1.272,0.281-2.302,0.845-3.089c0.562-0.786,1.365-1.404,2.409-1.855
	c1.053-0.451,2.318-0.756,3.796-0.917c1.477-0.16,3.062-0.28,4.756-0.36v-0.436c0-0.642-0.116-1.173-0.349-1.594
	c-0.232-0.42-0.565-0.751-0.999-0.992c-0.413-0.23-0.909-0.385-1.487-0.465c-0.579-0.08-1.183-0.121-1.812-0.121
	c-0.765,0-1.617,0.098-2.557,0.293c-0.94,0.195-1.911,0.479-2.913,0.85h-0.154V6.957c0.567-0.15,1.389-0.314,2.463-0.496
	c1.074-0.18,2.133-0.27,3.177-0.27c1.218,0,2.279,0.098,3.184,0.293c0.903,0.195,1.686,0.528,2.347,0.999
	c0.651,0.461,1.146,1.058,1.487,1.788c0.342,0.732,0.512,1.639,0.512,2.721V23.384z M311.713,19.251v-4.674
	c-0.889,0.05-1.934,0.126-3.137,0.226c-1.204,0.1-2.156,0.246-2.859,0.436c-0.836,0.23-1.513,0.589-2.029,1.074
	c-0.517,0.486-0.774,1.155-0.774,2.007c0,0.962,0.299,1.686,0.898,2.171c0.599,0.486,1.513,0.729,2.742,0.729
	c1.022,0,1.957-0.192,2.805-0.579C310.206,20.256,310.991,19.792,311.713,19.251z"/>
<path fill="#231F20" d="M12.688,52.223c0,1.336-0.297,2.547-0.891,3.633c-0.594,1.086-1.385,1.928-2.372,2.525
	c-0.685,0.416-1.448,0.715-2.291,0.898c-0.842,0.186-1.952,0.277-3.328,0.277H0.019V44.861h3.746c1.464,0,2.627,0.104,3.49,0.311
	c0.862,0.207,1.593,0.492,2.19,0.854c1.021,0.625,1.816,1.457,2.387,2.496C12.402,49.562,12.688,50.795,12.688,52.223z
	 M10.603,52.193c0-1.15-0.205-2.121-0.615-2.91c-0.409-0.791-1.021-1.412-1.833-1.867c-0.591-0.328-1.219-0.557-1.883-0.686
	c-0.665-0.127-1.46-0.191-2.387-0.191H2.013v11.34h1.873c0.96,0,1.797-0.07,2.513-0.207c0.715-0.139,1.371-0.396,1.969-0.771
	c0.745-0.467,1.304-1.082,1.677-1.844C10.417,54.293,10.603,53.338,10.603,52.193z"/>
<path fill="#231F20" d="M24.438,59.557h-1.883v-1.176c-0.168,0.113-0.395,0.27-0.68,0.469c-0.286,0.201-0.562,0.361-0.831,0.48
	c-0.315,0.15-0.678,0.277-1.087,0.379c-0.41,0.102-0.89,0.152-1.44,0.152c-1.014,0-1.873-0.328-2.578-0.986
	c-0.705-0.658-1.058-1.496-1.058-2.516c0-0.836,0.183-1.512,0.549-2.029c0.366-0.516,0.888-0.922,1.566-1.219
	c0.685-0.295,1.507-0.496,2.467-0.602s1.991-0.184,3.092-0.236v-0.287c0-0.42-0.076-0.77-0.227-1.047
	c-0.151-0.275-0.368-0.492-0.649-0.65c-0.269-0.152-0.591-0.254-0.967-0.307c-0.376-0.053-0.769-0.078-1.178-0.078
	c-0.497,0-1.051,0.064-1.662,0.191c-0.611,0.129-1.242,0.314-1.894,0.559h-0.101V48.77c0.369-0.1,0.903-0.207,1.601-0.326
	s1.386-0.178,2.064-0.178c0.792,0,1.482,0.064,2.07,0.193c0.587,0.127,1.096,0.346,1.525,0.656c0.423,0.303,0.745,0.693,0.967,1.174
	s0.333,1.076,0.333,1.787V59.557z M22.555,56.842v-3.068c-0.578,0.033-1.257,0.082-2.039,0.146
	c-0.782,0.066-1.402,0.162-1.858,0.287c-0.543,0.152-0.983,0.387-1.319,0.705c-0.335,0.32-0.503,0.76-0.503,1.318
	c0,0.631,0.195,1.107,0.584,1.426c0.39,0.318,0.984,0.479,1.783,0.479c0.665,0,1.272-0.127,1.823-0.379
	C21.575,57.502,22.085,57.197,22.555,56.842z"/>
<path fill="#231F20" d="M34.276,59.457c-0.356,0.092-0.744,0.168-1.163,0.227c-0.42,0.061-0.794,0.09-1.123,0.09
	c-1.148,0-2.021-0.303-2.618-0.908c-0.598-0.605-0.896-1.576-0.896-2.912v-5.861h-1.279v-1.561h1.279v-3.168h1.894v3.168h3.907
	v1.561h-3.907v5.023c0,0.578,0.013,1.031,0.04,1.357c0.027,0.324,0.121,0.629,0.282,0.912c0.147,0.264,0.351,0.455,0.609,0.578
	c0.258,0.121,0.653,0.182,1.184,0.182c0.309,0,0.631-0.045,0.967-0.133c0.335-0.09,0.577-0.162,0.725-0.223h0.101V59.457z"/>
<path fill="#231F20" d="M46.479,59.557h-1.883v-1.176c-0.168,0.113-0.395,0.27-0.68,0.469c-0.286,0.201-0.562,0.361-0.831,0.48
	c-0.315,0.15-0.678,0.277-1.087,0.379c-0.41,0.102-0.89,0.152-1.44,0.152c-1.014,0-1.873-0.328-2.578-0.986
	c-0.705-0.658-1.058-1.496-1.058-2.516c0-0.836,0.183-1.512,0.549-2.029c0.366-0.516,0.888-0.922,1.566-1.219
	c0.685-0.295,1.507-0.496,2.467-0.602s1.991-0.184,3.092-0.236v-0.287c0-0.42-0.076-0.77-0.227-1.047
	c-0.151-0.275-0.368-0.492-0.649-0.65c-0.269-0.152-0.591-0.254-0.967-0.307c-0.376-0.053-0.769-0.078-1.178-0.078
	c-0.497,0-1.051,0.064-1.662,0.191c-0.611,0.129-1.242,0.314-1.894,0.559h-0.101V48.77c0.369-0.1,0.903-0.207,1.601-0.326
	s1.386-0.178,2.064-0.178c0.792,0,1.482,0.064,2.07,0.193c0.587,0.127,1.096,0.346,1.525,0.656c0.423,0.303,0.745,0.693,0.967,1.174
	s0.333,1.076,0.333,1.787V59.557z M44.595,56.842v-3.068c-0.578,0.033-1.257,0.082-2.039,0.146
	c-0.782,0.066-1.402,0.162-1.858,0.287c-0.543,0.152-0.983,0.387-1.319,0.705c-0.335,0.32-0.503,0.76-0.503,1.318
	c0,0.631,0.195,1.107,0.584,1.426c0.39,0.318,0.984,0.479,1.783,0.479c0.665,0,1.272-0.127,1.823-0.379
	C43.615,57.502,44.125,57.197,44.595,56.842z"/>
<path fill="#231F20" d="M59.879,53.961c0,0.92-0.133,1.75-0.398,2.486s-0.623,1.355-1.073,1.855c-0.477,0.52-1,0.91-1.571,1.17
	s-1.198,0.389-1.883,0.389c-0.638,0-1.195-0.074-1.672-0.221c-0.477-0.148-0.946-0.348-1.41-0.598l-0.121,0.514H49.98V44.199h1.893
	v5.488c0.53-0.428,1.094-0.779,1.692-1.051c0.598-0.273,1.269-0.41,2.014-0.41c1.329,0,2.378,0.5,3.147,1.5
	S59.879,52.139,59.879,53.961z M57.925,54.01c0-1.316-0.221-2.314-0.665-2.996c-0.443-0.68-1.158-1.021-2.145-1.021
	c-0.55,0-1.108,0.117-1.672,0.352c-0.564,0.232-1.087,0.533-1.571,0.902v6.316c0.537,0.236,0.999,0.402,1.385,0.494
	c0.386,0.092,0.824,0.137,1.314,0.137c1.047,0,1.868-0.336,2.462-1.012C57.628,56.508,57.925,55.451,57.925,54.01z"/>
<path fill="#231F20" d="M71.963,59.557H70.08v-1.176c-0.168,0.113-0.395,0.27-0.68,0.469c-0.286,0.201-0.562,0.361-0.831,0.48
	c-0.315,0.15-0.678,0.277-1.087,0.379c-0.41,0.102-0.89,0.152-1.44,0.152c-1.014,0-1.873-0.328-2.578-0.986
	c-0.705-0.658-1.058-1.496-1.058-2.516c0-0.836,0.183-1.512,0.549-2.029c0.366-0.516,0.888-0.922,1.566-1.219
	c0.685-0.295,1.507-0.496,2.467-0.602s1.991-0.184,3.092-0.236v-0.287c0-0.42-0.076-0.77-0.227-1.047
	c-0.151-0.275-0.368-0.492-0.649-0.65c-0.269-0.152-0.591-0.254-0.967-0.307c-0.376-0.053-0.769-0.078-1.178-0.078
	c-0.497,0-1.051,0.064-1.662,0.191c-0.611,0.129-1.242,0.314-1.894,0.559h-0.101V48.77c0.369-0.1,0.903-0.207,1.601-0.326
	s1.386-0.178,2.064-0.178c0.792,0,1.482,0.064,2.07,0.193c0.587,0.127,1.096,0.346,1.525,0.656c0.423,0.303,0.745,0.693,0.967,1.174
	s0.333,1.076,0.333,1.787V59.557z M70.08,56.842v-3.068c-0.578,0.033-1.257,0.082-2.039,0.146c-0.782,0.066-1.402,0.162-1.858,0.287
	c-0.543,0.152-0.983,0.387-1.319,0.705c-0.335,0.32-0.503,0.76-0.503,1.318c0,0.631,0.195,1.107,0.584,1.426
	c0.39,0.318,0.984,0.479,1.783,0.479c0.665,0,1.272-0.127,1.823-0.379C69.1,57.502,69.61,57.197,70.08,56.842z"/>
<path fill="#231F20" d="M84.367,56.379c0,1.006-0.425,1.832-1.274,2.477s-2.009,0.967-3.479,0.967c-0.833,0-1.596-0.098-2.291-0.291
	s-1.277-0.406-1.747-0.637v-2.082h0.101c0.598,0.441,1.262,0.791,1.994,1.051c0.731,0.26,1.433,0.391,2.104,0.391
	c0.833,0,1.484-0.133,1.954-0.395c0.47-0.264,0.705-0.678,0.705-1.244c0-0.434-0.127-0.764-0.383-0.986
	c-0.255-0.225-0.745-0.416-1.47-0.572c-0.269-0.061-0.619-0.129-1.052-0.209c-0.433-0.078-0.828-0.164-1.183-0.256
	c-0.987-0.256-1.687-0.633-2.1-1.131c-0.413-0.496-0.619-1.105-0.619-1.83c0-0.453,0.096-0.881,0.287-1.283
	c0.191-0.4,0.481-0.76,0.871-1.076c0.376-0.309,0.854-0.553,1.435-0.734c0.581-0.182,1.23-0.271,1.949-0.271
	c0.671,0,1.351,0.08,2.039,0.242c0.688,0.16,1.26,0.357,1.717,0.588v1.982h-0.101c-0.483-0.348-1.071-0.643-1.762-0.883
	s-1.37-0.361-2.034-0.361c-0.691,0-1.276,0.131-1.752,0.391s-0.715,0.646-0.715,1.16c0,0.453,0.144,0.795,0.433,1.025
	c0.282,0.23,0.738,0.418,1.37,0.562c0.349,0.08,0.74,0.158,1.173,0.238c0.433,0.078,0.794,0.15,1.083,0.217
	c0.879,0.197,1.557,0.535,2.034,1.016C84.129,54.932,84.367,55.576,84.367,56.379z"/>
<path fill="#231F20" d="M97.255,54.236h-8.288c0,0.678,0.104,1.268,0.312,1.771s0.494,0.916,0.856,1.238
	c0.349,0.316,0.764,0.553,1.244,0.711s1.009,0.236,1.586,0.236c0.765,0,1.536-0.148,2.311-0.447
	c0.775-0.301,1.328-0.594,1.657-0.885h0.101v2.023c-0.638,0.264-1.289,0.484-1.954,0.662s-1.363,0.266-2.095,0.266
	c-1.867,0-3.323-0.494-4.371-1.484s-1.571-2.396-1.571-4.221c0-1.803,0.502-3.232,1.506-4.293c1.003-1.059,2.324-1.588,3.962-1.588
	c1.518,0,2.688,0.434,3.51,1.303s1.234,2.102,1.234,3.701V54.236z M95.412,52.816c-0.006-0.975-0.257-1.729-0.75-2.262
	c-0.494-0.533-1.244-0.799-2.251-0.799c-1.014,0-1.821,0.293-2.422,0.879c-0.601,0.586-0.941,1.312-1.022,2.182H95.412z"/>
<path fill="#231F20" d="M113.717,45.996h-0.101c-0.208-0.059-0.48-0.121-0.816-0.184s-0.631-0.094-0.886-0.094
	c-0.812,0-1.401,0.178-1.767,0.529c-0.366,0.352-0.549,0.988-0.549,1.908v0.375h3.414v1.561h-3.354v9.465h-1.893v-9.465h-1.279
	v-1.561h1.279v-0.363c0-1.311,0.332-2.314,0.997-3.016c0.665-0.701,1.625-1.051,2.88-1.051c0.423,0,0.804,0.02,1.143,0.059
	s0.65,0.086,0.932,0.139V45.996z"/>
<path fill="#231F20" d="M125.081,54.049c0,1.797-0.47,3.215-1.41,4.254s-2.199,1.559-3.776,1.559c-1.591,0-2.855-0.52-3.792-1.559
	s-1.405-2.457-1.405-4.254s0.468-3.215,1.405-4.258s2.201-1.564,3.792-1.564c1.578,0,2.836,0.521,3.776,1.564
	S125.081,52.252,125.081,54.049z M123.127,54.049c0-1.428-0.285-2.488-0.856-3.182c-0.571-0.695-1.363-1.043-2.376-1.043
	c-1.027,0-1.825,0.348-2.392,1.043c-0.567,0.693-0.851,1.754-0.851,3.182c0,1.383,0.286,2.43,0.856,3.145
	c0.57,0.713,1.366,1.07,2.387,1.07c1.007,0,1.797-0.354,2.372-1.061C122.84,56.496,123.127,55.443,123.127,54.049z"/>
<path fill="#231F20" d="M135.34,50.555h-0.101c-0.282-0.064-0.556-0.113-0.821-0.143s-0.579-0.045-0.942-0.045
	c-0.584,0-1.148,0.127-1.692,0.381c-0.543,0.254-1.067,0.58-1.571,0.982v7.826h-1.893V48.531h1.893v1.629
	c0.752-0.592,1.415-1.012,1.989-1.258c0.574-0.246,1.16-0.371,1.757-0.371c0.329,0,0.567,0.01,0.715,0.025
	c0.147,0.018,0.369,0.049,0.665,0.094V50.555z"/>
<path fill="#231F20" d="M154.249,54.049c0,1.797-0.47,3.215-1.41,4.254s-2.199,1.559-3.776,1.559c-1.591,0-2.855-0.52-3.792-1.559
	s-1.405-2.457-1.405-4.254s0.468-3.215,1.405-4.258s2.201-1.564,3.792-1.564c1.578,0,2.836,0.521,3.776,1.564
	S154.249,52.252,154.249,54.049z M152.295,54.049c0-1.428-0.285-2.488-0.856-3.182c-0.571-0.695-1.363-1.043-2.376-1.043
	c-1.027,0-1.825,0.348-2.392,1.043c-0.567,0.693-0.851,1.754-0.851,3.182c0,1.383,0.286,2.43,0.856,3.145
	c0.57,0.713,1.366,1.07,2.387,1.07c1.007,0,1.797-0.354,2.372-1.061C152.008,56.496,152.295,55.443,152.295,54.049z"/>
<path fill="#231F20" d="M167.141,53.91c0,0.896-0.131,1.713-0.393,2.453c-0.262,0.74-0.631,1.367-1.107,1.881
	c-0.443,0.486-0.965,0.863-1.566,1.129c-0.601,0.268-1.237,0.4-1.908,0.4c-0.584,0-1.113-0.062-1.586-0.188
	c-0.474-0.125-0.955-0.318-1.445-0.582v4.619h-1.893V48.531h1.893v1.156c0.503-0.416,1.069-0.762,1.697-1.041
	c0.628-0.281,1.297-0.42,2.009-0.42c1.356,0,2.412,0.502,3.167,1.504C166.763,50.734,167.141,52.129,167.141,53.91z M165.187,53.961
	c0-1.33-0.231-2.322-0.695-2.98c-0.463-0.658-1.175-0.988-2.135-0.988c-0.544,0-1.091,0.115-1.642,0.346s-1.078,0.533-1.581,0.908
	v6.248c0.537,0.236,0.999,0.398,1.385,0.482c0.386,0.086,0.824,0.129,1.314,0.129c1.054,0,1.876-0.35,2.468-1.047
	C164.892,56.361,165.187,55.328,165.187,53.961z"/>
<path fill="#231F20" d="M180.156,53.91c0,0.896-0.131,1.713-0.393,2.453s-0.631,1.367-1.107,1.881
	c-0.443,0.486-0.965,0.863-1.566,1.129c-0.601,0.268-1.237,0.4-1.908,0.4c-0.584,0-1.113-0.062-1.586-0.188
	c-0.474-0.125-0.955-0.318-1.445-0.582v4.619h-1.893V48.531h1.893v1.156c0.503-0.416,1.069-0.762,1.697-1.041
	c0.628-0.281,1.297-0.42,2.009-0.42c1.356,0,2.411,0.502,3.167,1.504C179.779,50.734,180.156,52.129,180.156,53.91z M178.203,53.961
	c0-1.33-0.232-2.322-0.695-2.98s-1.175-0.988-2.135-0.988c-0.544,0-1.091,0.115-1.642,0.346s-1.078,0.533-1.581,0.908v6.248
	c0.537,0.236,0.999,0.398,1.385,0.482c0.386,0.086,0.824,0.129,1.314,0.129c1.054,0,1.876-0.35,2.467-1.047
	C177.908,56.361,178.203,55.328,178.203,53.961z"/>
<path fill="#231F20" d="M193.209,54.049c0,1.797-0.47,3.215-1.41,4.254c-0.939,1.039-2.198,1.559-3.776,1.559
	c-1.591,0-2.854-0.52-3.791-1.559s-1.405-2.457-1.405-4.254s0.469-3.215,1.405-4.258s2.2-1.564,3.791-1.564
	c1.578,0,2.837,0.521,3.776,1.564C192.74,50.834,193.209,52.252,193.209,54.049z M191.256,54.049c0-1.428-0.286-2.488-0.856-3.182
	c-0.57-0.695-1.363-1.043-2.377-1.043c-1.027,0-1.824,0.348-2.392,1.043c-0.567,0.693-0.851,1.754-0.851,3.182
	c0,1.383,0.285,2.43,0.855,3.145c0.571,0.713,1.366,1.07,2.387,1.07c1.008,0,1.798-0.354,2.372-1.061S191.256,55.443,191.256,54.049
	z"/>
<path fill="#231F20" d="M203.573,50.555h-0.102c-0.281-0.064-0.556-0.113-0.82-0.143c-0.266-0.029-0.579-0.045-0.941-0.045
	c-0.584,0-1.148,0.127-1.692,0.381s-1.067,0.58-1.57,0.982v7.826h-1.894V48.531h1.894v1.629c0.751-0.592,1.414-1.012,1.988-1.258
	s1.16-0.371,1.758-0.371c0.328,0,0.567,0.01,0.715,0.025c0.147,0.018,0.369,0.049,0.665,0.094V50.555z"/>
<path fill="#231F20" d="M213.361,59.457c-0.356,0.092-0.744,0.168-1.163,0.227c-0.42,0.061-0.794,0.09-1.123,0.09
	c-1.148,0-2.021-0.303-2.618-0.908s-0.896-1.576-0.896-2.912v-5.861h-1.279v-1.561h1.279v-3.168h1.894v3.168h3.907v1.561h-3.907
	v5.023c0,0.578,0.013,1.031,0.04,1.357c0.026,0.324,0.121,0.629,0.282,0.912c0.147,0.264,0.351,0.455,0.609,0.578
	c0.258,0.121,0.652,0.182,1.183,0.182c0.309,0,0.631-0.045,0.967-0.133c0.336-0.09,0.578-0.162,0.726-0.223h0.101V59.457z"/>
<path fill="#231F20" d="M225.756,59.557h-1.894v-1.225c-0.638,0.494-1.248,0.873-1.833,1.135c-0.584,0.264-1.229,0.395-1.934,0.395
	c-1.182,0-2.101-0.354-2.759-1.061s-0.987-1.744-0.987-3.113v-7.156h1.894v6.277c0,0.561,0.026,1.039,0.081,1.436
	c0.053,0.398,0.167,0.74,0.342,1.021c0.182,0.291,0.416,0.5,0.705,0.633c0.289,0.131,0.708,0.197,1.259,0.197
	c0.49,0,1.025-0.125,1.606-0.375c0.58-0.25,1.123-0.568,1.626-0.957v-8.232h1.894V59.557z"/>
<path fill="#231F20" d="M238.889,59.557h-1.894v-6.277c0-0.506-0.03-0.982-0.091-1.426c-0.061-0.445-0.171-0.791-0.332-1.041
	c-0.168-0.277-0.41-0.482-0.726-0.617s-0.725-0.203-1.229-0.203c-0.517,0-1.058,0.125-1.621,0.375
	c-0.564,0.25-1.104,0.57-1.621,0.959v8.23h-1.894V48.531h1.894v1.225c0.59-0.48,1.201-0.855,1.832-1.125s1.279-0.404,1.944-0.404
	c1.215,0,2.142,0.357,2.779,1.076c0.638,0.717,0.957,1.75,0.957,3.098V59.557z"/>
<path fill="#231F20" d="M244.465,46.688h-2.135v-1.926h2.135V46.688z M244.344,59.557h-1.894V48.531h1.894V59.557z"/>
<path fill="#231F20" d="M254.613,59.457c-0.356,0.092-0.744,0.168-1.163,0.227c-0.42,0.061-0.794,0.09-1.123,0.09
	c-1.148,0-2.021-0.303-2.618-0.908s-0.896-1.576-0.896-2.912v-5.861h-1.279v-1.561h1.279v-3.168h1.894v3.168h3.907v1.561h-3.907
	v5.023c0,0.578,0.013,1.031,0.04,1.357c0.026,0.324,0.121,0.629,0.282,0.912c0.147,0.264,0.351,0.455,0.609,0.578
	c0.258,0.121,0.652,0.182,1.183,0.182c0.309,0,0.631-0.045,0.967-0.133c0.336-0.09,0.578-0.162,0.726-0.223h0.101V59.457z"/>
<path fill="#231F20" d="M259.757,46.688h-2.135v-1.926h2.135V46.688z M259.636,59.557h-1.894V48.531h1.894V59.557z"/>
<path fill="#231F20" d="M273.315,54.236h-8.288c0,0.678,0.104,1.268,0.312,1.771s0.494,0.916,0.856,1.238
	c0.349,0.316,0.764,0.553,1.244,0.711c0.479,0.158,1.008,0.236,1.586,0.236c0.766,0,1.535-0.148,2.311-0.447
	c0.776-0.301,1.328-0.594,1.657-0.885h0.101v2.023c-0.638,0.264-1.289,0.484-1.954,0.662c-0.664,0.178-1.362,0.266-2.095,0.266
	c-1.866,0-3.323-0.494-4.37-1.484c-1.048-0.99-1.571-2.396-1.571-4.221c0-1.803,0.502-3.232,1.506-4.293
	c1.003-1.059,2.324-1.588,3.963-1.588c1.517,0,2.687,0.434,3.51,1.303c0.822,0.869,1.233,2.102,1.233,3.701V54.236z M271.472,52.816
	c-0.007-0.975-0.257-1.729-0.751-2.262c-0.493-0.533-1.243-0.799-2.25-0.799c-1.015,0-1.821,0.293-2.423,0.879
	c-0.601,0.586-0.941,1.312-1.021,2.182H271.472z"/>
<path fill="#231F20" d="M285.067,56.379c0,1.006-0.425,1.832-1.273,2.477c-0.85,0.645-2.01,0.967-3.479,0.967
	c-0.833,0-1.597-0.098-2.291-0.291c-0.695-0.193-1.278-0.406-1.748-0.637v-2.082h0.101c0.598,0.441,1.263,0.791,1.994,1.051
	c0.732,0.26,1.434,0.391,2.105,0.391c0.832,0,1.483-0.133,1.953-0.395c0.47-0.264,0.705-0.678,0.705-1.244
	c0-0.434-0.128-0.764-0.383-0.986c-0.255-0.225-0.745-0.416-1.47-0.572c-0.269-0.061-0.62-0.129-1.053-0.209
	c-0.433-0.078-0.827-0.164-1.184-0.256c-0.986-0.256-1.687-0.633-2.1-1.131c-0.413-0.496-0.619-1.105-0.619-1.83
	c0-0.453,0.096-0.881,0.287-1.283c0.191-0.4,0.481-0.76,0.871-1.076c0.376-0.309,0.854-0.553,1.435-0.734
	c0.581-0.182,1.23-0.271,1.949-0.271c0.671,0,1.351,0.08,2.039,0.242c0.688,0.16,1.261,0.357,1.717,0.588v1.982h-0.101
	c-0.483-0.348-1.07-0.643-1.762-0.883c-0.692-0.24-1.37-0.361-2.035-0.361c-0.691,0-1.275,0.131-1.752,0.391
	s-0.715,0.646-0.715,1.16c0,0.453,0.145,0.795,0.433,1.025c0.282,0.23,0.739,0.418,1.37,0.562c0.349,0.08,0.74,0.158,1.173,0.238
	c0.434,0.078,0.794,0.15,1.083,0.217c0.879,0.197,1.558,0.535,2.034,1.016C284.829,54.932,285.067,55.576,285.067,56.379z"/>
<path fill="#231F20" d="M297.33,46.688h-2.135v-1.926h2.135V46.688z M297.208,59.557h-1.894V48.531h1.894V59.557z"/>
<path fill="#231F20" d="M310.505,59.557h-1.894v-6.277c0-0.506-0.03-0.982-0.091-1.426c-0.061-0.445-0.171-0.791-0.332-1.041
	c-0.168-0.277-0.41-0.482-0.726-0.617s-0.725-0.203-1.229-0.203c-0.517,0-1.058,0.125-1.621,0.375
	c-0.564,0.25-1.104,0.57-1.621,0.959v8.23h-1.894V48.531h1.894v1.225c0.59-0.48,1.201-0.855,1.832-1.125s1.279-0.404,1.944-0.404
	c1.215,0,2.142,0.357,2.779,1.076c0.638,0.717,0.957,1.75,0.957,3.098V59.557z"/>
<path fill="#231F20" d="M330.411,59.557h-1.883v-1.176c-0.168,0.113-0.395,0.27-0.681,0.469c-0.285,0.201-0.562,0.361-0.83,0.48
	c-0.316,0.15-0.679,0.277-1.088,0.379c-0.41,0.102-0.89,0.152-1.44,0.152c-1.014,0-1.873-0.328-2.578-0.986
	s-1.058-1.496-1.058-2.516c0-0.836,0.184-1.512,0.55-2.029c0.365-0.516,0.888-0.922,1.565-1.219
	c0.685-0.295,1.507-0.496,2.468-0.602c0.96-0.105,1.99-0.184,3.092-0.236v-0.287c0-0.42-0.076-0.77-0.228-1.047
	c-0.15-0.275-0.367-0.492-0.649-0.65c-0.269-0.152-0.591-0.254-0.967-0.307s-0.769-0.078-1.178-0.078
	c-0.497,0-1.051,0.064-1.662,0.191c-0.61,0.129-1.242,0.314-1.893,0.559h-0.102V48.77c0.369-0.1,0.903-0.207,1.602-0.326
	s1.387-0.178,2.064-0.178c0.792,0,1.482,0.064,2.069,0.193c0.588,0.127,1.097,0.346,1.526,0.656
	c0.423,0.303,0.745,0.693,0.967,1.174c0.221,0.48,0.332,1.076,0.332,1.787V59.557z M328.528,56.842v-3.068
	c-0.578,0.033-1.258,0.082-2.04,0.146c-0.782,0.066-1.401,0.162-1.857,0.287c-0.544,0.152-0.984,0.387-1.319,0.705
	c-0.336,0.32-0.504,0.76-0.504,1.318c0,0.631,0.194,1.107,0.584,1.426s0.983,0.479,1.782,0.479c0.665,0,1.272-0.127,1.823-0.379
	C327.547,57.502,328.057,57.197,328.528,56.842z"/>
<path fill="#231F20" d="M340.932,50.555h-0.102c-0.281-0.064-0.556-0.113-0.82-0.143c-0.266-0.029-0.579-0.045-0.941-0.045
	c-0.584,0-1.148,0.127-1.692,0.381s-1.067,0.58-1.57,0.982v7.826h-1.894V48.531h1.894v1.629c0.751-0.592,1.414-1.012,1.988-1.258
	s1.16-0.371,1.758-0.371c0.328,0,0.567,0.01,0.715,0.025c0.147,0.018,0.369,0.049,0.665,0.094V50.555z"/>
<path fill="#231F20" d="M350.989,59.457c-0.356,0.092-0.744,0.168-1.163,0.227c-0.42,0.061-0.794,0.09-1.123,0.09
	c-1.148,0-2.021-0.303-2.618-0.908s-0.896-1.576-0.896-2.912v-5.861h-1.279v-1.561h1.279v-3.168h1.894v3.168h3.907v1.561h-3.907
	v5.023c0,0.578,0.013,1.031,0.04,1.357c0.026,0.324,0.121,0.629,0.282,0.912c0.147,0.264,0.351,0.455,0.609,0.578
	c0.258,0.121,0.652,0.182,1.183,0.182c0.309,0,0.631-0.045,0.967-0.133c0.336-0.09,0.578-0.162,0.726-0.223h0.101V59.457z"/>
</svg>
