<?xml version="1.0" encoding="utf-8"?>
<!-- Generator: Adobe Illustrator 15.0.0, SVG Export Plug-In . SVG Version: 6.00 Build 0)  -->
<!DOCTYPE svg PUBLIC "-//W3C//DTD SVG 1.1//EN" "http://www.w3.org/Graphics/SVG/1.1/DTD/svg11.dtd">
<svg version="1.1"
	 id="Layer_1" xmlns:dc="http://purl.org/dc/elements/1.1/" xmlns:rdf="http://www.w3.org/1999/02/22-rdf-syntax-ns#" xmlns:svg="http://www.w3.org/2000/svg" xmlns:cc="http://creativecommons.org/ns#"
	 xmlns="http://www.w3.org/2000/svg" xmlns:xlink="http://www.w3.org/1999/xlink" x="0px" y="0px" width="470px" height="130px"
	 viewBox="0 0 470 130" enable-background="new 0 0 470 130" xml:space="preserve">
<g enable-background="new    ">
	<path fill="#0000FF" d="M18.783,53.985h-3.651v-2.253c-0.325,0.214-0.765,0.514-1.318,0.899s-1.09,0.691-1.61,0.918
		c-0.612,0.291-1.315,0.533-2.109,0.729s-1.725,0.293-2.792,0.293c-1.966,0-3.631-0.631-4.998-1.894
		c-1.367-1.262-2.05-2.872-2.05-4.83c0-1.603,0.354-2.9,1.064-3.892c0.709-0.991,1.721-1.771,3.036-2.339
		c1.328-0.568,2.922-0.953,4.783-1.155c1.861-0.202,3.859-0.353,5.994-0.455V39.46c0-0.808-0.146-1.478-0.439-2.008
		c-0.292-0.53-0.712-0.947-1.259-1.25c-0.521-0.29-1.146-0.486-1.875-0.587s-1.49-0.151-2.284-0.151
		c-0.963,0-2.037,0.123-3.221,0.369c-1.185,0.246-2.408,0.603-3.67,1.07H2.188v-3.617c0.715-0.189,1.75-0.397,3.104-0.625
		c1.354-0.228,2.688-0.341,4.002-0.341c1.536,0,2.873,0.123,4.012,0.37c1.139,0.246,2.125,0.666,2.958,1.259
		c0.82,0.581,1.445,1.332,1.875,2.253c0.429,0.922,0.644,2.064,0.644,3.428V53.985z M15.132,48.777v-5.89
		c-1.12,0.063-2.438,0.158-3.954,0.284c-1.516,0.126-2.717,0.31-3.602,0.549c-1.054,0.291-1.907,0.742-2.558,1.354
		c-0.651,0.613-0.976,1.456-0.976,2.528c0,1.212,0.377,2.125,1.132,2.737s1.907,0.918,3.456,0.918c1.289,0,2.467-0.243,3.534-0.729
		C13.232,50.043,14.221,49.459,15.132,48.777z"/>
</g>
<g enable-background="new    ">
	<path fill="#0000FF" d="M42.217,36.714h-0.195c-0.547-0.126-1.077-0.218-1.591-0.275c-0.514-0.057-1.123-0.085-1.825-0.085
		c-1.132,0-2.226,0.243-3.28,0.729c-1.055,0.486-2.07,1.114-3.046,1.884v15.018h-3.67V32.832h3.67v3.125
		c1.458-1.136,2.743-1.941,3.856-2.415s2.248-0.71,3.407-0.71c0.638,0,1.1,0.016,1.386,0.047c0.286,0.031,0.716,0.091,1.289,0.18
		V36.714z"/>
</g>
<g enable-background="new    ">
	<path fill="#0000FF" d="M61.915,53.796c-0.69,0.177-1.442,0.322-2.255,0.436c-0.814,0.114-1.54,0.17-2.177,0.17
		c-2.226,0-3.917-0.581-5.076-1.742c-1.159-1.162-1.738-3.023-1.738-5.587V35.824H48.19v-2.992h2.479v-6.08h3.67v6.08h7.575v2.992
		H54.34v9.64c0,1.111,0.026,1.979,0.078,2.604c0.052,0.625,0.234,1.209,0.546,1.751c0.286,0.505,0.68,0.875,1.181,1.108
		c0.501,0.234,1.266,0.351,2.294,0.351c0.598,0,1.223-0.085,1.874-0.256s1.119-0.312,1.406-0.426h0.195V53.796z"/>
</g>
<g enable-background="new    ">
	<path fill="#0000FF" d="M87.64,43.778H71.572c0,1.3,0.202,2.434,0.605,3.399c0.403,0.966,0.957,1.758,1.659,2.376
		c0.677,0.606,1.48,1.061,2.411,1.364c0.931,0.303,1.956,0.455,3.075,0.455c1.484,0,2.977-0.287,4.48-0.862
		c1.503-0.574,2.574-1.139,3.212-1.695h0.195v3.882c-1.236,0.505-2.499,0.928-3.787,1.269c-1.289,0.341-2.643,0.511-4.061,0.511
		c-3.619,0-6.443-0.95-8.473-2.85c-2.031-1.9-3.046-4.599-3.046-8.096c0-3.459,0.973-6.205,2.919-8.238s4.506-3.049,7.683-3.049
		c2.941,0,5.209,0.833,6.804,2.5c1.594,1.667,2.392,4.034,2.392,7.102V43.778z M84.067,41.051c-0.013-1.869-0.498-3.314-1.455-4.337
		c-0.957-1.023-2.411-1.534-4.363-1.534c-1.966,0-3.531,0.562-4.695,1.686c-1.165,1.124-1.826,2.519-1.982,4.186H84.067z"/>
</g>
<g enable-background="new    ">
	<path fill="#0000FF" d="M114.718,53.985h-3.67V41.94c0-0.972-0.059-1.884-0.176-2.736s-0.332-1.518-0.644-1.998
		c-0.326-0.53-0.794-0.925-1.406-1.184s-1.406-0.388-2.382-0.388c-1.002,0-2.05,0.24-3.144,0.72
		c-1.093,0.48-2.141,1.092-3.143,1.837v15.794h-3.67V32.832h3.67v2.348c1.145-0.921,2.33-1.641,3.553-2.159
		c1.223-0.517,2.479-0.776,3.768-0.776c2.355,0,4.152,0.688,5.389,2.064c1.236,1.376,1.854,3.358,1.854,5.947V53.985z"/>
</g>
<g enable-background="new    ">
	<path fill="#0000FF" d="M142.513,53.985h-3.67V51.77c-1.055,0.884-2.154,1.572-3.3,2.064c-1.146,0.492-2.389,0.738-3.729,0.738
		c-2.603,0-4.669-0.972-6.199-2.917c-1.529-1.944-2.294-4.64-2.294-8.086c0-1.792,0.264-3.39,0.791-4.792
		c0.527-1.401,1.24-2.594,2.138-3.579c0.885-0.959,1.917-1.692,3.094-2.197s2.398-0.758,3.661-0.758
		c1.146,0,2.161,0.117,3.046,0.351c0.885,0.234,1.815,0.597,2.792,1.089v-9.166h3.67V53.985z M138.842,48.777v-12.14
		c-0.99-0.429-1.875-0.726-2.655-0.89c-0.781-0.164-1.634-0.247-2.558-0.247c-2.057,0-3.658,0.695-4.803,2.083
		c-1.146,1.389-1.718,3.358-1.718,5.909c0,2.513,0.442,4.422,1.328,5.729c0.885,1.307,2.304,1.96,4.256,1.96
		c1.041,0,2.095-0.224,3.163-0.672C136.922,50.062,137.918,49.484,138.842,48.777z"/>
</g>
<g enable-background="new    ">
	<path fill="#0000FF" d="M169.441,53.985h-3.651v-2.253c-0.325,0.214-0.765,0.514-1.318,0.899s-1.09,0.691-1.61,0.918
		c-0.612,0.291-1.315,0.533-2.109,0.729s-1.725,0.293-2.792,0.293c-1.966,0-3.631-0.631-4.998-1.894
		c-1.367-1.262-2.05-2.872-2.05-4.83c0-1.603,0.354-2.9,1.064-3.892c0.709-0.991,1.721-1.771,3.036-2.339
		c1.328-0.568,2.922-0.953,4.783-1.155c1.861-0.202,3.859-0.353,5.994-0.455V39.46c0-0.808-0.146-1.478-0.439-2.008
		c-0.292-0.53-0.712-0.947-1.259-1.25c-0.521-0.29-1.146-0.486-1.875-0.587s-1.49-0.151-2.284-0.151
		c-0.963,0-2.037,0.123-3.221,0.369c-1.185,0.246-2.408,0.603-3.67,1.07h-0.195v-3.617c0.715-0.189,1.75-0.397,3.104-0.625
		c1.354-0.228,2.688-0.341,4.002-0.341c1.536,0,2.873,0.123,4.012,0.37c1.139,0.246,2.125,0.666,2.958,1.259
		c0.82,0.581,1.445,1.332,1.875,2.253c0.429,0.922,0.644,2.064,0.644,3.428V53.985z M165.79,48.777v-5.89
		c-1.12,0.063-2.438,0.158-3.954,0.284c-1.516,0.126-2.717,0.31-3.602,0.549c-1.054,0.291-1.907,0.742-2.558,1.354
		c-0.651,0.613-0.976,1.456-0.976,2.528c0,1.212,0.377,2.125,1.132,2.737s1.907,0.918,3.456,0.918c1.289,0,2.467-0.243,3.534-0.729
		C163.89,50.043,164.879,49.459,165.79,48.777z"/>
</g>
<g enable-background="new    ">
	<path d="M179.336,49.857h4.081v4.128h-4.081V49.857z"/>
</g>
<g enable-background="new    ">
	<path d="M210.955,53.985h-3.67V41.94c0-0.972-0.059-1.884-0.176-2.736s-0.332-1.518-0.644-1.998
		c-0.326-0.53-0.794-0.925-1.406-1.184s-1.406-0.388-2.382-0.388c-1.002,0-2.05,0.24-3.144,0.72
		c-1.093,0.48-2.141,1.092-3.143,1.837v15.794h-3.67V32.832h3.67v2.348c1.145-0.921,2.33-1.641,3.553-2.159
		c1.223-0.517,2.479-0.776,3.768-0.776c2.355,0,4.152,0.688,5.389,2.064c1.236,1.376,1.854,3.358,1.854,5.947V53.985z"/>
</g>
<g enable-background="new    ">
	<path d="M239.275,43.778h-16.067c0,1.3,0.202,2.434,0.605,3.399c0.403,0.966,0.957,1.758,1.659,2.376
		c0.677,0.606,1.48,1.061,2.411,1.364c0.931,0.303,1.956,0.455,3.075,0.455c1.484,0,2.977-0.287,4.48-0.862
		c1.504-0.574,2.574-1.139,3.212-1.695h0.194v3.882c-1.236,0.505-2.498,0.928-3.787,1.269s-2.643,0.511-4.061,0.511
		c-3.619,0-6.443-0.95-8.473-2.85c-2.031-1.9-3.046-4.599-3.046-8.096c0-3.459,0.973-6.205,2.919-8.238s4.506-3.049,7.683-3.049
		c2.941,0,5.209,0.833,6.804,2.5c1.594,1.667,2.391,4.034,2.391,7.102V43.778z M235.703,41.051
		c-0.014-1.869-0.498-3.314-1.455-4.337c-0.957-1.023-2.411-1.534-4.363-1.534c-1.966,0-3.531,0.562-4.695,1.686
		c-1.165,1.124-1.826,2.519-1.982,4.186H235.703z"/>
</g>
<g enable-background="new    ">
	<path d="M259.403,53.796c-0.69,0.177-1.442,0.322-2.255,0.436c-0.814,0.114-1.539,0.17-2.178,0.17
		c-2.225,0-3.917-0.581-5.075-1.742c-1.159-1.162-1.737-3.023-1.737-5.587V35.824h-2.48v-2.992h2.48v-6.08h3.67v6.08h7.575v2.992
		h-7.575v9.64c0,1.111,0.025,1.979,0.078,2.604c0.052,0.625,0.234,1.209,0.547,1.751c0.285,0.505,0.68,0.875,1.181,1.108
		c0.501,0.234,1.267,0.351,2.294,0.351c0.599,0,1.224-0.085,1.875-0.256c0.65-0.17,1.119-0.312,1.405-0.426h0.195V53.796z"/>
</g>
<g enable-background="new    ">
	<path fill="#0000FF" d="M322.318,43.248c0,1.768-0.256,3.358-0.771,4.772s-1.208,2.601-2.079,3.56
		c-0.924,0.998-1.939,1.746-3.046,2.244s-2.323,0.748-3.651,0.748c-1.236,0-2.316-0.142-3.24-0.426
		c-0.924-0.284-1.836-0.666-2.733-1.146l-0.234,0.985h-3.437V24.518h3.671v10.529c1.028-0.82,2.122-1.493,3.28-2.017
		s2.459-0.786,3.904-0.786c2.577,0,4.611,0.96,6.102,2.879S322.318,39.75,322.318,43.248z M318.531,43.342
		c0-2.525-0.43-4.441-1.289-5.748c-0.858-1.307-2.244-1.96-4.158-1.96c-1.066,0-2.146,0.224-3.24,0.672s-2.109,1.026-3.046,1.733
		v12.12c1.041,0.455,1.937,0.771,2.685,0.947s1.598,0.265,2.548,0.265c2.03,0,3.622-0.647,4.773-1.941
		C317.955,48.137,318.531,46.107,318.531,43.342z"/>
</g>
<g enable-background="new    ">
	<path fill="#0000FF" d="M349.452,43.778h-16.067c0,1.3,0.201,2.434,0.605,3.399c0.402,0.966,0.956,1.758,1.658,2.376
		c0.678,0.606,1.48,1.061,2.412,1.364c0.93,0.303,1.955,0.455,3.074,0.455c1.484,0,2.978-0.287,4.48-0.862
		c1.504-0.574,2.574-1.139,3.213-1.695h0.194v3.882c-1.236,0.505-2.499,0.928-3.787,1.269s-2.643,0.511-4.062,0.511
		c-3.618,0-6.442-0.95-8.473-2.85c-2.031-1.9-3.046-4.599-3.046-8.096c0-3.459,0.974-6.205,2.919-8.238s4.506-3.049,7.683-3.049
		c2.94,0,5.209,0.833,6.804,2.5c1.594,1.667,2.392,4.034,2.392,7.102V43.778z M345.879,41.051c-0.013-1.869-0.498-3.314-1.454-4.337
		c-0.956-1.023-2.411-1.534-4.363-1.534c-1.966,0-3.53,0.562-4.695,1.686c-1.165,1.124-1.825,2.519-1.981,4.186H345.879z"/>
</g>
<g enable-background="new    ">
	<path fill="#0000FF" d="M369.459,53.796c-0.689,0.177-1.441,0.322-2.255,0.436s-1.54,0.17-2.177,0.17
		c-2.227,0-3.918-0.581-5.076-1.742s-1.738-3.023-1.738-5.587V35.824h-2.479v-2.992h2.479v-6.08h3.671v6.08h7.575v2.992h-7.575v9.64
		c0,1.111,0.026,1.979,0.078,2.604c0.052,0.625,0.234,1.209,0.546,1.751c0.287,0.505,0.681,0.875,1.182,1.108
		c0.501,0.234,1.266,0.351,2.295,0.351c0.598,0,1.223-0.085,1.873-0.256c0.651-0.17,1.119-0.312,1.406-0.426h0.195V53.796z"/>
</g>
<g enable-background="new    ">
	<path fill="#0000FF" d="M394.516,53.985h-3.65v-2.253c-0.325,0.214-0.765,0.514-1.318,0.899c-0.553,0.385-1.09,0.691-1.609,0.918
		c-0.613,0.291-1.315,0.533-2.109,0.729s-1.725,0.293-2.791,0.293c-1.967,0-3.632-0.631-4.998-1.894
		c-1.367-1.262-2.051-2.872-2.051-4.83c0-1.603,0.354-2.9,1.064-3.892c0.709-0.991,1.721-1.771,3.035-2.339
		c1.328-0.568,2.922-0.953,4.783-1.155c1.861-0.202,3.859-0.353,5.994-0.455V39.46c0-0.808-0.146-1.478-0.439-2.008
		s-0.713-0.947-1.259-1.25c-0.521-0.29-1.146-0.486-1.874-0.587c-0.729-0.101-1.49-0.151-2.285-0.151
		c-0.963,0-2.037,0.123-3.221,0.369c-1.185,0.246-2.408,0.603-3.67,1.07h-0.195v-3.617c0.715-0.189,1.75-0.397,3.104-0.625
		c1.354-0.228,2.688-0.341,4.002-0.341c1.536,0,2.873,0.123,4.013,0.37c1.139,0.246,2.124,0.666,2.958,1.259
		c0.82,0.581,1.444,1.332,1.874,2.253c0.429,0.922,0.644,2.064,0.644,3.428V53.985z M390.865,48.777v-5.89
		c-1.119,0.063-2.438,0.158-3.953,0.284c-1.517,0.126-2.717,0.31-3.603,0.549c-1.054,0.291-1.907,0.742-2.558,1.354
		c-0.65,0.613-0.977,1.456-0.977,2.528c0,1.212,0.378,2.125,1.133,2.737s1.906,0.918,3.455,0.918c1.289,0,2.467-0.243,3.535-0.729
		C388.965,50.043,389.954,49.459,390.865,48.777z"/>
</g>
<g enable-background="new    ">
	<path d="M16.728,90.328c0,1.684-0.375,3.209-1.124,4.576c-0.749,1.368-1.745,2.43-2.988,3.184c-0.863,0.523-1.826,0.9-2.887,1.133
		c-1.062,0.231-2.46,0.348-4.194,0.348H0.763V81.05h4.721c1.844,0,3.31,0.131,4.397,0.392c1.087,0.262,2.007,0.62,2.76,1.076
		c1.286,0.787,2.289,1.836,3.007,3.146C16.368,86.975,16.728,88.529,16.728,90.328z M14.101,90.291c0-1.451-0.258-2.674-0.774-3.67
		c-0.516-0.994-1.286-1.777-2.31-2.35c-0.745-0.415-1.536-0.703-2.373-0.865c-0.837-0.161-1.84-0.242-3.008-0.242h-2.36v14.29h2.36
		c1.21,0,2.265-0.087,3.167-0.261c0.901-0.174,1.728-0.498,2.481-0.971c0.939-0.588,1.644-1.363,2.113-2.326
		C13.866,92.936,14.101,91.733,14.101,90.291z"/>
</g>
<g enable-background="new    ">
	<path d="M31.12,99.568h-2.374v-1.48c-0.211,0.142-0.497,0.338-0.856,0.592c-0.36,0.252-0.708,0.453-1.047,0.603
		c-0.398,0.19-0.854,0.351-1.371,0.479c-0.516,0.128-1.121,0.192-1.815,0.192c-1.277,0-2.36-0.415-3.249-1.243
		c-0.888-0.83-1.333-1.887-1.333-3.172c0-1.053,0.23-1.904,0.691-2.557c0.461-0.65,1.119-1.162,1.974-1.535
		c0.863-0.373,1.899-0.626,3.109-0.759c1.21-0.132,2.509-0.231,3.896-0.298v-0.361c0-0.53-0.095-0.971-0.285-1.318
		s-0.463-0.621-0.819-0.82c-0.338-0.191-0.745-0.319-1.218-0.386s-0.969-0.1-1.485-0.1c-0.626,0-1.324,0.081-2.094,0.243
		c-0.77,0.161-1.565,0.396-2.386,0.702h-0.127v-2.376c0.465-0.124,1.138-0.261,2.018-0.41c0.88-0.148,1.747-0.224,2.602-0.224
		c0.999,0,1.868,0.081,2.608,0.242c0.74,0.162,1.381,0.438,1.923,0.827c0.533,0.381,0.939,0.875,1.218,1.48s0.419,1.355,0.419,2.25
		V99.568z M28.747,96.148V92.28c-0.728,0.042-1.584,0.104-2.57,0.187c-0.985,0.083-1.766,0.203-2.341,0.361
		c-0.685,0.19-1.239,0.486-1.662,0.889c-0.423,0.402-0.635,0.955-0.635,1.66c0,0.797,0.245,1.396,0.736,1.797
		c0.491,0.402,1.24,0.604,2.247,0.604c0.837,0,1.603-0.159,2.297-0.479C27.511,96.979,28.154,96.596,28.747,96.148z"/>
</g>
<g enable-background="new    ">
	<path d="M42.606,99.443c-0.448,0.117-0.937,0.212-1.465,0.287c-0.529,0.074-1.001,0.111-1.415,0.111
		c-1.447,0-2.547-0.381-3.3-1.145c-0.753-0.762-1.129-1.984-1.129-3.668v-7.388h-1.612v-1.966h1.612v-3.992h2.386v3.992h4.924v1.966
		h-4.924v6.33c0,0.729,0.017,1.3,0.051,1.71s0.152,0.795,0.355,1.15c0.186,0.332,0.442,0.574,0.768,0.729
		c0.326,0.152,0.823,0.229,1.491,0.229c0.389,0,0.795-0.056,1.218-0.168s0.728-0.205,0.914-0.28h0.126V99.443z"/>
</g>
<g enable-background="new    ">
	<path d="M56.658,99.568h-2.374v-1.48c-0.211,0.142-0.497,0.338-0.856,0.592c-0.36,0.252-0.708,0.453-1.047,0.603
		c-0.398,0.19-0.854,0.351-1.371,0.479c-0.516,0.128-1.121,0.192-1.815,0.192c-1.277,0-2.36-0.415-3.249-1.243
		c-0.888-0.83-1.333-1.887-1.333-3.172c0-1.053,0.23-1.904,0.691-2.557c0.461-0.65,1.119-1.162,1.974-1.535
		c0.863-0.373,1.899-0.626,3.109-0.759c1.21-0.132,2.509-0.231,3.896-0.298v-0.361c0-0.53-0.095-0.971-0.285-1.318
		s-0.463-0.621-0.819-0.82c-0.338-0.191-0.745-0.319-1.218-0.386s-0.969-0.1-1.485-0.1c-0.626,0-1.324,0.081-2.094,0.243
		c-0.77,0.161-1.565,0.396-2.386,0.702h-0.127v-2.376c0.465-0.124,1.138-0.261,2.018-0.41c0.88-0.148,1.747-0.224,2.602-0.224
		c0.999,0,1.868,0.081,2.608,0.242c0.74,0.162,1.381,0.438,1.923,0.827c0.533,0.381,0.939,0.875,1.218,1.48s0.419,1.355,0.419,2.25
		V99.568z M54.285,96.148V92.28c-0.728,0.042-1.584,0.104-2.57,0.187c-0.985,0.083-1.766,0.203-2.341,0.361
		c-0.685,0.19-1.239,0.486-1.662,0.889c-0.423,0.402-0.635,0.955-0.635,1.66c0,0.797,0.245,1.396,0.736,1.797
		c0.491,0.402,1.24,0.604,2.247,0.604c0.837,0,1.603-0.159,2.297-0.479C53.049,96.979,53.692,96.596,54.285,96.148z"/>
</g>
<g enable-background="new    ">
	<path d="M73.259,92.517c0,1.161-0.167,2.206-0.501,3.134c-0.334,0.93-0.785,1.709-1.352,2.338c-0.601,0.656-1.261,1.146-1.98,1.475
		c-0.719,0.327-1.51,0.491-2.373,0.491c-0.804,0-1.506-0.093-2.106-0.28c-0.601-0.187-1.193-0.438-1.777-0.752l-0.152,0.646h-2.233
		V80.217h2.386v6.915c0.668-0.539,1.379-0.98,2.132-1.325c0.753-0.344,1.599-0.516,2.538-0.516c1.675,0,2.997,0.631,3.966,1.891
		C72.775,88.441,73.259,90.221,73.259,92.517z M70.797,92.579c0-1.658-0.279-2.917-0.837-3.774
		c-0.559-0.858-1.459-1.287-2.703-1.287c-0.694,0-1.396,0.146-2.106,0.441c-0.711,0.294-1.371,0.674-1.98,1.138v7.96
		c0.677,0.298,1.258,0.506,1.745,0.621c0.486,0.116,1.039,0.174,1.656,0.174c1.32,0,2.354-0.424,3.103-1.274
		C70.423,95.728,70.797,94.395,70.797,92.579z"/>
	<path d="M87.993,99.568H85.62v-1.48c-0.211,0.142-0.497,0.338-0.856,0.592c-0.36,0.252-0.708,0.453-1.047,0.603
		c-0.398,0.19-0.854,0.351-1.371,0.479c-0.516,0.128-1.121,0.192-1.815,0.192c-1.277,0-2.36-0.415-3.249-1.243
		c-0.888-0.83-1.333-1.887-1.333-3.172c0-1.053,0.23-1.904,0.691-2.557c0.461-0.65,1.119-1.162,1.974-1.535
		c0.863-0.373,1.899-0.626,3.109-0.759c1.21-0.132,2.509-0.231,3.896-0.298v-0.361c0-0.53-0.095-0.971-0.285-1.318
		s-0.463-0.621-0.819-0.82c-0.338-0.191-0.745-0.319-1.218-0.386s-0.969-0.1-1.485-0.1c-0.626,0-1.324,0.081-2.094,0.243
		c-0.77,0.161-1.565,0.396-2.386,0.702h-0.127v-2.376c0.465-0.124,1.138-0.261,2.018-0.41c0.88-0.148,1.747-0.224,2.602-0.224
		c0.999,0,1.868,0.081,2.608,0.242c0.74,0.162,1.381,0.438,1.923,0.827c0.533,0.381,0.939,0.875,1.218,1.48s0.419,1.355,0.419,2.25
		V99.568z M85.62,96.148V92.28c-0.728,0.042-1.584,0.104-2.57,0.187c-0.985,0.083-1.766,0.203-2.341,0.361
		c-0.685,0.19-1.239,0.486-1.662,0.889c-0.423,0.402-0.635,0.955-0.635,1.66c0,0.797,0.245,1.396,0.736,1.797
		c0.491,0.402,1.24,0.604,2.247,0.604c0.837,0,1.603-0.159,2.297-0.479C84.384,96.979,85.027,96.596,85.62,96.148z"/>
</g>
<g enable-background="new    ">
	<path d="M102.298,95.563c0,1.269-0.535,2.31-1.605,3.122c-1.071,0.812-2.532,1.219-4.385,1.219c-1.049,0-2.011-0.123-2.887-0.367
		c-0.875-0.244-1.609-0.512-2.202-0.803v-2.623h0.127c0.753,0.555,1.59,0.996,2.513,1.324c0.922,0.328,1.806,0.491,2.652,0.491
		c1.049,0,1.87-0.166,2.462-0.497c0.592-0.332,0.888-0.854,0.888-1.567c0-0.548-0.161-0.962-0.482-1.243
		c-0.322-0.282-0.939-0.523-1.853-0.723c-0.338-0.074-0.78-0.161-1.326-0.26c-0.546-0.1-1.043-0.208-1.491-0.324
		c-1.244-0.323-2.125-0.798-2.646-1.424c-0.52-0.626-0.78-1.395-0.78-2.307c0-0.572,0.121-1.111,0.362-1.617
		c0.241-0.506,0.607-0.957,1.098-1.355c0.474-0.39,1.076-0.699,1.808-0.927s1.55-0.342,2.456-0.342c0.846,0,1.703,0.102,2.57,0.305
		s1.588,0.45,2.164,0.739v2.5h-0.127c-0.609-0.439-1.35-0.811-2.221-1.113c-0.872-0.302-1.726-0.453-2.563-0.453
		c-0.872,0-1.608,0.164-2.208,0.491s-0.901,0.814-0.901,1.461c0,0.572,0.182,1.003,0.546,1.294c0.355,0.29,0.93,0.526,1.726,0.709
		c0.44,0.1,0.933,0.199,1.479,0.298c0.546,0.1,1,0.19,1.364,0.274c1.108,0.248,1.963,0.676,2.563,1.28
		C101.998,93.74,102.298,94.553,102.298,95.563z"/>
</g>
<g enable-background="new    ">
	<path d="M117.5,92.865h-10.444c0,0.854,0.131,1.598,0.394,2.232c0.262,0.634,0.622,1.154,1.079,1.561
		c0.44,0.398,0.962,0.696,1.567,0.896c0.604,0.198,1.271,0.298,1.999,0.298c0.964,0,1.936-0.188,2.913-0.565
		c0.977-0.377,1.673-0.748,2.087-1.112h0.127v2.549c-0.804,0.332-1.625,0.609-2.462,0.834c-0.837,0.223-1.718,0.335-2.64,0.335
		c-2.352,0-4.188-0.624-5.508-1.872c-1.32-1.247-1.979-3.02-1.979-5.316c0-2.271,0.632-4.074,1.897-5.41
		c1.265-1.334,2.93-2.002,4.994-2.002c1.912,0,3.386,0.547,4.422,1.642c1.036,1.095,1.555,2.649,1.555,4.663V92.865z
		 M115.178,91.074c-0.009-1.227-0.324-2.177-0.946-2.848c-0.622-0.672-1.567-1.008-2.836-1.008c-1.278,0-2.295,0.369-3.052,1.107
		c-0.757,0.737-1.187,1.653-1.288,2.748H115.178z"/>
</g>
<g enable-background="new    ">
	<path d="M137.88,82.48h-0.127c-0.262-0.074-0.605-0.151-1.028-0.23c-0.423-0.078-0.795-0.118-1.117-0.118
		c-1.024,0-1.766,0.222-2.227,0.665c-0.461,0.444-0.692,1.246-0.692,2.407v0.472h4.302v1.966h-4.226v11.927h-2.386V87.642h-1.612
		v-1.966h1.612v-0.459c0-1.65,0.419-2.917,1.256-3.8c0.837-0.884,2.047-1.325,3.629-1.325c0.533,0,1.013,0.025,1.44,0.075
		s0.818,0.108,1.174,0.175V82.48z"/>
</g>
<g enable-background="new    ">
	<path d="M151.419,92.629c0,2.264-0.592,4.05-1.777,5.359c-1.185,1.311-2.771,1.966-4.759,1.966c-2.005,0-3.598-0.655-4.778-1.966
		c-1.181-1.31-1.771-3.096-1.771-5.359s0.59-4.053,1.771-5.367c1.18-1.313,2.772-1.971,4.778-1.971c1.988,0,3.574,0.657,4.759,1.971
		C150.827,88.576,151.419,90.365,151.419,92.629z M148.958,92.629c0-1.799-0.36-3.137-1.079-4.012
		c-0.719-0.874-1.718-1.312-2.995-1.312c-1.294,0-2.299,0.438-3.014,1.312c-0.715,0.875-1.072,2.213-1.072,4.012
		c0,1.74,0.359,3.062,1.079,3.961s1.722,1.35,3.008,1.35c1.269,0,2.265-0.445,2.989-1.338
		C148.596,95.711,148.958,94.387,148.958,92.629z"/>
</g>
<g enable-background="new    ">
	<path d="M163.672,88.227h-0.127c-0.355-0.084-0.7-0.144-1.034-0.181c-0.334-0.038-0.729-0.056-1.187-0.056
		c-0.736,0-1.447,0.159-2.132,0.479c-0.686,0.318-1.345,0.731-1.98,1.237v9.862h-2.386V85.676h2.386v2.053
		c0.948-0.746,1.783-1.275,2.506-1.586c0.724-0.311,1.461-0.467,2.215-0.467c0.414,0,0.715,0.012,0.901,0.031
		c0.186,0.021,0.465,0.061,0.837,0.119V88.227z"/>
</g>
<g enable-background="new    ">
	<path d="M187.137,92.629c0,2.264-0.592,4.05-1.777,5.359c-1.185,1.311-2.771,1.966-4.759,1.966c-2.005,0-3.598-0.655-4.778-1.966
		c-1.181-1.31-1.771-3.096-1.771-5.359s0.59-4.053,1.771-5.367c1.18-1.313,2.772-1.971,4.778-1.971c1.988,0,3.574,0.657,4.759,1.971
		C186.544,88.576,187.137,90.365,187.137,92.629z M184.675,92.629c0-1.799-0.36-3.137-1.079-4.012
		c-0.719-0.874-1.718-1.312-2.995-1.312c-1.294,0-2.299,0.438-3.014,1.312c-0.715,0.875-1.072,2.213-1.072,4.012
		c0,1.74,0.359,3.062,1.079,3.961s1.722,1.35,3.008,1.35c1.269,0,2.265-0.445,2.989-1.338
		C184.313,95.711,184.675,94.387,184.675,92.629z"/>
</g>
<g enable-background="new    ">
	<path d="M203.019,92.455c0,1.127-0.165,2.157-0.495,3.09c-0.33,0.934-0.795,1.723-1.396,2.369
		c-0.559,0.613-1.216,1.088-1.974,1.424c-0.757,0.336-1.559,0.504-2.405,0.504c-0.736,0-1.402-0.078-1.999-0.236
		c-0.597-0.157-1.204-0.402-1.821-0.733v5.82h-2.386V85.676h2.386v1.456c0.635-0.522,1.347-0.96,2.139-1.312
		c0.791-0.353,1.635-0.528,2.532-0.528c1.708,0,3.039,0.633,3.991,1.896C202.543,88.452,203.019,90.207,203.019,92.455z
		 M200.557,92.517c0-1.675-0.292-2.927-0.875-3.756s-1.48-1.243-2.69-1.243c-0.685,0-1.375,0.145-2.068,0.436
		c-0.694,0.289-1.358,0.671-1.993,1.144v7.872c0.677,0.299,1.258,0.502,1.745,0.609c0.486,0.108,1.039,0.162,1.656,0.162
		c1.328,0,2.364-0.439,3.109-1.318S200.557,94.241,200.557,92.517z"/>
</g>
<g enable-background="new    ">
	<path d="M218.9,92.455c0,1.127-0.165,2.157-0.495,3.09c-0.33,0.934-0.795,1.723-1.396,2.369c-0.559,0.613-1.216,1.088-1.974,1.424
		c-0.757,0.336-1.559,0.504-2.405,0.504c-0.736,0-1.402-0.078-1.999-0.236c-0.597-0.157-1.204-0.402-1.821-0.733v5.82h-2.386V85.676
		h2.386v1.456c0.635-0.522,1.347-0.96,2.139-1.312c0.791-0.353,1.635-0.528,2.532-0.528c1.708,0,3.039,0.633,3.991,1.896
		C218.424,88.452,218.9,90.207,218.9,92.455z M216.438,92.517c0-1.675-0.292-2.927-0.875-3.756s-1.48-1.243-2.69-1.243
		c-0.685,0-1.375,0.145-2.068,0.436c-0.694,0.289-1.358,0.671-1.993,1.144v7.872c0.677,0.299,1.258,0.502,1.745,0.609
		c0.486,0.108,1.039,0.162,1.656,0.162c1.328,0,2.364-0.439,3.109-1.318S216.438,94.241,216.438,92.517z"/>
</g>
<g enable-background="new    ">
	<path d="M234.57,92.629c0,2.264-0.592,4.05-1.777,5.359c-1.185,1.311-2.771,1.966-4.759,1.966c-2.005,0-3.598-0.655-4.778-1.966
		c-1.181-1.31-1.771-3.096-1.771-5.359s0.59-4.053,1.771-5.367c1.18-1.313,2.772-1.971,4.778-1.971c1.988,0,3.574,0.657,4.759,1.971
		C233.978,88.576,234.57,90.365,234.57,92.629z M232.108,92.629c0-1.799-0.36-3.137-1.079-4.012
		c-0.719-0.874-1.718-1.312-2.995-1.312c-1.294,0-2.299,0.438-3.014,1.312c-0.715,0.875-1.072,2.213-1.072,4.012
		c0,1.74,0.359,3.062,1.079,3.961s1.722,1.35,3.008,1.35c1.269,0,2.265-0.445,2.989-1.338
		C231.746,95.711,232.108,94.387,232.108,92.629z"/>
</g>
<g enable-background="new    ">
	<path d="M246.822,88.227h-0.127c-0.355-0.084-0.7-0.144-1.034-0.181c-0.335-0.038-0.729-0.056-1.187-0.056
		c-0.736,0-1.447,0.159-2.132,0.479c-0.686,0.318-1.345,0.731-1.979,1.237v9.862h-2.387V85.676h2.387v2.053
		c0.947-0.746,1.783-1.275,2.506-1.586c0.724-0.311,1.461-0.467,2.215-0.467c0.414,0,0.715,0.012,0.9,0.031
		c0.187,0.021,0.466,0.061,0.838,0.119V88.227z"/>
</g>
<g enable-background="new    ">
	<path d="M257.312,99.443c-0.448,0.117-0.937,0.212-1.466,0.287c-0.528,0.074-1,0.111-1.414,0.111c-1.447,0-2.547-0.381-3.301-1.145
		c-0.752-0.762-1.129-1.984-1.129-3.668v-7.388h-1.611v-1.966h1.611v-3.992h2.386v3.992h4.924v1.966h-4.924v6.33
		c0,0.729,0.017,1.3,0.051,1.71s0.152,0.795,0.355,1.15c0.187,0.332,0.442,0.574,0.768,0.729c0.325,0.152,0.823,0.229,1.491,0.229
		c0.389,0,0.795-0.056,1.219-0.168c0.422-0.112,0.727-0.205,0.914-0.28h0.126V99.443z"/>
</g>
<g enable-background="new    ">
	<path d="M271.762,99.568h-2.385v-1.542c-0.805,0.622-1.574,1.099-2.311,1.431c-0.736,0.331-1.548,0.497-2.436,0.497
		c-1.49,0-2.648-0.446-3.479-1.337c-0.828-0.892-1.243-2.199-1.243-3.924v-9.018h2.386v7.91c0,0.705,0.033,1.309,0.102,1.811
		c0.068,0.501,0.211,0.93,0.432,1.287c0.229,0.364,0.524,0.629,0.889,0.795c0.363,0.166,0.893,0.249,1.586,0.249
		c0.617,0,1.293-0.157,2.023-0.473c0.732-0.315,1.416-0.717,2.051-1.206V85.676h2.385V99.568z"/>
</g>
<g enable-background="new    ">
	<path d="M287.816,99.568h-2.386v-7.91c0-0.639-0.038-1.237-0.114-1.797s-0.216-0.996-0.419-1.312
		c-0.212-0.348-0.517-0.607-0.913-0.777c-0.398-0.17-0.914-0.254-1.549-0.254c-0.651,0-1.332,0.157-2.043,0.473
		c-0.711,0.314-1.393,0.717-2.043,1.206v10.372h-2.387V85.676h2.387v1.543c0.744-0.605,1.514-1.078,2.31-1.418
		c0.795-0.34,1.611-0.51,2.449-0.51c1.53,0,2.698,0.452,3.503,1.355c0.803,0.904,1.205,2.205,1.205,3.905V99.568z"/>
</g>
<g enable-background="new    ">
	<path d="M294.454,83.351h-2.69v-2.425h2.69V83.351z M294.302,99.568h-2.386V85.676h2.386V99.568z"/>
</g>
<g enable-background="new    ">
	<path d="M306.02,99.443c-0.448,0.117-0.938,0.212-1.465,0.287c-0.529,0.074-1.002,0.111-1.416,0.111
		c-1.446,0-2.547-0.381-3.299-1.145c-0.754-0.762-1.13-1.984-1.13-3.668v-7.388h-1.612v-1.966h1.612v-3.992h2.386v3.992h4.924v1.966
		h-4.924v6.33c0,0.729,0.018,1.3,0.051,1.71s0.152,0.795,0.355,1.15c0.186,0.332,0.441,0.574,0.768,0.729
		c0.326,0.152,0.822,0.229,1.491,0.229c0.39,0,0.796-0.056,1.218-0.168c0.424-0.112,0.729-0.205,0.914-0.28h0.127V99.443z"/>
</g>
<g enable-background="new    ">
	<path d="M311.229,83.351h-2.69v-2.425h2.69V83.351z M311.077,99.568h-2.386V85.676h2.386V99.568z"/>
</g>
<g enable-background="new    ">
	<path d="M327.299,92.865h-10.443c0,0.854,0.131,1.598,0.393,2.232c0.263,0.634,0.622,1.154,1.079,1.561
		c0.44,0.398,0.962,0.696,1.567,0.896c0.604,0.198,1.271,0.298,1.998,0.298c0.965,0,1.936-0.188,2.913-0.565
		c0.978-0.377,1.673-0.748,2.087-1.112h0.127v2.549c-0.803,0.332-1.624,0.609-2.461,0.834c-0.838,0.223-1.719,0.335-2.641,0.335
		c-2.352,0-4.188-0.624-5.508-1.872c-1.319-1.247-1.979-3.02-1.979-5.316c0-2.271,0.632-4.074,1.896-5.41
		c1.266-1.334,2.93-2.002,4.994-2.002c1.912,0,3.386,0.547,4.422,1.642c1.037,1.095,1.555,2.649,1.555,4.663V92.865z
		 M324.977,91.074c-0.008-1.227-0.323-2.177-0.945-2.848c-0.621-0.672-1.566-1.008-2.836-1.008c-1.277,0-2.295,0.369-3.053,1.107
		c-0.757,0.737-1.186,1.653-1.287,2.748H324.977z"/>
</g>
<g enable-background="new    ">
	<path d="M341.069,95.563c0,1.269-0.535,2.31-1.604,3.122c-1.071,0.812-2.533,1.219-4.385,1.219c-1.05,0-2.012-0.123-2.888-0.367
		s-1.609-0.512-2.202-0.803v-2.623h0.127c0.754,0.555,1.591,0.996,2.514,1.324c0.922,0.328,1.806,0.491,2.652,0.491
		c1.049,0,1.869-0.166,2.461-0.497c0.592-0.332,0.889-0.854,0.889-1.567c0-0.548-0.16-0.962-0.482-1.243
		c-0.321-0.282-0.939-0.523-1.853-0.723c-0.339-0.074-0.78-0.161-1.326-0.26c-0.546-0.1-1.043-0.208-1.491-0.324
		c-1.244-0.323-2.125-0.798-2.646-1.424c-0.52-0.626-0.779-1.395-0.779-2.307c0-0.572,0.12-1.111,0.361-1.617
		c0.24-0.506,0.607-0.957,1.098-1.355c0.474-0.39,1.076-0.699,1.809-0.927c0.731-0.228,1.55-0.342,2.455-0.342
		c0.846,0,1.703,0.102,2.57,0.305s1.588,0.45,2.164,0.739v2.5h-0.127c-0.609-0.439-1.35-0.811-2.221-1.113
		c-0.872-0.302-1.727-0.453-2.564-0.453c-0.871,0-1.607,0.164-2.208,0.491s-0.901,0.814-0.901,1.461
		c0,0.572,0.182,1.003,0.547,1.294c0.354,0.29,0.93,0.526,1.725,0.709c0.44,0.1,0.934,0.199,1.479,0.298
		c0.547,0.1,1.001,0.19,1.365,0.274c1.107,0.248,1.963,0.676,2.562,1.28C340.77,93.74,341.069,94.553,341.069,95.563z"/>
</g>
<g enable-background="new    ">
	<path d="M356.184,83.351h-2.69v-2.425h2.69V83.351z M356.031,99.568h-2.386V85.676h2.386V99.568z"/>
</g>
<g enable-background="new    ">
	<path d="M372.086,99.568h-2.387v-7.91c0-0.639-0.037-1.237-0.113-1.797s-0.217-0.996-0.42-1.312
		c-0.211-0.348-0.516-0.607-0.913-0.777s-0.913-0.254-1.548-0.254c-0.652,0-1.333,0.157-2.043,0.473
		c-0.711,0.314-1.393,0.717-2.044,1.206v10.372h-2.386V85.676h2.386v1.543c0.745-0.605,1.515-1.078,2.31-1.418
		s1.611-0.51,2.449-0.51c1.531,0,2.699,0.452,3.503,1.355c0.804,0.904,1.206,2.205,1.206,3.905V99.568z"/>
</g>
<g enable-background="new    ">
	<path d="M396.833,99.568h-2.374v-1.48c-0.211,0.142-0.496,0.338-0.855,0.592c-0.36,0.252-0.709,0.453-1.047,0.603
		c-0.398,0.19-0.855,0.351-1.371,0.479c-0.516,0.128-1.121,0.192-1.814,0.192c-1.277,0-2.361-0.415-3.249-1.243
		c-0.888-0.83-1.333-1.887-1.333-3.172c0-1.053,0.23-1.904,0.691-2.557c0.462-0.65,1.119-1.162,1.975-1.535
		c0.862-0.373,1.898-0.626,3.108-0.759c1.21-0.132,2.509-0.231,3.896-0.298v-0.361c0-0.53-0.094-0.971-0.285-1.318
		c-0.189-0.348-0.463-0.621-0.818-0.82c-0.338-0.191-0.744-0.319-1.219-0.386c-0.473-0.066-0.969-0.1-1.484-0.1
		c-0.626,0-1.324,0.081-2.094,0.243c-0.77,0.161-1.565,0.396-2.386,0.702h-0.127v-2.376c0.466-0.124,1.138-0.261,2.018-0.41
		c0.88-0.148,1.747-0.224,2.602-0.224c0.999,0,1.868,0.081,2.608,0.242c0.74,0.162,1.381,0.438,1.922,0.827
		c0.533,0.381,0.939,0.875,1.219,1.48s0.419,1.355,0.419,2.25V99.568z M394.459,96.148V92.28c-0.727,0.042-1.584,0.104-2.569,0.187
		c-0.985,0.083-1.767,0.203-2.341,0.361c-0.686,0.19-1.24,0.486-1.662,0.889c-0.424,0.402-0.635,0.955-0.635,1.66
		c0,0.797,0.244,1.396,0.735,1.797c0.491,0.402,1.239,0.604,2.247,0.604c0.837,0,1.603-0.159,2.297-0.479
		C393.225,96.979,393.867,96.596,394.459,96.148z"/>
</g>
<g enable-background="new    ">
	<path d="M409.804,88.227h-0.127c-0.354-0.084-0.7-0.144-1.034-0.181c-0.334-0.038-0.729-0.056-1.187-0.056
		c-0.735,0-1.446,0.159-2.132,0.479c-0.686,0.318-1.346,0.731-1.98,1.237v9.862h-2.385V85.676h2.385v2.053
		c0.948-0.746,1.783-1.275,2.507-1.586s1.462-0.467,2.215-0.467c0.414,0,0.715,0.012,0.901,0.031
		c0.186,0.021,0.465,0.061,0.837,0.119V88.227z"/>
</g>
<g enable-background="new    ">
	<path d="M420.294,99.443c-0.448,0.117-0.937,0.212-1.466,0.287c-0.528,0.074-1,0.111-1.414,0.111c-1.447,0-2.547-0.381-3.301-1.145
		c-0.752-0.762-1.129-1.984-1.129-3.668v-7.388h-1.611v-1.966h1.611v-3.992h2.386v3.992h4.924v1.966h-4.924v6.33
		c0,0.729,0.017,1.3,0.051,1.71s0.152,0.795,0.355,1.15c0.187,0.332,0.442,0.574,0.768,0.729c0.325,0.152,0.823,0.229,1.491,0.229
		c0.389,0,0.795-0.056,1.219-0.168c0.422-0.112,0.727-0.205,0.914-0.28h0.126V99.443z"/>
</g>
</svg>
