<?xml version="1.0" encoding="UTF-8" standalone="no"?>
<svg
   xmlns:dc="http://purl.org/dc/elements/1.1/"
   xmlns:cc="http://creativecommons.org/ns#"
   xmlns:rdf="http://www.w3.org/1999/02/22-rdf-syntax-ns#"
   xmlns:svg="http://www.w3.org/2000/svg"
   xmlns="http://www.w3.org/2000/svg"
   xml:space="preserve"
   enable-background="new 0 0 470 130"
   viewBox="0 0 470 130"
   height="130px"
   width="470px"
   y="0px"
   x="0px"
   id="Layer_1"
   version="1.1"><metadata
     id="metadata182"><rdf:RDF><cc:Work
         rdf:about=""><dc:format>image/svg+xml</dc:format><dc:type
           rdf:resource="http://purl.org/dc/dcmitype/StillImage" /><dc:title></dc:title></cc:Work></rdf:RDF></metadata><defs
     id="defs180" /><text
     id="text89"
     font-size="38.7855"
     font-family="'Verdana'"
     fill="#0000FF"
     transform="matrix(1.0309 0 0 1 -1.7749 48.9854)">a</text>
<text
     id="text91"
     letter-spacing="1.94"
     font-size="38.7855"
     font-family="'Verdana'"
     fill="#0000FF"
     transform="matrix(1.0309 0 0 1 24.9976 48.9854)">r</text>
<text
     id="text93"
     letter-spacing="0.97"
     font-size="38.7855"
     font-family="'Verdana'"
     fill="#0000FF"
     transform="matrix(1.0309 0 0 1 46.9795 48.9854)">t</text>
<text
     id="text95"
     letter-spacing="0.97"
     font-size="38.7855"
     font-family="'Verdana'"
     fill="#0000FF"
     transform="matrix(1.0309 0 0 1 65.7739 48.9854)">e</text>
<text
     id="text97"
     letter-spacing="0.97"
     font-size="38.7855"
     font-family="'Verdana'"
     fill="#0000FF"
     transform="matrix(1.0309 0 0 1 92.8711 48.9854)">n</text>
<text
     id="text99"
     font-size="38.7855"
     font-family="'Verdana'"
     fill="#0000FF"
     transform="matrix(1.0309 0 0 1 121.2124 48.9854)">d</text>
<text
     id="text101"
     font-size="38.7855"
     font-family="'Verdana'"
     fill="#0000FF"
     transform="matrix(1.0309 0 0 1 148.8828 48.9854)">a</text>
<text
     id="text103"
     font-size="38.7855"
     font-family="'Helvetica'"
     transform="matrix(1.0309 0 0 1 175.9199 48.9854)">.</text>
<text
     id="text105"
     font-size="38.7855"
     font-family="'Verdana'"
     transform="matrix(1.0309 0 0 1 189.1084 48.9854)">n</text>
<text
     id="text107"
     letter-spacing="0.97"
     font-size="38.7855"
     font-family="'Verdana'"
     transform="matrix(1.0309 0 0 1 217.4097 48.9854)">e</text>
<text
     id="text109"
     letter-spacing="0.97"
     font-size="38.7855"
     font-family="'Verdana'"
     transform="matrix(1.0309 0 0 1 244.4678 48.9854)">t </text>
<text
     id="text111"
     font-size="38.7855"
     font-family="'Verdana'"
     transform="matrix(1.0309 0 0 1 281.6357 48.9854)" />
<text
     id="text113"
     letter-spacing="0.97"
     font-size="38.7855"
     font-family="'Verdana'"
     fill="#0000FF"
     transform="matrix(1.0309 0 0 1 299.5156 48.9854)">b</text>
<text
     id="text115"
     letter-spacing="0.97"
     font-size="38.7855"
     font-family="'Verdana'"
     fill="#0000FF"
     transform="matrix(1.0309 0 0 1 327.5859 48.9854)">e</text>
<text
     id="text117"
     letter-spacing="0.97"
     font-size="38.7855"
     font-family="'Verdana'"
     fill="#0000FF"
     transform="matrix(1.0309 0 0 1 354.5234 48.9854)">t</text>
<text
     id="text119"
     font-size="38.7855"
     font-family="'Verdana'"
     fill="#0000FF"
     transform="matrix(1.0309 0 0 1 373.958 48.9854)">a</text>
<text
     id="text121"
     font-size="25.4705"
     font-family="'Verdana'"
     transform="matrix(1.0204 0 0 1 -1.7749 94.5684)">D</text>
<text
     id="text123"
     font-size="25.4705"
     font-family="'Verdana'"
     transform="matrix(1.0204 0 0 1 17.7568 94.5684)">a</text>
<text
     id="text125"
     font-size="25.4705"
     font-family="'Verdana'"
     transform="matrix(1.0204 0 0 1 32.8984 94.5684)">t</text>
<text
     id="text127"
     font-size="25.4705"
     font-family="'Verdana'"
     transform="matrix(1.0204 0 0 1 43.2949 94.5684)">a</text>
<text
     id="text129"
     font-size="25.4705"
     font-family="'Verdana'"
     transform="matrix(1.0204 0 0 1 58.437 94.5684)">ba</text>
<text
     id="text131"
     font-size="25.4705"
     font-family="'Verdana'"
     transform="matrix(1.0204 0 0 1 89.8232 94.5684)">s</text>
<text
     id="text133"
     font-size="25.4705"
     font-family="'Verdana'"
     transform="matrix(1.0204 0 0 1 103.2866 94.5684)">e </text>
<text
     id="text135"
     font-size="25.4705"
     font-family="'Verdana'"
     transform="matrix(1.0204 0 0 1 127.9058 94.5684)">f</text>
<text
     id="text137"
     font-size="25.4705"
     font-family="'Verdana'"
     transform="matrix(1.0204 0 0 1 136.9902 94.5684)">o</text>
<text
     font-family="'Verdana'"
     id="text139"
     font-size="25.4705"
     transform="matrix(1.0204 0 0 1 152.479 94.5684)">r </text>
<text
     id="text141"
     font-size="25.4705"
     font-family="'Verdana'"
     transform="matrix(1.0204 0 0 1 172.7075 94.5684)">o</text>
<text
     id="text143"
     font-size="25.4705"
     font-family="'Verdana'"
     transform="matrix(1.0204 0 0 1 188.1963 94.5684)">p</text>
<text
     id="text145"
     font-size="25.4705"
     font-family="'Verdana'"
     transform="matrix(1.0204 0 0 1 204.0776 94.5684)">p</text>
<text
     id="text147"
     font-size="25.4705"
     font-family="'Verdana'"
     transform="matrix(1.0204 0 0 1 220.1406 94.5684)">o</text>
<text
     id="text149"
     font-size="25.4705"
     font-family="'Verdana'"
     transform="matrix(1.0204 0 0 1 235.6289 94.5684)">r</text>
<text
     id="text151"
     font-size="25.4705"
     font-family="'Verdana'"
     transform="matrix(1.0204 0 0 1 247.6035 94.5684)">t</text>
<text
     id="text153"
     font-size="25.4705"
     font-family="'Verdana'"
     transform="matrix(1.0204 0 0 1 257.6631 94.5684)">u</text>
<text
     id="text155"
     font-size="25.4705"
     font-family="'Verdana'"
     transform="matrix(1.0204 0 0 1 273.6152 94.5684)">n</text>
<text
     id="text157"
     font-size="25.4705"
     font-family="'Verdana'"
     transform="matrix(1.0204 0 0 1 289.543 94.5684)">i</text>
<text
     id="text159"
     font-size="25.4705"
     font-family="'Verdana'"
     transform="matrix(1.0204 0 0 1 296.3115 94.5684)">t</text>
<text
     id="text161"
     font-size="25.4705"
     font-family="'Verdana'"
     transform="matrix(1.0204 0 0 1 306.3184 94.5684)">i</text>
<text
     id="text163"
     font-size="25.4705"
     font-family="'Verdana'"
     transform="matrix(1.0204 0 0 1 313.0859 94.5684)">e</text>
<text
     id="text165"
     font-size="25.4705"
     font-family="'Verdana'"
     transform="matrix(1.0204 0 0 1 328.5947 94.5684)">s </text>
<text
     id="text167"
     font-size="25.4705"
     font-family="'Verdana'"
     transform="matrix(1.0204 0 0 1 351.2725 94.5684)">i</text>
<text
     id="text169"
     font-size="25.4705"
     font-family="'Verdana'"
     transform="matrix(1.0204 0 0 1 357.8848 94.5684)">n </text>
<text
     id="text171"
     font-size="25.4705"
     font-family="'Verdana'"
     transform="matrix(1.0204 0 0 1 383.4697 94.5684)">a</text>
<text
     id="text173"
     font-size="25.4705"
     font-family="'Verdana'"
     transform="matrix(1.0204 0 0 1 398.6113 94.5684)">r</text>
<text
     id="text175"
     font-size="25.4705"
     font-family="'Verdana'"
     transform="matrix(1.0204 0 0 1 410.5859 94.5684)">t</text>
</svg>