<?xml version="1.0" encoding="utf-8"?>
<!-- Generator: Adobe Illustrator 15.0.0, SVG Export Plug-In . SVG Version: 6.00 Build 0)  -->
<!DOCTYPE svg PUBLIC "-//W3C//DTD SVG 1.1//EN" "http://www.w3.org/Graphics/SVG/1.1/DTD/svg11.dtd">
<svg version="1.1" id="Layer_1" xmlns="http://www.w3.org/2000/svg" xmlns:xlink="http://www.w3.org/1999/xlink" x="0px" y="0px"
	 width="422.814px" height="102.667px" viewBox="0 0 422.814 102.667" enable-background="new 0 0 422.814 102.667"
	 xml:space="preserve">
<g>
	<path fill="#1922FA" d="M19.398,42.506h-3.652v-2.254c-0.326,0.215-0.765,0.515-1.318,0.9c-0.554,0.385-1.091,0.691-1.611,0.919
		c-0.612,0.291-1.315,0.533-2.109,0.729c-0.794,0.196-1.726,0.294-2.793,0.294c-1.966,0-3.633-0.631-5-1.895
		c-1.367-1.263-2.051-2.873-2.051-4.831c0-1.604,0.354-2.902,1.064-3.894c0.709-0.991,1.722-1.771,3.037-2.339
		c1.328-0.568,2.923-0.954,4.785-1.156c1.862-0.202,3.86-0.354,5.996-0.455v-0.55c0-0.808-0.146-1.478-0.439-2.008
		c-0.293-0.531-0.713-0.947-1.26-1.25c-0.521-0.291-1.146-0.486-1.875-0.587c-0.729-0.101-1.491-0.151-2.285-0.151
		c-0.964,0-2.038,0.123-3.223,0.369c-1.185,0.247-2.409,0.604-3.672,1.07H2.797v-3.618c0.716-0.189,1.751-0.398,3.105-0.625
		c1.354-0.227,2.688-0.341,4.004-0.341c1.536,0,2.874,0.123,4.014,0.369c1.139,0.247,2.125,0.667,2.959,1.26
		c0.82,0.581,1.445,1.333,1.875,2.254s0.645,2.065,0.645,3.429V42.506z M15.746,37.296v-5.892c-1.12,0.063-2.438,0.158-3.955,0.284
		c-1.517,0.126-2.718,0.31-3.604,0.549c-1.055,0.291-1.908,0.742-2.559,1.355c-0.651,0.613-0.977,1.456-0.977,2.529
		c0,1.213,0.377,2.125,1.133,2.738c0.755,0.613,1.907,0.919,3.457,0.919c1.289,0,2.467-0.243,3.535-0.729
		C13.845,38.562,14.834,37.978,15.746,37.296z"/>
	<path fill="#1922FA" d="M42.882,25.228h-0.195c-0.547-0.126-1.078-0.218-1.592-0.274c-0.515-0.057-1.123-0.085-1.826-0.085
		c-1.133,0-2.227,0.244-3.281,0.729c-1.055,0.486-2.07,1.115-3.047,1.885v15.023h-3.672V21.344h3.672v3.126
		c1.458-1.137,2.744-1.942,3.857-2.416s2.249-0.71,3.408-0.71c0.638,0,1.1,0.016,1.387,0.047c0.286,0.032,0.716,0.092,1.289,0.18
		V25.228z"/>
</g>
<g>
	<path fill="#1922FA" d="M62.586,42.316c-0.69,0.177-1.442,0.322-2.256,0.436c-0.814,0.114-1.54,0.171-2.178,0.171
		c-2.227,0-3.919-0.581-5.078-1.743c-1.159-1.162-1.738-3.025-1.738-5.589V24.337h-2.48v-2.994h2.48v-6.081h3.672v6.081h7.578v2.994
		h-7.578v9.643c0,1.111,0.026,1.98,0.078,2.605c0.052,0.625,0.234,1.209,0.547,1.752c0.286,0.505,0.68,0.875,1.182,1.108
		c0.501,0.234,1.266,0.351,2.295,0.351c0.599,0,1.224-0.085,1.875-0.256c0.651-0.17,1.12-0.312,1.406-0.426h0.195V42.316z"/>
	<path fill="#1922FA" d="M88.361,32.294H72.287c0,1.301,0.202,2.435,0.605,3.4c0.403,0.966,0.957,1.759,1.66,2.378
		c0.677,0.606,1.481,1.061,2.412,1.364c0.931,0.303,1.956,0.455,3.076,0.455c1.484,0,2.979-0.287,4.482-0.862
		c1.504-0.575,2.575-1.14,3.213-1.695h0.195v3.884c-1.237,0.505-2.5,0.928-3.789,1.269c-1.289,0.341-2.644,0.512-4.062,0.512
		c-3.62,0-6.445-0.95-8.477-2.852c-2.031-1.9-3.047-4.6-3.047-8.099c0-3.46,0.973-6.208,2.92-8.241
		c1.946-2.033,4.508-3.05,7.686-3.05c2.942,0,5.211,0.833,6.807,2.5c1.595,1.667,2.393,4.036,2.393,7.104V32.294z M84.787,29.566
		c-0.013-1.869-0.498-3.315-1.455-4.339c-0.957-1.023-2.412-1.534-4.365-1.534c-1.966,0-3.532,0.562-4.697,1.686
		c-1.166,1.124-1.826,2.52-1.982,4.187H84.787z"/>
	<path fill="#1922FA" d="M115.25,42.506h-3.672V30.457c0-0.972-0.059-1.885-0.176-2.737s-0.332-1.519-0.645-1.999
		c-0.326-0.53-0.794-0.925-1.406-1.184c-0.612-0.259-1.406-0.388-2.383-0.388c-1.003,0-2.051,0.24-3.145,0.72
		c-1.094,0.48-2.142,1.093-3.145,1.838v15.8h-3.672V21.344h3.672v2.35c1.146-0.922,2.331-1.642,3.555-2.16
		c1.224-0.518,2.48-0.776,3.77-0.776c2.356,0,4.153,0.688,5.391,2.065c1.237,1.376,1.855,3.36,1.855,5.949V42.506z"/>
	<path fill="#1922FA" d="M143.096,42.506h-3.672v-2.217c-1.055,0.884-2.155,1.573-3.301,2.065c-1.146,0.492-2.39,0.739-3.73,0.739
		c-2.604,0-4.671-0.973-6.201-2.917c-1.53-1.945-2.295-4.642-2.295-8.09c0-1.793,0.264-3.391,0.791-4.793
		c0.527-1.402,1.24-2.596,2.139-3.581c0.885-0.959,1.917-1.692,3.096-2.197c1.178-0.505,2.399-0.758,3.662-0.758
		c1.146,0,2.161,0.117,3.047,0.35c0.885,0.234,1.816,0.597,2.793,1.089v-9.169h3.672V42.506z M139.424,37.296V25.152
		c-0.99-0.429-1.875-0.726-2.656-0.89s-1.634-0.247-2.559-0.247c-2.058,0-3.659,0.695-4.805,2.084
		c-1.146,1.39-1.719,3.36-1.719,5.911c0,2.513,0.442,4.424,1.328,5.731c0.885,1.307,2.305,1.961,4.258,1.961
		c1.042,0,2.096-0.224,3.164-0.673C137.503,38.581,138.499,38.003,139.424,37.296z"/>
</g>
<g>
	<path fill="#1922FA" d="M170.25,42.506h-3.652v-2.254c-0.326,0.215-0.765,0.515-1.318,0.9c-0.554,0.385-1.091,0.691-1.611,0.919
		c-0.612,0.291-1.315,0.533-2.109,0.729c-0.794,0.196-1.726,0.294-2.793,0.294c-1.966,0-3.633-0.631-5-1.895
		c-1.367-1.263-2.051-2.873-2.051-4.831c0-1.604,0.354-2.902,1.064-3.894c0.709-0.991,1.722-1.771,3.037-2.339
		c1.328-0.568,2.923-0.954,4.785-1.156c1.862-0.202,3.86-0.354,5.996-0.455v-0.55c0-0.808-0.146-1.478-0.439-2.008
		c-0.293-0.531-0.713-0.947-1.26-1.25c-0.521-0.291-1.146-0.486-1.875-0.587c-0.729-0.101-1.491-0.151-2.285-0.151
		c-0.964,0-2.038,0.123-3.223,0.369c-1.185,0.247-2.409,0.604-3.672,1.07h-0.195v-3.618c0.716-0.189,1.751-0.398,3.105-0.625
		c1.354-0.227,2.688-0.341,4.004-0.341c1.536,0,2.874,0.123,4.014,0.369c1.139,0.247,2.125,0.667,2.959,1.26
		c0.82,0.581,1.445,1.333,1.875,2.254s0.645,2.065,0.645,3.429V42.506z M166.598,37.296v-5.892c-1.12,0.063-2.438,0.158-3.955,0.284
		c-1.517,0.126-2.718,0.31-3.604,0.549c-1.055,0.291-1.908,0.742-2.559,1.355c-0.651,0.613-0.977,1.456-0.977,2.529
		c0,1.213,0.377,2.125,1.133,2.738c0.755,0.613,1.907,0.919,3.457,0.919c1.289,0,2.467-0.243,3.535-0.729
		C164.696,38.562,165.686,37.978,166.598,37.296z"/>
	<path fill="#1922FA" d="M183.33,42.506h-3.97v-4.592h3.97V42.506z"/>
	<path fill="#1922FA" d="M210.838,42.506h-3.672V30.457c0-0.972-0.059-1.885-0.176-2.737s-0.332-1.519-0.645-1.999
		c-0.326-0.53-0.794-0.925-1.406-1.184c-0.612-0.259-1.406-0.388-2.383-0.388c-1.003,0-2.051,0.24-3.145,0.72
		c-1.094,0.48-2.142,1.093-3.145,1.838v15.8h-3.672V21.344h3.672v2.35c1.146-0.922,2.331-1.642,3.555-2.16
		c1.224-0.518,2.48-0.776,3.77-0.776c2.356,0,4.153,0.688,5.391,2.065c1.237,1.376,1.855,3.36,1.855,5.949V42.506z"/>
	<path fill="#1922FA" d="M236.17,32.294h-16.074c0,1.301,0.201,2.435,0.605,3.4c0.403,0.966,0.957,1.759,1.66,2.378
		c0.677,0.606,1.48,1.061,2.412,1.364c0.931,0.303,1.956,0.455,3.076,0.455c1.484,0,2.979-0.287,4.482-0.862
		c1.504-0.575,2.574-1.14,3.213-1.695h0.195v3.884c-1.237,0.505-2.5,0.928-3.789,1.269c-1.289,0.341-2.644,0.512-4.062,0.512
		c-3.62,0-6.445-0.95-8.477-2.852c-2.031-1.9-3.047-4.6-3.047-8.099c0-3.46,0.973-6.208,2.92-8.241
		c1.946-2.033,4.508-3.05,7.686-3.05c2.942,0,5.211,0.833,6.807,2.5c1.595,1.667,2.393,4.036,2.393,7.104V32.294z M232.596,29.566
		c-0.014-1.869-0.498-3.315-1.455-4.339c-0.957-1.023-2.412-1.534-4.365-1.534c-1.967,0-3.532,0.562-4.697,1.686
		c-1.166,1.124-1.826,2.52-1.982,4.187H232.596z"/>
	<path fill="#1922FA" d="M253.064,42.316c-0.69,0.177-1.442,0.322-2.256,0.436c-0.814,0.114-1.54,0.171-2.178,0.171
		c-2.227,0-3.92-0.581-5.078-1.743c-1.159-1.162-1.738-3.025-1.738-5.589V24.337h-2.48v-2.994h2.48v-6.081h3.672v6.081h7.578v2.994
		h-7.578v9.643c0,1.111,0.025,1.98,0.078,2.605c0.052,0.625,0.234,1.209,0.547,1.752c0.286,0.505,0.68,0.875,1.182,1.108
		c0.501,0.234,1.266,0.351,2.295,0.351c0.599,0,1.224-0.085,1.875-0.256c0.65-0.17,1.119-0.312,1.406-0.426h0.195V42.316z"/>
</g>
<g>
	<path fill="#1922FA" d="M23.372,65.574L18.459,84.1h-2.831l-3.974-15.378L7.77,84.1H5.002L0,65.574h2.577l3.974,15.403l3.91-15.403
		h2.552l3.948,15.552l3.948-15.552H23.372z"/>
	<path fill="#1922FA" d="M38.629,77.394H28.181c0,0.854,0.131,1.599,0.394,2.233c0.262,0.634,0.622,1.155,1.079,1.562
		c0.44,0.398,0.963,0.697,1.568,0.896c0.605,0.199,1.271,0.299,2,0.299c0.965,0,1.936-0.188,2.914-0.566
		c0.978-0.377,1.674-0.748,2.088-1.113h0.127v2.55c-0.804,0.332-1.625,0.61-2.463,0.834c-0.838,0.225-1.718,0.336-2.641,0.336
		c-2.353,0-4.189-0.624-5.51-1.872c-1.32-1.249-1.98-3.021-1.98-5.319c0-2.271,0.633-4.076,1.898-5.412
		c1.265-1.334,2.931-2.002,4.996-2.002c1.913,0,3.388,0.547,4.424,1.642s1.555,2.65,1.555,4.665V77.394z M36.306,75.603
		c-0.008-1.229-0.324-2.178-0.946-2.85s-1.568-1.008-2.837-1.008c-1.278,0-2.296,0.369-3.053,1.107s-1.187,1.654-1.289,2.75H36.306z
		"/>
	<path fill="#1922FA" d="M71.821,84.1h-2.387v-7.913c0-0.597-0.027-1.174-0.083-1.729c-0.055-0.557-0.171-1-0.349-1.332
		c-0.195-0.356-0.474-0.626-0.838-0.809c-0.364-0.182-0.889-0.273-1.574-0.273c-0.668,0-1.337,0.164-2.006,0.491
		c-0.668,0.328-1.337,0.745-2.006,1.251c0.025,0.19,0.046,0.412,0.063,0.665s0.025,0.504,0.025,0.753V84.1h-2.387v-7.913
		c0-0.613-0.027-1.195-0.083-1.748c-0.055-0.551-0.171-0.992-0.349-1.324c-0.195-0.357-0.474-0.625-0.838-0.803
		s-0.889-0.268-1.574-0.268c-0.652,0-1.306,0.158-1.961,0.473c-0.656,0.315-1.31,0.718-1.961,1.207V84.1h-2.387V70.202h2.387v1.543
		c0.745-0.605,1.487-1.078,2.228-1.418s1.53-0.51,2.368-0.51c0.965,0,1.784,0.199,2.457,0.597s1.174,0.95,1.504,1.655
		c0.965-0.797,1.845-1.371,2.641-1.724s1.646-0.528,2.552-0.528c1.557,0,2.706,0.462,3.447,1.387s1.111,2.217,1.111,3.875V84.1z"/>
	<path fill="#1922FA" d="M87.306,84.1h-2.374v-1.48c-0.211,0.142-0.497,0.338-0.857,0.591c-0.36,0.254-0.709,0.454-1.047,0.604
		c-0.398,0.191-0.855,0.35-1.371,0.479s-1.122,0.193-1.815,0.193c-1.278,0-2.361-0.414-3.25-1.244s-1.333-1.887-1.333-3.173
		c0-1.054,0.23-1.905,0.692-2.557s1.119-1.163,1.974-1.536c0.863-0.373,1.9-0.627,3.11-0.76c1.21-0.132,2.509-0.231,3.897-0.298
		v-0.36c0-0.531-0.095-0.971-0.286-1.319s-0.463-0.622-0.819-0.821c-0.338-0.19-0.745-0.318-1.219-0.386
		c-0.474-0.065-0.969-0.099-1.485-0.099c-0.626,0-1.325,0.08-2.095,0.242s-1.566,0.396-2.387,0.703h-0.127v-2.377
		c0.465-0.124,1.138-0.262,2.019-0.41c0.88-0.149,1.748-0.225,2.603-0.225c0.999,0,1.868,0.081,2.609,0.243
		c0.741,0.161,1.382,0.438,1.923,0.827c0.533,0.382,0.939,0.875,1.219,1.48s0.419,1.356,0.419,2.252V84.1z M84.932,80.679V76.81
		c-0.728,0.041-1.585,0.104-2.571,0.186c-0.986,0.084-1.767,0.203-2.342,0.361c-0.686,0.191-1.24,0.487-1.663,0.89
		s-0.635,0.956-0.635,1.661c0,0.796,0.246,1.395,0.736,1.797s1.24,0.604,2.247,0.604c0.838,0,1.604-0.159,2.298-0.479
		S84.34,81.126,84.932,80.679z"/>
	<path fill="#1922FA" d="M104.358,84.1h-3.089l-5.58-5.97l-1.52,1.416V84.1h-2.342V65.105h2.342v12.183l6.764-6.824h2.952
		l-6.464,6.299L104.358,84.1z"/>
	<path fill="#1922FA" d="M118.609,77.394h-10.448c0,0.854,0.131,1.599,0.394,2.233c0.262,0.634,0.622,1.155,1.079,1.562
		c0.44,0.398,0.963,0.697,1.568,0.896c0.605,0.199,1.271,0.299,2,0.299c0.965,0,1.936-0.188,2.914-0.566
		c0.978-0.377,1.674-0.748,2.088-1.113h0.127v2.55c-0.804,0.332-1.625,0.61-2.463,0.834c-0.838,0.225-1.718,0.336-2.641,0.336
		c-2.353,0-4.189-0.624-5.51-1.872c-1.32-1.249-1.98-3.021-1.98-5.319c0-2.271,0.633-4.076,1.898-5.412
		c1.265-1.334,2.931-2.002,4.996-2.002c1.913,0,3.388,0.547,4.424,1.642s1.555,2.65,1.555,4.665V77.394z M116.286,75.603
		c-0.008-1.229-0.324-2.178-0.946-2.85s-1.568-1.008-2.837-1.008c-1.278,0-2.296,0.369-3.053,1.107s-1.187,1.654-1.289,2.75H116.286
		z"/>
	<path fill="#1922FA" d="M142.127,84.1h-2.374v-1.48c-0.211,0.142-0.497,0.338-0.857,0.591c-0.36,0.254-0.709,0.454-1.047,0.604
		c-0.398,0.191-0.855,0.35-1.371,0.479s-1.122,0.193-1.815,0.193c-1.278,0-2.361-0.414-3.25-1.244s-1.333-1.887-1.333-3.173
		c0-1.054,0.23-1.905,0.692-2.557s1.119-1.163,1.974-1.536c0.863-0.373,1.9-0.627,3.11-0.76c1.21-0.132,2.509-0.231,3.897-0.298
		v-0.36c0-0.531-0.095-0.971-0.286-1.319s-0.463-0.622-0.819-0.821c-0.338-0.19-0.745-0.318-1.219-0.386
		c-0.474-0.065-0.969-0.099-1.485-0.099c-0.626,0-1.325,0.08-2.095,0.242s-1.566,0.396-2.387,0.703h-0.127v-2.377
		c0.465-0.124,1.138-0.262,2.019-0.41c0.88-0.149,1.748-0.225,2.603-0.225c0.999,0,1.868,0.081,2.609,0.243
		c0.741,0.161,1.382,0.438,1.923,0.827c0.533,0.382,0.939,0.875,1.219,1.48s0.419,1.356,0.419,2.252V84.1z M139.753,80.679V76.81
		c-0.728,0.041-1.585,0.104-2.571,0.186c-0.986,0.084-1.767,0.203-2.342,0.361c-0.686,0.191-1.24,0.487-1.663,0.89
		s-0.635,0.956-0.635,1.661c0,0.796,0.246,1.395,0.736,1.797s1.24,0.604,2.247,0.604c0.838,0,1.604-0.159,2.298-0.479
		S139.161,81.126,139.753,80.679z"/>
	<path fill="#1922FA" d="M155.441,72.753h-0.127c-0.355-0.082-0.7-0.143-1.035-0.18c-0.334-0.038-0.73-0.057-1.187-0.057
		c-0.736,0-1.447,0.16-2.133,0.479c-0.686,0.32-1.346,0.732-1.98,1.238V84.1h-2.387V70.202h2.387v2.053
		c0.948-0.746,1.784-1.275,2.507-1.586s1.462-0.467,2.215-0.467c0.415,0,0.715,0.011,0.901,0.031
		c0.186,0.021,0.465,0.061,0.838,0.119V72.753z"/>
	<path fill="#1922FA" d="M166.69,83.976c-0.449,0.115-0.938,0.211-1.466,0.285c-0.529,0.075-1.001,0.113-1.416,0.113
		c-1.447,0-2.547-0.383-3.301-1.146s-1.13-1.986-1.13-3.67v-7.39h-1.612v-1.967h1.612v-3.993h2.387v3.993h4.926v1.967h-4.926v6.332
		c0,0.73,0.017,1.301,0.051,1.711s0.152,0.794,0.355,1.15c0.186,0.332,0.442,0.574,0.768,0.729c0.326,0.152,0.823,0.229,1.492,0.229
		c0.389,0,0.795-0.056,1.219-0.168s0.728-0.205,0.914-0.28h0.127V83.976z"/>
	<path fill="#1922FA" d="M190.539,77.157c0,2.265-0.592,4.052-1.777,5.362s-2.772,1.966-4.761,1.966
		c-2.006,0-3.599-0.655-4.78-1.966s-1.771-3.098-1.771-5.362c0-2.264,0.59-4.054,1.771-5.368c1.181-1.315,2.774-1.972,4.78-1.972
		c1.989,0,3.576,0.656,4.761,1.972C189.947,73.104,190.539,74.894,190.539,77.157z M188.076,77.157c0-1.8-0.36-3.137-1.079-4.012
		s-1.718-1.312-2.996-1.312c-1.295,0-2.3,0.438-3.015,1.312s-1.073,2.212-1.073,4.012c0,1.742,0.36,3.062,1.079,3.963
		s1.722,1.35,3.009,1.35c1.27,0,2.266-0.445,2.99-1.338C187.714,80.241,188.076,78.916,188.076,77.157z"/>
	<path fill="#1922FA" d="M206.583,76.983c0,1.128-0.165,2.158-0.495,3.092c-0.33,0.933-0.795,1.723-1.396,2.369
		c-0.559,0.614-1.217,1.09-1.974,1.426s-1.56,0.504-2.406,0.504c-0.736,0-1.403-0.08-2-0.237s-1.204-0.401-1.822-0.733v5.822h-2.387
		V70.202h2.387v1.456c0.635-0.522,1.348-0.96,2.139-1.312s1.636-0.528,2.533-0.528c1.709,0,3.041,0.632,3.993,1.896
		C206.106,72.979,206.583,74.735,206.583,76.983z M204.12,77.046c0-1.676-0.292-2.928-0.876-3.758s-1.481-1.244-2.691-1.244
		c-0.686,0-1.375,0.145-2.069,0.436c-0.694,0.29-1.358,0.672-1.993,1.145v7.875c0.677,0.299,1.259,0.502,1.746,0.609
		c0.487,0.108,1.039,0.162,1.657,0.162c1.329,0,2.366-0.439,3.11-1.318S204.12,78.771,204.12,77.046z"/>
	<path fill="#1922FA" d="M222.652,76.983c0,1.128-0.166,2.158-0.496,3.092c-0.33,0.933-0.795,1.723-1.396,2.369
		c-0.559,0.614-1.217,1.09-1.974,1.426s-1.56,0.504-2.405,0.504c-0.736,0-1.403-0.08-2-0.237s-1.204-0.401-1.822-0.733v5.822h-2.386
		V70.202h2.386v1.456c0.635-0.522,1.348-0.96,2.14-1.312s1.636-0.528,2.532-0.528c1.71,0,3.041,0.632,3.993,1.896
		C222.176,72.979,222.652,74.735,222.652,76.983z M220.189,77.046c0-1.676-0.293-2.928-0.877-3.758s-1.48-1.244-2.691-1.244
		c-0.686,0-1.375,0.145-2.068,0.436c-0.694,0.29-1.359,0.672-1.994,1.145v7.875c0.678,0.299,1.26,0.502,1.746,0.609
		c0.486,0.108,1.039,0.162,1.656,0.162c1.329,0,2.366-0.439,3.111-1.318C219.816,80.073,220.189,78.771,220.189,77.046z"/>
	<path fill="#1922FA" d="M238.328,77.157c0,2.265-0.593,4.052-1.777,5.362c-1.186,1.311-2.772,1.966-4.762,1.966
		c-2.006,0-3.599-0.655-4.779-1.966s-1.771-3.098-1.771-5.362c0-2.264,0.591-4.054,1.771-5.368c1.181-1.315,2.773-1.972,4.779-1.972
		c1.989,0,3.576,0.656,4.762,1.972C237.735,73.104,238.328,74.894,238.328,77.157z M235.865,77.157c0-1.8-0.36-3.137-1.08-4.012
		c-0.719-0.875-1.718-1.312-2.996-1.312c-1.295,0-2.299,0.438-3.015,1.312s-1.073,2.212-1.073,4.012c0,1.742,0.36,3.062,1.08,3.963
		c0.719,0.9,1.722,1.35,3.008,1.35c1.27,0,2.267-0.445,2.99-1.338C235.503,80.241,235.865,78.916,235.865,77.157z"/>
	<path fill="#1922FA" d="M250.74,72.753h-0.127c-0.355-0.082-0.699-0.143-1.034-0.18c-0.335-0.038-0.729-0.057-1.187-0.057
		c-0.736,0-1.447,0.16-2.133,0.479c-0.686,0.32-1.346,0.732-1.98,1.238V84.1h-2.387V70.202h2.387v2.053
		c0.947-0.746,1.783-1.275,2.507-1.586s1.462-0.467,2.216-0.467c0.414,0,0.715,0.011,0.9,0.031c0.187,0.021,0.466,0.061,0.838,0.119
		V72.753z"/>
	<path fill="#1922FA" d="M261.988,83.976c-0.448,0.115-0.938,0.211-1.466,0.285c-0.528,0.075-1.001,0.113-1.415,0.113
		c-1.447,0-2.548-0.383-3.301-1.146c-0.754-0.763-1.131-1.986-1.131-3.67v-7.39h-1.611v-1.967h1.611v-3.993h2.387v3.993h4.926v1.967
		h-4.926v6.332c0,0.73,0.018,1.301,0.051,1.711c0.034,0.41,0.152,0.794,0.355,1.15c0.187,0.332,0.443,0.574,0.769,0.729
		c0.325,0.152,0.823,0.229,1.491,0.229c0.39,0,0.796-0.056,1.219-0.168c0.424-0.112,0.729-0.205,0.914-0.28h0.127V83.976z"/>
	<path fill="#1922FA" d="M276.496,84.1h-2.387v-1.543c-0.804,0.622-1.574,1.099-2.311,1.431s-1.549,0.498-2.438,0.498
		c-1.489,0-2.648-0.445-3.479-1.338c-0.829-0.891-1.244-2.199-1.244-3.925v-9.021h2.387v7.913c0,0.705,0.034,1.309,0.102,1.81
		c0.068,0.502,0.212,0.932,0.432,1.289c0.229,0.364,0.525,0.63,0.889,0.795c0.364,0.166,0.894,0.25,1.588,0.25
		c0.617,0,1.293-0.158,2.024-0.473c0.731-0.316,1.415-0.718,2.05-1.207V70.202h2.387V84.1z"/>
	<path fill="#1922FA" d="M292.922,84.1h-2.387v-7.913c0-0.639-0.039-1.238-0.115-1.797c-0.076-0.561-0.215-0.998-0.418-1.312
		c-0.213-0.35-0.518-0.607-0.914-0.778c-0.398-0.17-0.914-0.255-1.549-0.255c-0.652,0-1.334,0.158-2.045,0.473
		c-0.711,0.315-1.392,0.718-2.043,1.207V84.1h-2.387V70.202h2.387v1.543c0.744-0.605,1.514-1.078,2.311-1.418
		c0.795-0.34,1.611-0.51,2.449-0.51c1.533,0,2.701,0.451,3.504,1.355c0.805,0.904,1.207,2.207,1.207,3.906V84.1z"/>
	<path fill="#1922FA" d="M299.952,67.876h-2.691V65.45h2.691V67.876z M299.8,84.1h-2.387V70.202h2.387V84.1z"/>
	<path fill="#1922FA" d="M311.756,83.976c-0.448,0.115-0.938,0.211-1.466,0.285c-0.529,0.075-1.001,0.113-1.416,0.113
		c-1.447,0-2.548-0.383-3.301-1.146s-1.13-1.986-1.13-3.67v-7.39h-1.612v-1.967h1.612v-3.993h2.387v3.993h4.926v1.967h-4.926v6.332
		c0,0.73,0.017,1.301,0.051,1.711s0.152,0.794,0.355,1.15c0.187,0.332,0.442,0.574,0.769,0.729c0.325,0.152,0.822,0.229,1.491,0.229
		c0.39,0,0.796-0.056,1.219-0.168s0.728-0.205,0.914-0.28h0.127V83.976z"/>
	<path fill="#1922FA" d="M317.071,67.876h-2.691V65.45h2.691V67.876z M316.919,84.1h-2.387V70.202h2.387V84.1z"/>
	<path fill="#1922FA" d="M333.382,77.394h-10.448c0,0.854,0.131,1.599,0.394,2.233c0.263,0.634,0.622,1.155,1.079,1.562
		c0.44,0.398,0.963,0.697,1.568,0.896c0.604,0.199,1.271,0.299,1.999,0.299c0.965,0,1.937-0.188,2.914-0.566
		c0.978-0.377,1.673-0.748,2.088-1.113h0.127v2.55c-0.804,0.332-1.625,0.61-2.463,0.834c-0.838,0.225-1.718,0.336-2.641,0.336
		c-2.353,0-4.189-0.624-5.51-1.872c-1.32-1.249-1.98-3.021-1.98-5.319c0-2.271,0.633-4.076,1.898-5.412
		c1.265-1.334,2.93-2.002,4.995-2.002c1.913,0,3.388,0.547,4.425,1.642c1.036,1.095,1.555,2.65,1.555,4.665V77.394z M331.059,75.603
		c-0.009-1.229-0.323-2.178-0.945-2.85s-1.568-1.008-2.838-1.008c-1.278,0-2.296,0.369-3.053,1.107
		c-0.758,0.738-1.188,1.654-1.289,2.75H331.059z"/>
	<path fill="#1922FA" d="M347.001,80.093c0,1.27-0.535,2.311-1.605,3.123c-1.071,0.813-2.533,1.22-4.387,1.22
		c-1.05,0-2.012-0.122-2.888-0.367s-1.61-0.512-2.203-0.802v-2.625h0.127c0.753,0.555,1.591,0.996,2.514,1.324
		s1.807,0.492,2.653,0.492c1.05,0,1.87-0.166,2.463-0.498s0.889-0.854,0.889-1.568c0-0.547-0.161-0.961-0.482-1.244
		c-0.321-0.281-0.939-0.521-1.854-0.721c-0.339-0.075-0.78-0.162-1.326-0.262s-1.044-0.207-1.492-0.323
		c-1.244-0.323-2.126-0.798-2.646-1.425c-0.521-0.626-0.781-1.396-0.781-2.308c0-0.573,0.121-1.112,0.362-1.618
		s0.606-0.957,1.098-1.355c0.474-0.39,1.077-0.699,1.81-0.927c0.731-0.228,1.551-0.343,2.456-0.343c0.847,0,1.703,0.102,2.571,0.305
		c0.867,0.204,1.589,0.451,2.164,0.74v2.502h-0.127c-0.609-0.439-1.35-0.812-2.222-1.114s-1.727-0.454-2.564-0.454
		c-0.872,0-1.608,0.164-2.209,0.492c-0.601,0.327-0.901,0.814-0.901,1.461c0,0.572,0.182,1.004,0.546,1.294
		c0.355,0.29,0.931,0.526,1.727,0.71c0.44,0.1,0.934,0.199,1.479,0.298c0.546,0.1,1,0.19,1.364,0.274
		c1.108,0.248,1.964,0.676,2.564,1.281C346.7,78.269,347.001,79.081,347.001,80.093z"/>
	<path fill="#1922FA" d="M371.167,77.394h-10.448c0,0.854,0.131,1.599,0.394,2.233c0.263,0.634,0.622,1.155,1.079,1.562
		c0.44,0.398,0.963,0.697,1.568,0.896c0.604,0.199,1.271,0.299,1.999,0.299c0.965,0,1.937-0.188,2.914-0.566
		c0.978-0.377,1.673-0.748,2.088-1.113h0.127v2.55c-0.804,0.332-1.625,0.61-2.463,0.834c-0.838,0.225-1.718,0.336-2.641,0.336
		c-2.353,0-4.189-0.624-5.51-1.872c-1.32-1.249-1.98-3.021-1.98-5.319c0-2.271,0.633-4.076,1.898-5.412
		c1.265-1.334,2.93-2.002,4.995-2.002c1.913,0,3.388,0.547,4.425,1.642c1.036,1.095,1.555,2.65,1.555,4.665V77.394z M368.844,75.603
		c-0.009-1.229-0.323-2.178-0.945-2.85s-1.568-1.008-2.838-1.008c-1.278,0-2.296,0.369-3.053,1.107
		c-0.758,0.738-1.188,1.654-1.289,2.75H368.844z"/>
	<path fill="#1922FA" d="M385.675,84.1h-2.374v-1.48c-0.212,0.142-0.497,0.338-0.856,0.591c-0.36,0.254-0.709,0.454-1.048,0.604
		c-0.397,0.191-0.854,0.35-1.371,0.479s-1.121,0.193-1.815,0.193c-1.278,0-2.361-0.414-3.25-1.244s-1.333-1.887-1.333-3.173
		c0-1.054,0.23-1.905,0.692-2.557c0.461-0.651,1.119-1.163,1.974-1.536c0.863-0.373,1.9-0.627,3.11-0.76
		c1.21-0.132,2.51-0.231,3.897-0.298v-0.36c0-0.531-0.095-0.971-0.285-1.319s-0.464-0.622-0.819-0.821
		c-0.339-0.19-0.745-0.318-1.219-0.386c-0.474-0.065-0.969-0.099-1.485-0.099c-0.626,0-1.324,0.08-2.095,0.242
		s-1.565,0.396-2.387,0.703h-0.127v-2.377c0.466-0.124,1.139-0.262,2.019-0.41c0.88-0.149,1.748-0.225,2.603-0.225
		c0.999,0,1.868,0.081,2.609,0.243c0.74,0.161,1.381,0.438,1.923,0.827c0.533,0.382,0.939,0.875,1.219,1.48s0.419,1.356,0.419,2.252
		V84.1z M383.301,80.679V76.81c-0.728,0.041-1.585,0.104-2.57,0.186c-0.986,0.084-1.768,0.203-2.343,0.361
		c-0.686,0.191-1.24,0.487-1.663,0.89s-0.635,0.956-0.635,1.661c0,0.796,0.245,1.395,0.736,1.797s1.24,0.604,2.247,0.604
		c0.838,0,1.604-0.159,2.298-0.479S382.708,81.126,383.301,80.679z"/>
	<path fill="#1922FA" d="M400.271,80.093c0,1.27-0.535,2.311-1.605,3.123c-1.071,0.813-2.533,1.22-4.387,1.22
		c-1.05,0-2.012-0.122-2.888-0.367s-1.61-0.512-2.203-0.802v-2.625h0.127c0.753,0.555,1.591,0.996,2.514,1.324
		s1.807,0.492,2.653,0.492c1.05,0,1.87-0.166,2.463-0.498s0.889-0.854,0.889-1.568c0-0.547-0.161-0.961-0.482-1.244
		c-0.321-0.281-0.939-0.521-1.854-0.721c-0.339-0.075-0.78-0.162-1.326-0.262s-1.044-0.207-1.492-0.323
		c-1.244-0.323-2.126-0.798-2.646-1.425c-0.521-0.626-0.781-1.396-0.781-2.308c0-0.573,0.121-1.112,0.362-1.618
		s0.606-0.957,1.098-1.355c0.474-0.39,1.077-0.699,1.81-0.927c0.731-0.228,1.551-0.343,2.456-0.343c0.847,0,1.703,0.102,2.571,0.305
		c0.867,0.204,1.589,0.451,2.164,0.74v2.502h-0.127c-0.609-0.439-1.35-0.812-2.222-1.114s-1.727-0.454-2.564-0.454
		c-0.872,0-1.608,0.164-2.209,0.492c-0.601,0.327-0.901,0.814-0.901,1.461c0,0.572,0.182,1.004,0.546,1.294
		c0.355,0.29,0.931,0.526,1.727,0.71c0.44,0.1,0.934,0.199,1.479,0.298c0.546,0.1,1,0.19,1.364,0.274
		c1.108,0.248,1.964,0.676,2.564,1.281C399.971,78.269,400.271,79.081,400.271,80.093z"/>
	<path fill="#1922FA" d="M415.82,70.202l-8.277,19.023h-2.552l2.641-5.798l-5.649-13.226h2.59l4.354,10.302l4.393-10.302H415.82z"/>
</g>
</svg>
