<?xml version="1.0" encoding="UTF-8"?>
<svg id="Ebene_1" data-name="Ebene 1" xmlns="http://www.w3.org/2000/svg" viewBox="0 0 99.21 99.23">
  <defs>
    <style>
      .cls-1, .cls-2 {
        stroke-width: 0px;
      }

      .cls-2 {
        fill: #3f9;
      }
    </style>
  </defs>
  <path class="cls-2" d="m93.08,99.23H6.13C2.75,99.23,0,96.48,0,93.1V6.16C0,2.77,2.75.02,6.13.02h86.94c3.39,0,6.13,2.75,6.13,6.13v86.94c0,3.39-2.75,6.13-6.13,6.13"/>
  <path class="cls-1" d="m79.03,35.41l-27.6-20.4c-1.09-.8-2.57-.8-3.65,0l-27.6,20.54c-.78.58-1.24,1.49-1.24,2.46v37.63c0,1.69,1.37,3.07,3.07,3.07h55.21c1.7,0,3.07-1.37,3.07-3.07v-37.77c0-.97-.46-1.89-1.24-2.47Zm-29.42-14.12l24.43,18.06H25.35l24.26-18.06Zm-24.54,51.29v-27.1h49.07v27.1H25.07Z"/>
</svg>