<?xml version="1.0" encoding="UTF-8"?>
<svg id="Ebene_1" data-name="Ebene 1" xmlns="http://www.w3.org/2000/svg" viewBox="0 0 99.21 99.21">
  <defs>
    <style>
      .cls-1, .cls-2 {
        stroke-width: 0px;
      }

      .cls-2 {
        fill: #fc9;
      }
    </style>
  </defs>
  <path class="cls-2" d="m93.08,99.21H6.13C2.75,99.21,0,96.46,0,93.08V6.13C0,2.75,2.75,0,6.13,0h86.94c3.39,0,6.13,2.75,6.13,6.13v86.94c0,3.39-2.75,6.13-6.13,6.13"/>
  <g>
    <path class="cls-1" d="m41.73,79.5c-9.52,0-18.06-3.41-22.31-10.01-3.16-4.9-4.08-10.88-2.66-17.3,2.1-9.53,9.26-18.96,19.16-25.23,17.1-10.82,37.5-9.36,45.49,3.25,2.09,3.3,2.28,9.85.37,13.22-1.09,1.92-2.86,2.95-4.85,2.94-2.74-.18-5.06,1.2-6.29,3.37-1.56,2.75-1.07,6.53,1.35,10.37,2.3,3.64-.35,8.35-7.08,12.62-7.2,4.56-15.5,6.78-23.17,6.78Zm17.95-53.74c-6.45,0-13.73,2.11-20.48,6.38-8.55,5.41-14.69,13.4-16.45,21.37-1.06,4.79-.42,9.17,1.83,12.66h0c5.25,8.16,22.58,10.53,37.04,1.37,2.74-1.73,4.54-3.64,4.95-4.52-3.46-5.71-3.93-11.63-1.27-16.31,2.25-3.97,6.53-6.41,11.25-6.48.64-1.33.6-5.28-.32-6.74-3.25-5.13-9.39-7.74-16.55-7.74Z"/>
    <path class="cls-1" d="m55.85,40.7c-1.2,0-2.39-.49-3.25-1.35-.86-.86-1.35-2.05-1.35-3.25s.49-2.39,1.35-3.25c1.69-1.72,4.78-1.72,6.5-.03.86.89,1.35,2.05,1.35,3.28s-.49,2.39-1.35,3.25c-.86.86-2.05,1.35-3.25,1.35Z"/>
    <path class="cls-1" d="m40.21,48.61c-1.23,0-2.39-.49-3.25-1.35-.86-.86-1.35-2.05-1.35-3.25s.49-2.39,1.35-3.25c1.69-1.72,4.78-1.72,6.5,0,.86.86,1.35,2.05,1.35,3.25s-.49,2.39-1.35,3.25c-.86.86-2.06,1.35-3.25,1.35Z"/>
    <path class="cls-1" d="m33.85,64.62c-1.2,0-2.39-.49-3.25-1.35-.86-.86-1.35-2.02-1.35-3.25s.49-2.39,1.35-3.25c1.72-1.72,4.78-1.72,6.5,0,.86.86,1.35,2.05,1.35,3.25s-.49,2.39-1.35,3.25-2.05,1.35-3.25,1.35Z"/>
  </g>
</svg>