<?xml version="1.0" encoding="UTF-8"?>
<svg id="Ebene_1" data-name="Ebene 1" xmlns="http://www.w3.org/2000/svg" viewBox="0 0 99.21 99.21">
  <defs>
    <style>
      .cls-1 {
        fill: #232323;
      }

      .cls-1, .cls-2 {
        stroke-width: 0px;
      }

      .cls-2 {
        fill: #c3f;
      }
    </style>
  </defs>
  <path class="cls-2" d="m93.08,99.23H6.13C2.75,99.23,0,96.48,0,93.1V6.16C0,2.77,2.75.02,6.13.02h86.94c3.39,0,6.13,2.75,6.13,6.13v86.94c0,3.39-2.75,6.13-6.13,6.13"/>
  <path class="cls-1" d="m46,74.11c-1,0-1.94-.49-2.51-1.31l-18.13-25.95c-.97-1.39-.63-3.3.76-4.27,1.39-.97,3.3-.63,4.27.76l15.4,22.05,22.92-38.72c.86-1.46,2.75-1.94,4.2-1.08,1.46.86,1.94,2.75,1.08,4.2l-25.34,42.82c-.53.9-1.48,1.46-2.52,1.5-.04,0-.08,0-.12,0Z"/>
</svg>