<?xml version="1.0" encoding="UTF-8"?>
<svg id="Ebene_1" data-name="Ebene 1" xmlns="http://www.w3.org/2000/svg" viewBox="0 0 99.21 99.31">
  <defs>
    <style>
      .cls-1, .cls-2 {
        stroke-width: 0px;
      }

      .cls-2 {
        fill: #9cc;
      }
    </style>
  </defs>
  <path class="cls-2" d="m93.08,99.31H6.13C2.75,99.31,0,96.56,0,93.17V6.23C0,2.84,2.75.09,6.13.09h86.94c3.39,0,6.13,2.75,6.13,6.13v86.94c0,3.39-2.75,6.13-6.13,6.13"/>
  <g>
    <path class="cls-1" d="m79.88,26.03H19.33c-1.69,0-3.07,1.37-3.07,3.07v41.21c0,1.7,1.37,3.07,3.07,3.07h60.55c1.69,0,3.07-1.37,3.07-3.07V29.1c0-1.7-1.37-3.07-3.07-3.07Zm-3.07,6.13v6.49H22.4v-6.49h54.41Zm-54.41,35.07v-22.45h54.41v22.45H22.4Z"/>
    <path class="cls-1" d="m67.8,60.25c-1.2,0-2.39-.49-3.25-1.35-.86-.86-1.35-2.05-1.35-3.25s.49-2.39,1.35-3.25c1.72-1.72,4.78-1.72,6.5,0,.86.86,1.35,2.02,1.35,3.25s-.49,2.39-1.35,3.25c-.86.86-2.05,1.35-3.25,1.35Z"/>
  </g>
</svg>