<?xml version="1.0" encoding="UTF-8"?>
<svg id="Ebene_1" data-name="Ebene 1" xmlns="http://www.w3.org/2000/svg" viewBox="0 0 99.21 99.21">
  <defs>
    <style>
      .cls-1, .cls-2 {
        stroke-width: 0px;
      }

      .cls-2 {
        fill: #99c;
      }
    </style>
  </defs>
  <path class="cls-2" d="m93.08,99.12H6.13c-3.39,0-6.13-2.75-6.13-6.13V6.04C0,2.66,2.75-.09,6.13-.09h86.94c3.39,0,6.13,2.75,6.13,6.13v86.94c0,3.39-2.75,6.13-6.13,6.13"/>
  <g>
    <path class="cls-1" d="m59.77,41.72c-1.49-.81-3.35-.26-4.16,1.22l-6.57,12.04-5.63-7.84c-.99-1.38-2.91-1.7-4.28-.7-1.38.99-1.69,2.91-.7,4.28l8.47,11.8c.58.81,1.51,1.28,2.49,1.28.06,0,.13,0,.19,0,1.05-.07,2-.66,2.5-1.59l8.91-16.32c.81-1.49.26-3.35-1.22-4.16Z"/>
    <path class="cls-1" d="m78.7,33.79c-.02-.21-.06-.4-.12-.6-.06-.19-.13-.37-.22-.54-.09-.17-.2-.32-.32-.47-.13-.16-.26-.29-.41-.42-.15-.12-.3-.22-.47-.32-.18-.1-.37-.18-.57-.24-.1-.03-.17-.09-.27-.12-17.5-3.68-24.36-10.79-24.41-10.84-.58-.63-1.39-.98-2.24-.99-.92.07-1.67.34-2.26.96-.07.07-7.01,7.19-24.52,10.87-.1.02-.18.09-.27.12-.2.06-.38.14-.56.24-.18.1-.33.2-.49.33-.15.12-.27.26-.39.41-.13.16-.24.32-.33.5-.09.16-.15.33-.21.51-.06.21-.11.41-.13.63,0,.1-.06.18-.06.28,0,25.62,12.8,45.69,29.15,45.69s29.15-20.07,29.15-45.69c0-.1-.05-.19-.06-.29Zm-29.09,39.84c-12,0-22.19-16.78-22.94-37.15,12.37-2.98,19.64-7.51,22.97-10.1,3.32,2.6,10.56,7.12,22.91,10.1-.75,20.37-10.94,37.15-22.94,37.15Z"/>
  </g>
</svg>