<?xml version="1.0" encoding="UTF-8"?>
<svg id="Ebene_1" data-name="Ebene 1" xmlns="http://www.w3.org/2000/svg" viewBox="0 0 99.21 99.61">
  <defs>
    <style>
      .cls-1, .cls-2 {
        stroke-width: 0px;
      }

      .cls-2 {
        fill: #cf6;
      }
    </style>
  </defs>
  <path class="cls-2" d="m93.08,99.21H6.13C2.75,99.21,0,96.46,0,93.08V6.13C0,2.75,2.75,0,6.13,0h86.94c3.39,0,6.13,2.75,6.13,6.13v86.94c0,3.39-2.75,6.13-6.13,6.13"/>
  <g>
    <path class="cls-1" d="m70.4,27.27h-6.4v-2.86c0-1.69-1.37-3.07-3.07-3.07s-3.07,1.37-3.07,3.07v2.86h-18.4v-2.86c0-1.69-1.37-3.07-3.07-3.07s-3.07,1.37-3.07,3.07v2.86h-6.4c-1.7,0-3.07,1.37-3.07,3.07v43.37c0,1.69,1.37,3.07,3.07,3.07h43.47c1.7,0,3.07-1.37,3.07-3.07V30.33c0-1.69-1.37-3.07-3.07-3.07Zm-37.07,6.13v.21c0,1.69,1.37,3.07,3.07,3.07s3.07-1.37,3.07-3.07v-.21h18.4v.21c0,1.69,1.37,3.07,3.07,3.07s3.07-1.37,3.07-3.07v-.21h3.33v6.34H29.99v-6.34h3.33Zm-3.33,37.24v-24.76h37.34v24.76H29.99Z"/>
    <path class="cls-1" d="m55.5,51.21c-.86.83-1.35,2.02-1.35,3.25s.49,2.39,1.35,3.25c.86.86,2.02,1.35,3.25,1.35s2.39-.49,3.25-1.35c.86-.86,1.35-2.05,1.35-3.25s-.49-2.42-1.35-3.28c-1.75-1.69-4.79-1.69-6.5.03Z"/>
  </g>
</svg>