<?xml version="1.0" encoding="UTF-8"?>
<svg id="Ebene_1" data-name="Ebene 1" xmlns="http://www.w3.org/2000/svg" viewBox="0 0 99.21 99.21">
  <defs>
    <style>
      .cls-1, .cls-2 {
        stroke-width: 0px;
      }

      .cls-2 {
        fill: #969;
      }
    </style>
  </defs>
  <path class="cls-2" d="m93.08,99.21H6.13C2.75,99.21,0,96.46,0,93.08V6.13C0,2.75,2.75,0,6.13,0h86.94C96.46,0,99.21,2.75,99.21,6.13v86.94c0,3.39-2.75,6.13-6.13,6.13"/>
  <g>
    <path class="cls-1" d="m85.27,45.92c1.2-.45,1.99-1.59,1.99-2.87s-.79-2.42-1.99-2.87l-35.1-13.16c-.69-.26-1.46-.26-2.15,0l-34.08,12.78c-1.2.45-1.99,1.59-1.99,2.87s.79,2.42,1.99,2.87l17.26,6.47v11.1c0,.86.36,1.69,1,2.27,3.55,3.23,10.23,7.01,17.93,7.01,5.36,0,11.22-1.83,16.87-6.95.64-.58,1.01-1.4,1.01-2.27v-10.77l17.26-6.47Zm-36.17-12.76l26.36,9.88-11.03,4.13c-.39.07-.75.2-1.08.4l-13.23,4.96-26.36-9.88,25.34-9.5Zm12.78,28.6c-10.77,8.81-21.29,2.33-24.54-.11v-7.34l11.7,4.39c.35.13.71.19,1.08.19s.73-.07,1.08-.19l10.68-4v7.07Z"/>
    <path class="cls-1" d="m83.88,50.15c-1.7,0-3.07,1.37-3.07,3.07v6.13c0,1.7,1.37,3.07,3.07,3.07s3.07-1.37,3.07-3.07v-6.13c0-1.7-1.37-3.07-3.07-3.07Z"/>
  </g>
</svg>