<?xml version="1.0" encoding="UTF-8"?>
<svg id="Ebene_1" data-name="Ebene 1" xmlns="http://www.w3.org/2000/svg" viewBox="0 0 99.21 99.23">
  <defs>
    <style>
      .cls-1, .cls-2 {
        stroke-width: 0px;
      }

      .cls-2 {
        fill: #9fc;
      }
    </style>
  </defs>
  <path class="cls-2" d="m93.08,99.23H6.13C2.75,99.23,0,96.48,0,93.1V6.16C0,2.77,2.75.02,6.13.02h86.94c3.39,0,6.13,2.75,6.13,6.13v86.94c0,3.39-2.75,6.13-6.13,6.13"/>
  <path class="cls-1" d="m77.21,23.56H22c-1.7,0-3.07,1.37-3.07,3.07v46.01c0,1.69,1.37,3.07,3.07,3.07h55.21c1.7,0,3.07-1.37,3.07-3.07V26.62c0-1.69-1.37-3.07-3.07-3.07Zm-3.07,6.13v.34l-25.14,19.99-23.93-20.24v-.09h49.07Zm-49.07,39.87v-31.75l21.89,18.52c.57.48,1.28.72,1.98.72s1.35-.22,1.91-.67l23.29-18.53v31.7H25.07Z"/>
</svg>