<?xml version="1.0" encoding="UTF-8"?>
<svg id="Ebene_1" data-name="Ebene 1" xmlns="http://www.w3.org/2000/svg" viewBox="0 0 99.21 99.21">
  <defs>
    <style>
      .cls-1, .cls-2 {
        stroke-width: 0px;
      }

      .cls-2 {
        fill: #99f;
      }
    </style>
  </defs>
  <path class="cls-2" d="m93.08,99.21H6.13C2.75,99.21,0,96.46,0,93.08V6.13C0,2.75,2.75,0,6.13,0h86.94c3.39,0,6.13,2.75,6.13,6.13v86.94c0,3.39-2.75,6.13-6.13,6.13"/>
  <path class="cls-1" d="m69.54,22c-1.69,0-3.07,1.37-3.07,3.07v21.47h-33.74v-21.47c0-1.69-1.37-3.07-3.07-3.07s-3.07,1.37-3.07,3.07v49.07c0,1.69,1.37,3.07,3.07,3.07s3.07-1.37,3.07-3.07v-21.47h33.74v21.47c0,1.69,1.37,3.07,3.07,3.07s3.07-1.37,3.07-3.07V25.07c0-1.69-1.37-3.07-3.07-3.07Z"/>
</svg>