<?xml version="1.0" encoding="UTF-8"?>
<svg id="Ebene_1" data-name="Ebene 1" xmlns="http://www.w3.org/2000/svg" viewBox="0 0 99.21 99.21">
  <defs>
    <style>
      .cls-1, .cls-2 {
        stroke-width: 0px;
      }

      .cls-2 {
        fill: #66f;
      }
    </style>
  </defs>
  <path class="cls-2" d="m93.08,99.21H6.13C2.75,99.21,0,96.46,0,93.08V6.13C0,2.75,2.75,0,6.13,0h86.94C96.46,0,99.21,2.75,99.21,6.13v86.94c0,3.39-2.75,6.13-6.13,6.13"/>
  <g>
    <path class="cls-1" d="m75.68,46.54H23.54c-1.69,0-3.07-1.37-3.07-3.07s1.37-3.07,3.07-3.07h52.14c1.69,0,3.07,1.37,3.07,3.07s-1.37,3.07-3.07,3.07Z"/>
    <path class="cls-1" d="m75.68,58.81H23.54c-1.69,0-3.07-1.37-3.07-3.07s1.37-3.07,3.07-3.07h52.14c1.69,0,3.07,1.37,3.07,3.07s-1.37,3.07-3.07,3.07Z"/>
    <path class="cls-1" d="m54.21,71.08h-30.67c-1.69,0-3.07-1.37-3.07-3.07s1.37-3.07,3.07-3.07h30.67c1.69,0,3.07,1.37,3.07,3.07s-1.37,3.07-3.07,3.07Z"/>
    <path class="cls-1" d="m75.68,34.27H23.54c-1.69,0-3.07-1.37-3.07-3.07s1.37-3.07,3.07-3.07h52.14c1.69,0,3.07,1.37,3.07,3.07s-1.37,3.07-3.07,3.07Z"/>
  </g>
</svg>