<?xml version="1.0" encoding="UTF-8"?>
<svg id="Ebene_1" data-name="Ebene 1" xmlns="http://www.w3.org/2000/svg" viewBox="0 0 99.21 99.21">
  <defs>
    <style>
      .cls-1, .cls-2 {
        stroke-width: 0px;
      }

      .cls-2 {
        fill: #f69;
      }
    </style>
  </defs>
  <path class="cls-2" d="m93.07,99.21H6.12C2.74,99.21-.01,96.46-.01,93.08V6.13C-.01,2.75,2.74,0,6.12,0h86.94C96.45,0,99.2,2.75,99.2,6.13v86.94c0,3.39-2.75,6.13-6.13,6.13"/>
  <path class="cls-1" d="m78.75,49.61c0-16.02-12.99-29.06-29-29.14-.05,0-.1-.01-.15-.01-.05,0-.09.01-.14.01-16.01.08-29.01,13.12-29.01,29.14s13,29.07,29.01,29.14c.05,0,.09.01.14.01.05,0,.1-.01.15-.01,16-.08,29-13.12,29-29.14Zm-6.36-3.04h-6.33c-.35-6.27-1.8-11.87-3.99-16.28,5.53,3.58,9.42,9.46,10.33,16.28Zm-25.86-18.79v18.76h-7.23c.58-9.23,3.73-16.13,7.23-18.76Zm0,24.9v18.77c-3.51-2.64-6.65-9.54-7.24-18.78h7.24Zm6.13,18.77v-18.77h7.23c-.58,9.24-3.73,16.14-7.23,18.77Zm0-24.9v-18.77c3.51,2.63,6.66,9.54,7.24,18.78h-7.24Zm-15.53-16.26c-2.19,4.4-3.63,9.99-3.99,16.23h-6.33c.92-6.8,4.8-12.66,10.32-16.23Zm-10.33,22.36h6.33c.35,6.27,1.8,11.87,3.99,16.28-5.53-3.58-9.42-9.46-10.33-16.28Zm35.26,16.28c2.19-4.4,3.63-9.98,3.99-16.23h6.33c-.92,6.8-4.8,12.66-10.32,16.23Z"/>
</svg>