<?xml version="1.0" encoding="UTF-8"?>
<svg id="Ebene_1" data-name="Ebene 1" xmlns="http://www.w3.org/2000/svg" viewBox="0 0 99.21 99.21">
  <defs>
    <style>
      .cls-1, .cls-2 {
        stroke-width: 0px;
      }

      .cls-2 {
        fill: #6c9;
      }
    </style>
  </defs>
  <path class="cls-2" d="m93.08,99.23H6.13C2.75,99.23,0,96.48,0,93.1V6.16C0,2.77,2.75.02,6.13.02h86.94c3.39,0,6.13,2.75,6.13,6.13v86.94c0,3.39-2.75,6.13-6.13,6.13"/>
  <path class="cls-1" d="m30.72,78.78c-.8,0-1.59-.32-2.17-.9l-7.19-7.19c-.62-.62-.94-1.47-.89-2.35.05-.87.47-1.68,1.16-2.23l11.3-8.93c1.17-.93,2.84-.87,3.96.13l8.75,7.89c6.23-4.16,13.32-10.4,19.31-19.56l-7.74-8.66c-.99-1.11-1.05-2.78-.12-3.95l9.01-11.38c.54-.69,1.35-1.11,2.23-1.16.86-.05,1.73.28,2.35.89l7.19,7.2c.84.84,1.12,2.09.72,3.2-13.81,38.51-45.79,46.59-47.14,46.92-.24.06-.48.09-.72.09Zm-2.59-9.99l3.46,3.46c1.74-.58,4.8-1.74,8.54-3.75l-5.44-4.9-6.57,5.19Zm35.36-33.97l4.72,5.28c1.42-2.65,2.73-5.5,3.91-8.58l-3.37-3.37-5.27,6.66Z"/>
</svg>