<?xml version="1.0" encoding="UTF-8"?>
<svg id="Ebene_1" data-name="Ebene 1" xmlns="http://www.w3.org/2000/svg" viewBox="0 0 99.21 99.21">
  <defs>
    <style>
      .cls-1, .cls-2 {
        stroke-width: 0px;
      }

      .cls-2 {
        fill: #fc6;
      }
    </style>
  </defs>
  <path class="cls-2" d="m93.08,99.21H6.13C2.75,99.21,0,96.46,0,93.08V6.13C0,2.75,2.75,0,6.13,0h86.94c3.39,0,6.13,2.75,6.13,6.13v86.94c0,3.39-2.75,6.13-6.13,6.13"/>
  <rect class="cls-2" x="23.84" y="36.4" width="33.68" height="44.91"/>
  <path class="cls-1" d="m75.69,14.84h-33.68c-1.69,0-3.07,1.37-3.07,3.07v15.42h-15.41c-1.69,0-3.07,1.37-3.07,3.07v44.91c0,1.7,1.37,3.07,3.07,3.07h33.68c1.69,0,3.07-1.37,3.07-3.07v-15.42h15.41c1.69,0,3.07-1.37,3.07-3.07V17.91c0-1.7-1.37-3.07-3.07-3.07Zm-21.55,63.39h-27.55v-38.77h27.55v38.77Zm18.48-18.48h-12.35v-23.36c0-1.7-1.37-3.07-3.07-3.07h-12.13v-12.35h27.55v38.78Z"/>
</svg>