<?xml version="1.0" encoding="UTF-8"?>
<svg id="Ebene_1" data-name="Ebene 1" xmlns="http://www.w3.org/2000/svg" viewBox="0 0 99.21 99.21">
  <defs>
    <style>
      .cls-1, .cls-2 {
        stroke-width: 0px;
      }

      .cls-2 {
        fill: #fcc;
      }
    </style>
  </defs>
  <path class="cls-2" d="m93.08,99.21H6.13C2.75,99.21,0,96.46,0,93.08V6.13C0,2.75,2.75,0,6.13,0h86.94c3.39,0,6.13,2.75,6.13,6.13v86.94c0,3.39-2.75,6.13-6.13,6.13"/>
  <path class="cls-1" d="m75.69,70.64h-1.53v-5.6c0-1.7-1.37-3.07-3.07-3.07h-11.94c.22-3.76-.41-7.7-1.72-10.2-.25-.47-.51-.89-.77-1.3-.24-.37-.48-.72-.67-1.21-.24-.62-.31-1.58-.24-2.02,1.85-1.61,3.76-3.47,5.03-6.97,1.23-3.39,1.74-9.03.25-12.8-2.18-5.53-6.92-4.12-8.49-3.65-1.79.53-2.79.75-3.85.59-.27-1.11-.66-2.17-1.02-3.16-.34-.95-.67-1.85-.8-2.54-.21-1.03-.48-2.21-1.11-3.15-.72-1.07-1.78-1.69-2.98-1.75-1.37-.06-2.63.59-3.78,1.95-1.25,1.48-2.41,3.33-3.46,5.49-.28.58-.57,1.29-.66,2.24-.12,1.26.09,3.13,1.76,4.89,1.1,1.17,2.13,3.2,2.9,5.74.53,1.75.83,3.36.89,4.92.13,2.95-.52,5.82-1.25,8.48l-.2.75c-.75,2.74-1.53,5.58-1.71,8.96-.02.45-.1,2.54.28,4.78h-9.42c-1.69,0-3.07,1.37-3.07,3.07v5.6h-1.54c-1.69,0-3.07,1.37-3.07,3.07v8.67c0,1.7,1.37,3.07,3.07,3.07h52.17c1.69,0,3.07-1.37,3.07-3.07v-8.67c0-1.7-1.37-3.07-3.07-3.07Zm-3.07,8.67H26.59v-2.54h1.54c1.69,0,3.07-1.37,3.07-3.07v-5.6h36.83v5.6c0,1.7,1.37,3.07,3.07,3.07h1.53v2.54Z"/>
</svg>