<?xml version="1.0" encoding="UTF-8"?>
<svg id="Ebene_1" data-name="Ebene 1" xmlns="http://www.w3.org/2000/svg" viewBox="0 0 99.21 99.21">
  <defs>
    <style>
      .cls-1, .cls-2 {
        stroke-width: 0px;
      }

      .cls-2 {
        fill: #eda7fc;
      }
    </style>
  </defs>
  <path class="cls-2" d="m92.74,99.21H5.79c-3.39,0-6.13-2.75-6.13-6.13V6.13C-.34,2.75,2.41,0,5.79,0h86.94C96.12,0,98.87,2.75,98.87,6.13v86.94c0,3.39-2.75,6.13-6.13,6.13"/>
  <path class="cls-1" d="m49.27,78.76c-16.07,0-29.15-13.08-29.15-29.15s13.08-29.15,29.15-29.15,29.15,13.08,29.15,29.15-13.08,29.15-29.15,29.15Zm0-52.17c-12.69,0-23.02,10.32-23.02,23.02s10.32,23.02,23.02,23.02,23.02-10.32,23.02-23.02-10.32-23.02-23.02-23.02Z"/>
  <path class="cls-1" d="m49.27,65.71c-8.88,0-16.11-7.23-16.11-16.11s7.23-16.11,16.11-16.11,16.11,7.23,16.11,16.11-7.23,16.11-16.11,16.11Zm0-26.08c-5.5,0-9.97,4.47-9.97,9.97s4.47,9.97,9.97,9.97,9.97-4.47,9.97-9.97-4.47-9.97-9.97-9.97Z"/>
</svg>