<?xml version="1.0" encoding="UTF-8"?>
<svg id="Ebene_1" data-name="Ebene 1" xmlns="http://www.w3.org/2000/svg" viewBox="0 0 99.21 99.1">
  <defs>
    <style>
      .cls-1 {
        fill: #232323;
      }

      .cls-1, .cls-2 {
        stroke-width: 0px;
      }

      .cls-2 {
        fill: #e96eff;
      }
    </style>
  </defs>
  <path class="cls-2" d="m93.08,99.23H6.13c-3.39,0-6.13-2.75-6.13-6.13V6.16C0,2.77,2.75.02,6.13.02h86.94c3.39,0,6.13,2.75,6.13,6.13v86.94c0,3.39-2.75,6.13-6.13,6.13"/>
  <path class="cls-1" d="m49.15,62.73c-1,0-2.01-.39-4.22-2.47l-18.86-18.92c-.97-1.39-.63-3.3.76-4.27,1.39-.97,3.3-.63,4.27.76l18.17,18.1,17.98-17.97c1.14-1.44,3.24-2.03,4.74-.66,1.01.92,1.58,2.93.29,4.34l-18.67,18.63c-2.02,1.73-2.71,2.47-4.34,2.46-.04,0-.08,0-.12,0Z"/>
</svg>