<?xml version="1.0" encoding="UTF-8"?>
<svg id="Ebene_1" data-name="Ebene 1" xmlns="http://www.w3.org/2000/svg" viewBox="0 0 99.21 99.61">
  <defs>
    <style>
      .cls-1, .cls-2 {
        stroke-width: 0px;
      }

      .cls-2 {
        fill: #cf9;
      }
    </style>
  </defs>
  <path class="cls-2" d="m93.08,99.21H6.13C2.75,99.21,0,96.46,0,93.08V6.13C0,2.75,2.75,0,6.13,0h86.94c3.39,0,6.13,2.75,6.13,6.13v86.94c0,3.39-2.75,6.13-6.13,6.13"/>
  <g>
    <path class="cls-1" d="m49.61,20.46c-16.07,0-29.15,13.08-29.15,29.15s13.08,29.15,29.15,29.15,29.15-13.08,29.15-29.15-13.08-29.15-29.15-29.15Zm0,52.17c-12.69,0-23.02-10.32-23.02-23.02s10.32-23.02,23.02-23.02,23.02,10.32,23.02,23.02-10.32,23.02-23.02,23.02Z"/>
    <path class="cls-1" d="m52.5,48.41v-15.98c0-1.7-1.37-3.07-3.07-3.07s-3.07,1.37-3.07,3.07v17.19c0,.78.29,1.52.82,2.09l10.29,11.08c.61.65,1.42.98,2.25.98.75,0,1.5-.27,2.09-.82,1.24-1.15,1.31-3.09.16-4.33l-9.47-10.19Z"/>
  </g>
</svg>