<?xml version="1.0" encoding="UTF-8"?>
<svg id="Ebene_1" data-name="Ebene 1" xmlns="http://www.w3.org/2000/svg" viewBox="0 0 99.21 99.61">
  <defs>
    <style>
      .cls-1, .cls-2 {
        stroke-width: 0px;
      }

      .cls-2 {
        fill: #699;
      }
    </style>
  </defs>
  <path class="cls-2" d="m93.07,99.61H6.12C2.74,99.61-.01,96.86-.01,93.47V6.53C-.01,3.15,2.74.4,6.12.4h86.94c3.39,0,6.13,2.75,6.13,6.13v86.94c0,3.39-2.75,6.13-6.13,6.13"/>
  <path class="cls-1" d="m77.2,75.5H21.99c-1.69,0-3.07-1.37-3.07-3.07V27.58c0-.82.33-1.6.91-2.18.58-.58,1.32-.91,2.19-.89l17.78.17c.84,0,1.63.36,2.21.96l6.5,6.91h28.7c1.69,0,3.07,1.37,3.07,3.07v36.81c0,1.7-1.37,3.07-3.07,3.07Zm-52.14-6.13h49.07v-30.67h-26.95c-.85,0-1.65-.35-2.23-.96l-6.51-6.92-13.37-.13v38.69Z"/>
</svg>