<?xml version="1.0" encoding="UTF-8"?>
<svg id="Ebene_1" data-name="Ebene 1" xmlns="http://www.w3.org/2000/svg" viewBox="0 0 99.21 99.21">
  <defs>
    <style>
      .cls-1, .cls-2 {
        stroke-width: 0px;
      }

      .cls-2 {
        fill: #9c9;
      }
    </style>
  </defs>
  <path class="cls-2" d="m93.08,99.21H6.13C2.75,99.21,0,96.46,0,93.08V6.13C0,2.75,2.75,0,6.13,0h86.94C96.46,0,99.21,2.75,99.21,6.13v86.94c0,3.39-2.75,6.13-6.13,6.13"/>
  <g>
    <path class="cls-1" d="m35.52,76.59c-3.3,0-6.6-1.26-9.12-3.77-5.03-5.03-5.03-13.21,0-18.24l11.71-11.71c5.04-5.03,13.22-5.03,18.24,0,1.2,1.2,1.2,3.14,0,4.34s-3.14,1.2-4.34,0c-2.63-2.64-6.93-2.64-9.57,0l-11.71,11.71c-2.64,2.64-2.64,6.93,0,9.57,2.65,2.64,6.93,2.64,9.57,0l4.38-4.38c1.2-1.2,3.14-1.2,4.34,0s1.2,3.14,0,4.34l-4.38,4.38c-2.52,2.51-5.82,3.77-9.12,3.77Z"/>
    <path class="cls-1" d="m51.99,60.12c-3.31,0-6.61-1.26-9.12-3.77-1.2-1.2-1.2-3.14,0-4.34s3.14-1.2,4.34,0c2.64,2.64,6.93,2.64,9.57,0l11.71-11.71c2.64-2.64,2.64-6.93,0-9.57-2.64-2.64-6.93-2.63-9.57,0l-4.38,4.38c-1.2,1.2-3.14,1.2-4.34,0-1.2-1.2-1.2-3.14,0-4.34l4.38-4.38c5.03-5.03,13.21-5.03,18.24,0,5.03,5.03,5.03,13.21,0,18.24l-11.71,11.71c-2.52,2.51-5.82,3.77-9.12,3.77Z"/>
  </g>
</svg>